%TF.GenerationSoftware,KiCad,Pcbnew,9.0.2*%
%TF.CreationDate,2025-08-22T10:47:20-03:00*%
%TF.ProjectId,Projeto SIllion,50726f6a-6574-46f2-9053-496c6c696f6e,rev?*%
%TF.SameCoordinates,Original*%
%TF.FileFunction,Soldermask,Top*%
%TF.FilePolarity,Negative*%
%FSLAX46Y46*%
G04 Gerber Fmt 4.6, Leading zero omitted, Abs format (unit mm)*
G04 Created by KiCad (PCBNEW 9.0.2) date 2025-08-22 10:47:20*
%MOMM*%
%LPD*%
G01*
G04 APERTURE LIST*
G04 Aperture macros list*
%AMRoundRect*
0 Rectangle with rounded corners*
0 $1 Rounding radius*
0 $2 $3 $4 $5 $6 $7 $8 $9 X,Y pos of 4 corners*
0 Add a 4 corners polygon primitive as box body*
4,1,4,$2,$3,$4,$5,$6,$7,$8,$9,$2,$3,0*
0 Add four circle primitives for the rounded corners*
1,1,$1+$1,$2,$3*
1,1,$1+$1,$4,$5*
1,1,$1+$1,$6,$7*
1,1,$1+$1,$8,$9*
0 Add four rect primitives between the rounded corners*
20,1,$1+$1,$2,$3,$4,$5,0*
20,1,$1+$1,$4,$5,$6,$7,0*
20,1,$1+$1,$6,$7,$8,$9,0*
20,1,$1+$1,$8,$9,$2,$3,0*%
G04 Aperture macros list end*
%ADD10RoundRect,0.250000X-0.250000X-0.475000X0.250000X-0.475000X0.250000X0.475000X-0.250000X0.475000X0*%
%ADD11R,1.700000X1.700000*%
%ADD12C,1.700000*%
%ADD13RoundRect,0.250000X2.050000X0.300000X-2.050000X0.300000X-2.050000X-0.300000X2.050000X-0.300000X0*%
%ADD14RoundRect,0.250002X4.449998X5.149998X-4.449998X5.149998X-4.449998X-5.149998X4.449998X-5.149998X0*%
%ADD15RoundRect,0.250000X0.262500X0.450000X-0.262500X0.450000X-0.262500X-0.450000X0.262500X-0.450000X0*%
%ADD16R,1.700000X1.000000*%
%ADD17RoundRect,0.375000X0.625000X0.375000X-0.625000X0.375000X-0.625000X-0.375000X0.625000X-0.375000X0*%
%ADD18RoundRect,0.500000X0.500000X1.400000X-0.500000X1.400000X-0.500000X-1.400000X0.500000X-1.400000X0*%
%ADD19RoundRect,0.250000X-0.262500X-0.450000X0.262500X-0.450000X0.262500X0.450000X-0.262500X0.450000X0*%
%ADD20RoundRect,0.250000X0.650000X-1.000000X0.650000X1.000000X-0.650000X1.000000X-0.650000X-1.000000X0*%
%ADD21RoundRect,0.150000X0.150000X-0.587500X0.150000X0.587500X-0.150000X0.587500X-0.150000X-0.587500X0*%
%ADD22RoundRect,0.250000X0.250000X0.475000X-0.250000X0.475000X-0.250000X-0.475000X0.250000X-0.475000X0*%
%ADD23R,1.500000X0.900000*%
%ADD24R,0.900000X1.500000*%
%ADD25C,0.600000*%
%ADD26R,4.200000X4.200000*%
%ADD27R,2.350000X5.100000*%
%ADD28R,1.500000X1.500000*%
%ADD29RoundRect,0.218750X0.218750X0.381250X-0.218750X0.381250X-0.218750X-0.381250X0.218750X-0.381250X0*%
%ADD30RoundRect,0.250000X0.475000X-0.250000X0.475000X0.250000X-0.475000X0.250000X-0.475000X-0.250000X0*%
%ADD31RoundRect,0.243750X0.243750X0.456250X-0.243750X0.456250X-0.243750X-0.456250X0.243750X-0.456250X0*%
%ADD32RoundRect,0.250000X-1.000000X-0.650000X1.000000X-0.650000X1.000000X0.650000X-1.000000X0.650000X0*%
%ADD33C,4.000000*%
%ADD34R,1.600000X1.600000*%
%ADD35C,1.600000*%
%ADD36RoundRect,0.250000X-0.475000X0.250000X-0.475000X-0.250000X0.475000X-0.250000X0.475000X0.250000X0*%
%ADD37RoundRect,0.225000X-0.225000X-0.375000X0.225000X-0.375000X0.225000X0.375000X-0.225000X0.375000X0*%
%ADD38RoundRect,0.250000X0.312500X1.450000X-0.312500X1.450000X-0.312500X-1.450000X0.312500X-1.450000X0*%
%ADD39RoundRect,0.150000X-0.150000X0.825000X-0.150000X-0.825000X0.150000X-0.825000X0.150000X0.825000X0*%
G04 APERTURE END LIST*
D10*
%TO.C,C7*%
X137700000Y-97750000D03*
X139600000Y-97750000D03*
%TD*%
D11*
%TO.C,J6*%
X154450000Y-69380000D03*
D12*
X154450000Y-71920000D03*
X154450000Y-74460000D03*
X154450000Y-77000000D03*
X154450000Y-79540000D03*
X154450000Y-82080000D03*
%TD*%
D10*
%TO.C,C25*%
X128550000Y-112200000D03*
X130450000Y-112200000D03*
%TD*%
%TO.C,C11*%
X126850000Y-107500000D03*
X128750000Y-107500000D03*
%TD*%
D13*
%TO.C,U5*%
X122500000Y-106450000D03*
X122500000Y-104750000D03*
X122500000Y-103050000D03*
D14*
X113350000Y-103050000D03*
D13*
X122500000Y-101350000D03*
X122500000Y-99650000D03*
%TD*%
D15*
%TO.C,R10*%
X139562500Y-101500000D03*
X137737500Y-101500000D03*
%TD*%
D16*
%TO.C,SW2*%
X104450000Y-77050000D03*
X110750000Y-77050000D03*
X104450000Y-80850000D03*
X110750000Y-80850000D03*
%TD*%
D17*
%TO.C,U7*%
X150000000Y-115700000D03*
X150000000Y-113400000D03*
D18*
X143700000Y-113400000D03*
D17*
X150000000Y-111100000D03*
%TD*%
D19*
%TO.C,R27*%
X105875000Y-71000000D03*
X107700000Y-71000000D03*
%TD*%
%TO.C,R14*%
X137725000Y-89800000D03*
X139550000Y-89800000D03*
%TD*%
D20*
%TO.C,D1*%
X149900000Y-99150000D03*
X149900000Y-95150000D03*
%TD*%
D15*
%TO.C,R9*%
X132150000Y-101550000D03*
X130325000Y-101550000D03*
%TD*%
D21*
%TO.C,Q3*%
X143400000Y-86925000D03*
X145300000Y-86925000D03*
X144350000Y-85050000D03*
%TD*%
D22*
%TO.C,C36*%
X111150000Y-73000000D03*
X109250000Y-73000000D03*
%TD*%
D23*
%TO.C,U8*%
X114540000Y-67940000D03*
X114540000Y-69210000D03*
X114540000Y-70480000D03*
X114540000Y-71750000D03*
X114540000Y-73020000D03*
X114540000Y-74290000D03*
X114540000Y-75560000D03*
X114540000Y-76830000D03*
X114540000Y-78100000D03*
X114540000Y-79370000D03*
X114540000Y-80640000D03*
X114540000Y-81910000D03*
X114540000Y-83180000D03*
X114540000Y-84450000D03*
D24*
X117580000Y-85700000D03*
X118850000Y-85700000D03*
X120120000Y-85700000D03*
X121390000Y-85700000D03*
X122660000Y-85700000D03*
X123930000Y-85700000D03*
X125200000Y-85700000D03*
X126470000Y-85700000D03*
X127740000Y-85700000D03*
X129010000Y-85700000D03*
D23*
X132040000Y-84450000D03*
X132040000Y-83180000D03*
X132040000Y-81910000D03*
X132040000Y-80640000D03*
X132040000Y-79370000D03*
X132040000Y-78100000D03*
X132040000Y-76830000D03*
X132040000Y-75560000D03*
X132040000Y-74290000D03*
X132040000Y-73020000D03*
X132040000Y-71750000D03*
X132040000Y-70480000D03*
X132040000Y-69210000D03*
X132040000Y-67940000D03*
D25*
X121085000Y-74517500D03*
X121085000Y-76042500D03*
X121847500Y-73755000D03*
X121847500Y-75280000D03*
X121847500Y-76805000D03*
X122610000Y-74517500D03*
D26*
X122610000Y-75280000D03*
D25*
X122610000Y-76042500D03*
X123372500Y-73755000D03*
X123372500Y-75280000D03*
X123372500Y-76805000D03*
X124135000Y-74517500D03*
X124135000Y-76042500D03*
%TD*%
D10*
%TO.C,C6*%
X134250000Y-95750000D03*
X136150000Y-95750000D03*
%TD*%
%TO.C,C12*%
X134150000Y-107350000D03*
X136050000Y-107350000D03*
%TD*%
D27*
%TO.C,L1*%
X119500000Y-113700000D03*
X115350000Y-113700000D03*
%TD*%
D28*
%TO.C,TP3*%
X100900000Y-80950000D03*
%TD*%
D20*
%TO.C,D9*%
X149900000Y-107450000D03*
X149900000Y-103450000D03*
%TD*%
D15*
%TO.C,R8*%
X128750000Y-99650000D03*
X126925000Y-99650000D03*
%TD*%
D10*
%TO.C,C26*%
X128375000Y-115650000D03*
X130275000Y-115650000D03*
%TD*%
D20*
%TO.C,D2*%
X144800000Y-99100000D03*
X144800000Y-95100000D03*
%TD*%
D28*
%TO.C,TP5*%
X97750000Y-77250000D03*
%TD*%
D29*
%TO.C,FB1*%
X136200000Y-99650000D03*
X134075000Y-99650000D03*
%TD*%
D10*
%TO.C,C33*%
X134800000Y-68700000D03*
X136700000Y-68700000D03*
%TD*%
D28*
%TO.C,TP4*%
X97750000Y-80950000D03*
%TD*%
D30*
%TO.C,C31*%
X113050000Y-93600000D03*
X113050000Y-91700000D03*
%TD*%
D10*
%TO.C,C8*%
X126850000Y-103500000D03*
X128750000Y-103500000D03*
%TD*%
D31*
%TO.C,D11*%
X148250000Y-75850000D03*
X146375000Y-75850000D03*
%TD*%
D10*
%TO.C,C5*%
X137750000Y-93750000D03*
X139650000Y-93750000D03*
%TD*%
D15*
%TO.C,R29*%
X136762500Y-76700000D03*
X134937500Y-76700000D03*
%TD*%
D10*
%TO.C,C28*%
X109250000Y-69000000D03*
X111150000Y-69000000D03*
%TD*%
D22*
%TO.C,C35*%
X140250000Y-74700000D03*
X138350000Y-74700000D03*
%TD*%
D32*
%TO.C,D10*%
X144250000Y-81950000D03*
X148250000Y-81950000D03*
%TD*%
D33*
%TO.C,J4*%
X103470000Y-88745000D03*
X103470000Y-113745000D03*
D34*
X104890000Y-95705000D03*
D35*
X104890000Y-98475000D03*
X104890000Y-101245000D03*
X104890000Y-104015000D03*
X104890000Y-106785000D03*
X102050000Y-97090000D03*
X102050000Y-99860000D03*
X102050000Y-102630000D03*
X102050000Y-105400000D03*
%TD*%
D36*
%TO.C,C29*%
X130950000Y-89550000D03*
X130950000Y-91450000D03*
%TD*%
D10*
%TO.C,C13*%
X134250000Y-91700000D03*
X136150000Y-91700000D03*
%TD*%
D37*
%TO.C,D8*%
X137550000Y-109550000D03*
X140850000Y-109550000D03*
%TD*%
D10*
%TO.C,C10*%
X130300000Y-105500000D03*
X132200000Y-105500000D03*
%TD*%
D16*
%TO.C,SW1*%
X134650000Y-81300000D03*
X140950000Y-81300000D03*
X134650000Y-85100000D03*
X140950000Y-85100000D03*
%TD*%
D31*
%TO.C,D12*%
X148250000Y-72400000D03*
X146375000Y-72400000D03*
%TD*%
D15*
%TO.C,R26*%
X136150000Y-87800000D03*
X134325000Y-87800000D03*
%TD*%
D11*
%TO.C,J1*%
X154450000Y-92520000D03*
D12*
X154450000Y-95060000D03*
%TD*%
D19*
%TO.C,R30*%
X138325000Y-78650000D03*
X140150000Y-78650000D03*
%TD*%
%TO.C,R28*%
X134937500Y-72700000D03*
X136762500Y-72700000D03*
%TD*%
D10*
%TO.C,C34*%
X138300000Y-70700000D03*
X140200000Y-70700000D03*
%TD*%
D28*
%TO.C,TP2*%
X143500000Y-103600000D03*
%TD*%
D20*
%TO.C,D7*%
X124825000Y-115850000D03*
X124825000Y-111850000D03*
%TD*%
D19*
%TO.C,R13*%
X137687500Y-105400000D03*
X139512500Y-105400000D03*
%TD*%
%TO.C,R11*%
X134287500Y-103400000D03*
X136112500Y-103400000D03*
%TD*%
D30*
%TO.C,C30*%
X113050000Y-89600000D03*
X113050000Y-87700000D03*
%TD*%
D11*
%TO.C,J5*%
X154450000Y-85970000D03*
D12*
X154450000Y-88510000D03*
%TD*%
D28*
%TO.C,TP1*%
X143600000Y-107300000D03*
%TD*%
D36*
%TO.C,C17*%
X134550000Y-114150000D03*
X134550000Y-116050000D03*
%TD*%
D30*
%TO.C,C32*%
X115400000Y-93650000D03*
X115400000Y-91750000D03*
%TD*%
D38*
%TO.C,F1*%
X148037500Y-90500000D03*
X143762500Y-90500000D03*
%TD*%
D39*
%TO.C,U6*%
X126760000Y-89675000D03*
X125490000Y-89675000D03*
X124220000Y-89675000D03*
X122950000Y-89675000D03*
X121680000Y-89675000D03*
X120410000Y-89675000D03*
X119140000Y-89675000D03*
X117870000Y-89675000D03*
X117870000Y-94625000D03*
X119140000Y-94625000D03*
X120410000Y-94625000D03*
X121680000Y-94625000D03*
X122950000Y-94625000D03*
X124220000Y-94625000D03*
X125490000Y-94625000D03*
X126760000Y-94625000D03*
%TD*%
D11*
%TO.C,J3*%
X154500000Y-98870000D03*
D12*
X154500000Y-101410000D03*
%TD*%
M02*
