M48
; DRILL file {KiCad 9.0.2} date 2025-08-22T10:47:51-0300
; FORMAT={-:-/ absolute / metric / decimal}
; #@! TF.CreationDate,2025-08-22T10:47:51-03:00
; #@! TF.GenerationSoftware,Kicad,Pcbnew,9.0.2
; #@! TF.FileFunction,Plated,1,2,PTH
FMAT,2
METRIC
; #@! TA.AperFunction,Plated,PTH,ComponentDrill
T1C0.200
; #@! TA.AperFunction,Plated,PTH,ViaDrill
T2C0.300
; #@! TA.AperFunction,Plated,PTH,ComponentDrill
T3C1.000
; #@! TA.AperFunction,Plated,PTH,ComponentDrill
T4C3.200
%
G90
G05
T1
X121.085Y-74.517
X121.085Y-76.042
X121.847Y-73.755
X121.847Y-75.28
X121.847Y-76.805
X122.61Y-74.517
X122.61Y-76.042
X123.372Y-73.755
X123.372Y-75.28
X123.372Y-76.805
X124.135Y-74.517
X124.135Y-76.042
T2
X102.55Y-84.1
X104.8Y-83.1
X106.025Y-69.525
X109.6Y-83.25
X111.05Y-91.15
X111.7Y-89.6
X111.8Y-87.7
X116.35Y-89.1
X116.55Y-68.95
X116.7Y-79.4
X116.75Y-74.3
X117.3Y-70.45
X121.7Y-88.2
X121.9Y-111.3
X122.2Y-80.9
X122.2Y-96.45
X122.95Y-88.2
X123.65Y-108.45
X125.6Y-99.4
X125.65Y-102.35
X127.125Y-115.65
X127.9Y-94.6
X128.55Y-113.85
X128.75Y-71.65
X128.75Y-107.5
X131.0Y-87.45
X131.45Y-95.85
X131.5Y-97.85
X131.85Y-107.5
X131.9Y-112.85
X132.85Y-86.2
X133.6Y-76.75
X133.75Y-101.6
X133.9Y-71.5
X134.6Y-79.55
X134.8Y-67.45
X134.95Y-71.5
X136.25Y-74.8
X136.7Y-67.5
X138.15Y-107.25
X138.3Y-69.4
X141.6Y-114.1
X142.9Y-84.3
X143.1Y-73.8
X145.9Y-84.35
X148.15Y-77.95
X148.25Y-78.9
X151.6Y-77.0
X151.95Y-74.45
X151.95Y-113.4
T3
X102.05Y-97.09
X102.05Y-99.86
X102.05Y-102.63
X102.05Y-105.4
X104.89Y-95.705
X104.89Y-98.475
X104.89Y-101.245
X104.89Y-104.015
X104.89Y-106.785
X154.45Y-69.38
X154.45Y-71.92
X154.45Y-74.46
X154.45Y-77.0
X154.45Y-79.54
X154.45Y-82.08
X154.45Y-85.97
X154.45Y-88.51
X154.45Y-92.52
X154.45Y-95.06
X154.5Y-98.87
X154.5Y-101.41
T4
X103.47Y-88.745
X103.47Y-113.745
M30
