%TF.GenerationSoftware,KiCad,Pcbnew,9.0.2*%
%TF.CreationDate,2025-08-22T10:47:20-03:00*%
%TF.ProjectId,Projeto SIllion,50726f6a-6574-46f2-9053-496c6c696f6e,rev?*%
%TF.SameCoordinates,Original*%
%TF.FileFunction,Copper,L2,Bot*%
%TF.FilePolarity,Positive*%
%FSLAX46Y46*%
G04 Gerber Fmt 4.6, Leading zero omitted, Abs format (unit mm)*
G04 Created by KiCad (PCBNEW 9.0.2) date 2025-08-22 10:47:20*
%MOMM*%
%LPD*%
G01*
G04 APERTURE LIST*
%TA.AperFunction,ComponentPad*%
%ADD10R,1.700000X1.700000*%
%TD*%
%TA.AperFunction,ComponentPad*%
%ADD11C,1.700000*%
%TD*%
%TA.AperFunction,HeatsinkPad*%
%ADD12C,0.600000*%
%TD*%
%TA.AperFunction,ComponentPad*%
%ADD13C,4.000000*%
%TD*%
%TA.AperFunction,ComponentPad*%
%ADD14R,1.600000X1.600000*%
%TD*%
%TA.AperFunction,ComponentPad*%
%ADD15C,1.600000*%
%TD*%
%TA.AperFunction,ViaPad*%
%ADD16C,0.600000*%
%TD*%
%TA.AperFunction,Conductor*%
%ADD17C,0.200000*%
%TD*%
%TA.AperFunction,Conductor*%
%ADD18C,0.300000*%
%TD*%
G04 APERTURE END LIST*
D10*
%TO.P,J6,1,Pin_1*%
%TO.N,+3.3V*%
X154450000Y-69380000D03*
D11*
%TO.P,J6,2,Pin_2*%
%TO.N,GND*%
X154450000Y-71920000D03*
%TO.P,J6,3,Pin_3*%
%TO.N,EN*%
X154450000Y-74460000D03*
%TO.P,J6,4,Pin_4*%
%TO.N,IO0*%
X154450000Y-77000000D03*
%TO.P,J6,5,Pin_5*%
%TO.N,UART_TX*%
X154450000Y-79540000D03*
%TO.P,J6,6,Pin_6*%
%TO.N,UART_RX*%
X154450000Y-82080000D03*
%TD*%
D12*
%TO.P,U8,39,GND*%
%TO.N,GND*%
X121085000Y-74517500D03*
X121085000Y-76042500D03*
X121847500Y-73755000D03*
X121847500Y-75280000D03*
X121847500Y-76805000D03*
X122610000Y-74517500D03*
X122610000Y-76042500D03*
X123372500Y-73755000D03*
X123372500Y-75280000D03*
X123372500Y-76805000D03*
X124135000Y-74517500D03*
X124135000Y-76042500D03*
%TD*%
D13*
%TO.P,J4,0*%
%TO.N,N/C*%
X103470000Y-88745000D03*
X103470000Y-113745000D03*
D14*
%TO.P,J4,1,1*%
%TO.N,unconnected-(J4-Pad1)*%
X104890000Y-95705000D03*
D15*
%TO.P,J4,2,2*%
%TO.N,DB9_TX*%
X104890000Y-98475000D03*
%TO.P,J4,3,3*%
%TO.N,DB9_RX*%
X104890000Y-101245000D03*
%TO.P,J4,4,4*%
%TO.N,unconnected-(J4-Pad4)*%
X104890000Y-104015000D03*
%TO.P,J4,5,5*%
%TO.N,GND*%
X104890000Y-106785000D03*
%TO.P,J4,6,6*%
%TO.N,unconnected-(J4-Pad6)*%
X102050000Y-97090000D03*
%TO.P,J4,7,7*%
%TO.N,unconnected-(J4-Pad7)*%
X102050000Y-99860000D03*
%TO.P,J4,8,8*%
%TO.N,unconnected-(J4-Pad8)*%
X102050000Y-102630000D03*
%TO.P,J4,9,9*%
%TO.N,unconnected-(J4-Pad9)*%
X102050000Y-105400000D03*
%TD*%
D10*
%TO.P,J1,1,Pin_1*%
%TO.N,Net-(D1-A2)*%
X154450000Y-92520000D03*
D11*
%TO.P,J1,2,Pin_2*%
%TO.N,GND*%
X154450000Y-95060000D03*
%TD*%
D10*
%TO.P,J5,1,Pin_1*%
%TO.N,Net-(D10-A)*%
X154450000Y-85970000D03*
D11*
%TO.P,J5,2,Pin_2*%
%TO.N,5V_MOTOR*%
X154450000Y-88510000D03*
%TD*%
D10*
%TO.P,J3,1,Pin_1*%
%TO.N,IN12V_RAW*%
X154500000Y-98870000D03*
D11*
%TO.P,J3,2,Pin_2*%
%TO.N,GND*%
X154500000Y-101410000D03*
%TD*%
D16*
%TO.N,GND*%
X145900000Y-84350000D03*
X131850000Y-107500000D03*
X125600000Y-99400000D03*
X131450000Y-95850000D03*
X116350000Y-89100000D03*
X111050000Y-91150000D03*
X133750000Y-101600000D03*
X131500000Y-97850000D03*
X133900000Y-71500000D03*
X131900000Y-112850000D03*
X132850000Y-86200000D03*
X128750000Y-107500000D03*
X125650000Y-102350000D03*
X142900000Y-84300000D03*
X102550000Y-84100000D03*
X104800000Y-83100000D03*
X131000000Y-87450000D03*
%TO.N,Net-(D7-A)*%
X123650000Y-108450000D03*
X121900000Y-111300000D03*
%TO.N,EN*%
X117300000Y-70450000D03*
X151950000Y-74450000D03*
%TO.N,UART_TX*%
X136250000Y-74800000D03*
X128750000Y-71650000D03*
X109600000Y-83250000D03*
X148150000Y-77950000D03*
%TO.N,IO0*%
X143100000Y-73800000D03*
X151600000Y-77000000D03*
%TO.N,MOTOR_CTRL*%
X122200000Y-80900000D03*
X116700000Y-79400000D03*
%TO.N,UART_RX*%
X133600000Y-76750000D03*
X148250000Y-78900000D03*
%TO.N,IN12V_LVL*%
X138150000Y-107250000D03*
X116750000Y-74300000D03*
%TO.N,+3.3V*%
X116550000Y-68950000D03*
X134800000Y-67450000D03*
X127900000Y-94600000D03*
X141600000Y-114100000D03*
X128550000Y-113850000D03*
X106025000Y-69525000D03*
X134950000Y-71500000D03*
X134600000Y-79550000D03*
X138300000Y-69400000D03*
X127125000Y-115650000D03*
X136700000Y-67500000D03*
X151950000Y-113400000D03*
%TO.N,Net-(U6-C2+)*%
X111700000Y-89600000D03*
X122950000Y-88200000D03*
X121700000Y-88200000D03*
X111800000Y-87700000D03*
%TO.N,DB9_RX*%
X122200000Y-96450000D03*
%TD*%
D17*
%TO.N,GND*%
X132650000Y-108300000D02*
X131850000Y-107500000D01*
X131900000Y-112850000D02*
X132650000Y-112100000D01*
X142900000Y-84300000D02*
X145850000Y-84300000D01*
X103800000Y-84100000D02*
X104800000Y-83100000D01*
X102550000Y-84100000D02*
X103800000Y-84100000D01*
X125650000Y-99450000D02*
X125600000Y-99400000D01*
X131450000Y-95850000D02*
X131450000Y-97800000D01*
X145850000Y-84300000D02*
X145900000Y-84350000D01*
X111050000Y-91150000D02*
X113100000Y-89100000D01*
X132250000Y-86200000D02*
X132850000Y-86200000D01*
X131000000Y-87450000D02*
X132250000Y-86200000D01*
X113100000Y-89100000D02*
X116350000Y-89100000D01*
X125650000Y-102350000D02*
X125650000Y-99450000D01*
X128750000Y-107500000D02*
X131850000Y-107500000D01*
X132650000Y-112100000D02*
X132650000Y-108300000D01*
X131450000Y-97800000D02*
X131500000Y-97850000D01*
%TO.N,Net-(D7-A)*%
X121900000Y-110200000D02*
X121900000Y-111300000D01*
X123650000Y-108450000D02*
X121900000Y-110200000D01*
D18*
%TO.N,EN*%
X151950000Y-74450000D02*
X147950000Y-70450000D01*
X147950000Y-70450000D02*
X117300000Y-70450000D01*
D17*
%TO.N,UART_TX*%
X136300000Y-74800000D02*
X136250000Y-74800000D01*
D18*
X117050000Y-71650000D02*
X128750000Y-71650000D01*
X109600000Y-79100000D02*
X117050000Y-71650000D01*
D17*
X148150000Y-77950000D02*
X139450000Y-77950000D01*
X138275000Y-76775000D02*
X138225000Y-76725000D01*
D18*
X109600000Y-83250000D02*
X109600000Y-79100000D01*
D17*
X139450000Y-77950000D02*
X138275000Y-76775000D01*
X138275000Y-76775000D02*
X136300000Y-74800000D01*
%TO.N,IO0*%
X146300000Y-77000000D02*
X143100000Y-73800000D01*
X151600000Y-77000000D02*
X146300000Y-77000000D01*
D18*
%TO.N,MOTOR_CTRL*%
X122200000Y-80900000D02*
X120700000Y-79400000D01*
X120700000Y-79400000D02*
X116700000Y-79400000D01*
D17*
%TO.N,UART_RX*%
X148250000Y-78900000D02*
X135750000Y-78900000D01*
X135750000Y-78900000D02*
X133600000Y-76750000D01*
D18*
%TO.N,IN12V_LVL*%
X138150000Y-107250000D02*
X138150000Y-95700000D01*
X138150000Y-95700000D02*
X116750000Y-74300000D01*
D17*
%TO.N,Net-(U6-C2+)*%
X113100000Y-88200000D02*
X111700000Y-89600000D01*
X121700000Y-88200000D02*
X115050000Y-88200000D01*
X115050000Y-88200000D02*
X112300000Y-88200000D01*
X112300000Y-88200000D02*
X111800000Y-87700000D01*
X122950000Y-88200000D02*
X121700000Y-88200000D01*
X115050000Y-88200000D02*
X113100000Y-88200000D01*
%TO.N,DB9_RX*%
X104890000Y-101245000D02*
X117405000Y-101245000D01*
X117405000Y-101245000D02*
X122200000Y-96450000D01*
%TD*%
%TA.AperFunction,Conductor*%
%TO.N,+3.3V*%
G36*
X99266177Y-66370185D02*
G01*
X99286819Y-66386819D01*
X99290000Y-66390000D01*
X147290000Y-66390000D01*
X147293181Y-66386819D01*
X147354504Y-66353334D01*
X147380862Y-66350500D01*
X156525500Y-66350500D01*
X156592539Y-66370185D01*
X156638294Y-66422989D01*
X156649500Y-66474500D01*
X156649500Y-117925500D01*
X156629815Y-117992539D01*
X156577011Y-118038294D01*
X156525500Y-118049500D01*
X94024500Y-118049500D01*
X93957461Y-118029815D01*
X93911706Y-117977011D01*
X93900500Y-117925500D01*
X93900500Y-113604568D01*
X100969500Y-113604568D01*
X100969500Y-113885431D01*
X101000942Y-114164494D01*
X101000945Y-114164512D01*
X101063439Y-114438317D01*
X101063443Y-114438329D01*
X101156200Y-114703411D01*
X101278053Y-114956442D01*
X101278055Y-114956445D01*
X101427477Y-115194248D01*
X101602584Y-115413825D01*
X101801175Y-115612416D01*
X102020752Y-115787523D01*
X102258555Y-115936945D01*
X102511592Y-116058801D01*
X102710680Y-116128465D01*
X102776670Y-116151556D01*
X102776682Y-116151560D01*
X103050491Y-116214055D01*
X103050497Y-116214055D01*
X103050505Y-116214057D01*
X103236547Y-116235018D01*
X103329569Y-116245499D01*
X103329572Y-116245500D01*
X103329575Y-116245500D01*
X103610428Y-116245500D01*
X103610429Y-116245499D01*
X103753055Y-116229429D01*
X103889494Y-116214057D01*
X103889499Y-116214056D01*
X103889509Y-116214055D01*
X104163318Y-116151560D01*
X104428408Y-116058801D01*
X104681445Y-115936945D01*
X104919248Y-115787523D01*
X105138825Y-115612416D01*
X105337416Y-115413825D01*
X105512523Y-115194248D01*
X105661945Y-114956445D01*
X105783801Y-114703408D01*
X105876560Y-114438318D01*
X105939055Y-114164509D01*
X105970500Y-113885425D01*
X105970500Y-113604575D01*
X105939055Y-113325491D01*
X105876560Y-113051682D01*
X105783801Y-112786592D01*
X105661945Y-112533555D01*
X105512523Y-112295752D01*
X105337416Y-112076175D01*
X105138825Y-111877584D01*
X105125480Y-111866942D01*
X105078333Y-111829343D01*
X104919248Y-111702477D01*
X104681445Y-111553055D01*
X104681442Y-111553053D01*
X104428411Y-111431200D01*
X104163329Y-111338443D01*
X104163317Y-111338439D01*
X104152440Y-111335957D01*
X103889512Y-111275945D01*
X103889494Y-111275942D01*
X103610431Y-111244500D01*
X103610425Y-111244500D01*
X103329575Y-111244500D01*
X103329568Y-111244500D01*
X103050505Y-111275942D01*
X103050487Y-111275945D01*
X102776682Y-111338439D01*
X102776670Y-111338443D01*
X102511588Y-111431200D01*
X102258557Y-111553053D01*
X102020753Y-111702476D01*
X101801175Y-111877583D01*
X101602583Y-112076175D01*
X101427476Y-112295753D01*
X101278053Y-112533557D01*
X101156200Y-112786588D01*
X101063443Y-113051670D01*
X101063439Y-113051682D01*
X101000945Y-113325487D01*
X101000942Y-113325505D01*
X100969500Y-113604568D01*
X93900500Y-113604568D01*
X93900500Y-111221153D01*
X121099500Y-111221153D01*
X121099500Y-111378846D01*
X121130261Y-111533489D01*
X121130264Y-111533501D01*
X121190602Y-111679172D01*
X121190609Y-111679185D01*
X121278210Y-111810288D01*
X121278213Y-111810292D01*
X121389707Y-111921786D01*
X121389711Y-111921789D01*
X121520814Y-112009390D01*
X121520827Y-112009397D01*
X121617646Y-112049500D01*
X121666503Y-112069737D01*
X121821153Y-112100499D01*
X121821156Y-112100500D01*
X121821158Y-112100500D01*
X121978844Y-112100500D01*
X121978845Y-112100499D01*
X122133497Y-112069737D01*
X122279179Y-112009394D01*
X122410289Y-111921789D01*
X122521789Y-111810289D01*
X122609394Y-111679179D01*
X122669737Y-111533497D01*
X122700500Y-111378842D01*
X122700500Y-111221158D01*
X122700500Y-111221155D01*
X122700499Y-111221153D01*
X122669738Y-111066510D01*
X122669737Y-111066503D01*
X122669735Y-111066498D01*
X122609397Y-110920827D01*
X122609390Y-110920814D01*
X122521398Y-110789125D01*
X122515747Y-110771078D01*
X122505523Y-110755169D01*
X122501071Y-110724207D01*
X122500520Y-110722447D01*
X122500500Y-110720234D01*
X122500500Y-110500097D01*
X122520185Y-110433058D01*
X122536819Y-110412416D01*
X123031141Y-109918094D01*
X123664664Y-109284571D01*
X123725985Y-109251088D01*
X123728152Y-109250637D01*
X123728841Y-109250500D01*
X123728842Y-109250500D01*
X123883497Y-109219737D01*
X124029179Y-109159394D01*
X124160289Y-109071789D01*
X124271789Y-108960289D01*
X124359394Y-108829179D01*
X124419737Y-108683497D01*
X124450500Y-108528842D01*
X124450500Y-108371158D01*
X124450500Y-108371155D01*
X124450499Y-108371153D01*
X124442914Y-108333023D01*
X124419737Y-108216503D01*
X124416791Y-108209390D01*
X124359397Y-108070827D01*
X124359390Y-108070814D01*
X124271789Y-107939711D01*
X124271786Y-107939707D01*
X124160292Y-107828213D01*
X124160288Y-107828210D01*
X124029185Y-107740609D01*
X124029172Y-107740602D01*
X123883501Y-107680264D01*
X123883489Y-107680261D01*
X123728845Y-107649500D01*
X123728842Y-107649500D01*
X123571158Y-107649500D01*
X123571155Y-107649500D01*
X123416510Y-107680261D01*
X123416498Y-107680264D01*
X123270827Y-107740602D01*
X123270814Y-107740609D01*
X123139711Y-107828210D01*
X123139707Y-107828213D01*
X123028213Y-107939707D01*
X123028210Y-107939711D01*
X122940609Y-108070814D01*
X122940602Y-108070827D01*
X122880264Y-108216498D01*
X122880261Y-108216508D01*
X122849362Y-108371848D01*
X122816977Y-108433759D01*
X122815426Y-108435337D01*
X121531286Y-109719478D01*
X121419481Y-109831282D01*
X121419479Y-109831285D01*
X121369361Y-109918094D01*
X121369359Y-109918096D01*
X121340425Y-109968209D01*
X121340424Y-109968210D01*
X121340423Y-109968215D01*
X121299499Y-110120943D01*
X121299499Y-110120945D01*
X121299499Y-110289046D01*
X121299500Y-110289059D01*
X121299500Y-110720234D01*
X121279815Y-110787273D01*
X121278602Y-110789125D01*
X121190609Y-110920814D01*
X121190602Y-110920827D01*
X121130264Y-111066498D01*
X121130261Y-111066510D01*
X121099500Y-111221153D01*
X93900500Y-111221153D01*
X93900500Y-96987648D01*
X100749500Y-96987648D01*
X100749500Y-97192351D01*
X100781522Y-97394534D01*
X100844781Y-97589223D01*
X100908691Y-97714653D01*
X100937481Y-97771155D01*
X100937715Y-97771613D01*
X101058028Y-97937213D01*
X101202786Y-98081971D01*
X101357749Y-98194556D01*
X101368390Y-98202287D01*
X101484607Y-98261503D01*
X101550776Y-98295218D01*
X101550778Y-98295218D01*
X101550781Y-98295220D01*
X101629956Y-98320945D01*
X101741131Y-98357069D01*
X101798806Y-98396507D01*
X101826004Y-98460866D01*
X101814089Y-98529712D01*
X101766845Y-98581188D01*
X101741131Y-98592931D01*
X101550776Y-98654781D01*
X101368386Y-98747715D01*
X101202786Y-98868028D01*
X101058028Y-99012786D01*
X100937715Y-99178386D01*
X100844781Y-99360776D01*
X100781522Y-99555465D01*
X100749500Y-99757648D01*
X100749500Y-99962351D01*
X100781522Y-100164534D01*
X100844781Y-100359223D01*
X100874054Y-100416673D01*
X100931903Y-100530208D01*
X100937715Y-100541613D01*
X101058028Y-100707213D01*
X101202786Y-100851971D01*
X101357749Y-100964556D01*
X101368390Y-100972287D01*
X101484607Y-101031503D01*
X101550776Y-101065218D01*
X101550778Y-101065218D01*
X101550781Y-101065220D01*
X101626144Y-101089707D01*
X101741131Y-101127069D01*
X101798806Y-101166507D01*
X101826004Y-101230866D01*
X101814089Y-101299712D01*
X101766845Y-101351188D01*
X101741131Y-101362931D01*
X101550776Y-101424781D01*
X101368386Y-101517715D01*
X101202786Y-101638028D01*
X101058028Y-101782786D01*
X100937715Y-101948386D01*
X100844781Y-102130776D01*
X100781522Y-102325465D01*
X100749500Y-102527648D01*
X100749500Y-102732351D01*
X100781522Y-102934534D01*
X100844781Y-103129223D01*
X100937715Y-103311613D01*
X101058028Y-103477213D01*
X101202786Y-103621971D01*
X101357749Y-103734556D01*
X101368390Y-103742287D01*
X101484607Y-103801503D01*
X101550776Y-103835218D01*
X101550778Y-103835218D01*
X101550781Y-103835220D01*
X101629956Y-103860945D01*
X101741131Y-103897069D01*
X101798806Y-103936507D01*
X101826004Y-104000866D01*
X101814089Y-104069712D01*
X101766845Y-104121188D01*
X101741131Y-104132931D01*
X101550776Y-104194781D01*
X101368386Y-104287715D01*
X101202786Y-104408028D01*
X101058028Y-104552786D01*
X100937715Y-104718386D01*
X100844781Y-104900776D01*
X100781522Y-105095465D01*
X100749500Y-105297648D01*
X100749500Y-105502351D01*
X100781522Y-105704534D01*
X100844781Y-105899223D01*
X100937715Y-106081613D01*
X101058028Y-106247213D01*
X101202786Y-106391971D01*
X101357749Y-106504556D01*
X101368390Y-106512287D01*
X101484607Y-106571503D01*
X101550776Y-106605218D01*
X101550778Y-106605218D01*
X101550781Y-106605220D01*
X101655137Y-106639127D01*
X101745465Y-106668477D01*
X101834937Y-106682648D01*
X101947648Y-106700500D01*
X101947649Y-106700500D01*
X102152351Y-106700500D01*
X102152352Y-106700500D01*
X102354534Y-106668477D01*
X102549219Y-106605220D01*
X102731610Y-106512287D01*
X102824590Y-106444732D01*
X102897213Y-106391971D01*
X102897215Y-106391968D01*
X102897219Y-106391966D01*
X103041966Y-106247219D01*
X103041968Y-106247215D01*
X103041971Y-106247213D01*
X103094732Y-106174590D01*
X103162287Y-106081610D01*
X103255220Y-105899219D01*
X103318477Y-105704534D01*
X103350500Y-105502352D01*
X103350500Y-105297648D01*
X103349892Y-105293812D01*
X103318477Y-105095465D01*
X103255218Y-104900776D01*
X103221503Y-104834607D01*
X103162287Y-104718390D01*
X103146463Y-104696610D01*
X103041971Y-104552786D01*
X102897213Y-104408028D01*
X102731613Y-104287715D01*
X102731612Y-104287714D01*
X102731610Y-104287713D01*
X102674653Y-104258691D01*
X102549223Y-104194781D01*
X102358868Y-104132931D01*
X102301193Y-104093493D01*
X102273995Y-104029134D01*
X102285910Y-103960288D01*
X102333154Y-103908812D01*
X102358868Y-103897069D01*
X102401508Y-103883213D01*
X102549219Y-103835220D01*
X102731610Y-103742287D01*
X102824590Y-103674732D01*
X102897213Y-103621971D01*
X102897215Y-103621968D01*
X102897219Y-103621966D01*
X103041966Y-103477219D01*
X103041968Y-103477215D01*
X103041971Y-103477213D01*
X103094732Y-103404590D01*
X103162287Y-103311610D01*
X103255220Y-103129219D01*
X103318477Y-102934534D01*
X103350500Y-102732352D01*
X103350500Y-102527648D01*
X103349892Y-102523812D01*
X103318477Y-102325465D01*
X103255218Y-102130776D01*
X103221503Y-102064607D01*
X103162287Y-101948390D01*
X103099819Y-101862409D01*
X103041971Y-101782786D01*
X102897213Y-101638028D01*
X102731613Y-101517715D01*
X102731612Y-101517714D01*
X102731610Y-101517713D01*
X102674653Y-101488691D01*
X102549223Y-101424781D01*
X102358868Y-101362931D01*
X102301193Y-101323493D01*
X102273995Y-101259134D01*
X102285910Y-101190288D01*
X102333154Y-101138812D01*
X102358868Y-101127069D01*
X102401508Y-101113213D01*
X102549219Y-101065220D01*
X102731610Y-100972287D01*
X102844041Y-100890602D01*
X102897213Y-100851971D01*
X102897215Y-100851968D01*
X102897219Y-100851966D01*
X103041966Y-100707219D01*
X103041968Y-100707215D01*
X103041971Y-100707213D01*
X103094732Y-100634590D01*
X103162287Y-100541610D01*
X103255220Y-100359219D01*
X103318477Y-100164534D01*
X103350500Y-99962352D01*
X103350500Y-99757648D01*
X103349892Y-99753812D01*
X103318477Y-99555465D01*
X103255218Y-99360776D01*
X103187251Y-99227385D01*
X103162287Y-99178390D01*
X103146463Y-99156610D01*
X103041971Y-99012786D01*
X102897213Y-98868028D01*
X102731613Y-98747715D01*
X102731612Y-98747714D01*
X102731610Y-98747713D01*
X102674653Y-98718691D01*
X102549223Y-98654781D01*
X102358868Y-98592931D01*
X102301193Y-98553493D01*
X102273995Y-98489134D01*
X102285910Y-98420288D01*
X102333154Y-98368812D01*
X102358868Y-98357069D01*
X102401508Y-98343213D01*
X102549219Y-98295220D01*
X102731610Y-98202287D01*
X102824590Y-98134732D01*
X102897213Y-98081971D01*
X102897215Y-98081968D01*
X102897219Y-98081966D01*
X103041966Y-97937219D01*
X103041968Y-97937215D01*
X103041971Y-97937213D01*
X103094732Y-97864590D01*
X103162287Y-97771610D01*
X103255220Y-97589219D01*
X103318477Y-97394534D01*
X103350500Y-97192352D01*
X103350500Y-96987648D01*
X103330686Y-96862547D01*
X103318477Y-96785465D01*
X103255218Y-96590776D01*
X103221503Y-96524607D01*
X103162287Y-96408390D01*
X103139660Y-96377246D01*
X103041971Y-96242786D01*
X102897213Y-96098028D01*
X102731613Y-95977715D01*
X102731612Y-95977714D01*
X102731610Y-95977713D01*
X102657019Y-95939707D01*
X102549223Y-95884781D01*
X102354534Y-95821522D01*
X102179995Y-95793878D01*
X102152352Y-95789500D01*
X101947648Y-95789500D01*
X101923329Y-95793351D01*
X101745465Y-95821522D01*
X101550776Y-95884781D01*
X101368386Y-95977715D01*
X101202786Y-96098028D01*
X101058028Y-96242786D01*
X100937715Y-96408386D01*
X100844781Y-96590776D01*
X100781522Y-96785465D01*
X100749500Y-96987648D01*
X93900500Y-96987648D01*
X93900500Y-94857135D01*
X103589500Y-94857135D01*
X103589500Y-96552870D01*
X103589501Y-96552876D01*
X103595908Y-96612483D01*
X103646202Y-96747328D01*
X103646206Y-96747335D01*
X103732452Y-96862544D01*
X103732455Y-96862547D01*
X103847664Y-96948793D01*
X103847671Y-96948797D01*
X103982517Y-96999091D01*
X103982516Y-96999091D01*
X103989444Y-96999835D01*
X104042127Y-97005500D01*
X104421248Y-97005499D01*
X104488285Y-97025183D01*
X104534040Y-97077987D01*
X104543984Y-97147146D01*
X104514959Y-97210701D01*
X104459566Y-97247429D01*
X104390780Y-97269779D01*
X104208386Y-97362715D01*
X104042786Y-97483028D01*
X103898028Y-97627786D01*
X103777715Y-97793386D01*
X103684781Y-97975776D01*
X103621522Y-98170465D01*
X103589500Y-98372648D01*
X103589500Y-98577351D01*
X103621522Y-98779534D01*
X103684781Y-98974223D01*
X103777715Y-99156613D01*
X103898028Y-99322213D01*
X104042786Y-99466971D01*
X104197749Y-99579556D01*
X104208390Y-99587287D01*
X104299090Y-99633501D01*
X104390776Y-99680218D01*
X104390778Y-99680218D01*
X104390781Y-99680220D01*
X104469956Y-99705945D01*
X104581131Y-99742069D01*
X104638806Y-99781507D01*
X104666004Y-99845866D01*
X104654089Y-99914712D01*
X104606845Y-99966188D01*
X104581131Y-99977931D01*
X104390776Y-100039781D01*
X104208386Y-100132715D01*
X104042786Y-100253028D01*
X103898028Y-100397786D01*
X103777715Y-100563386D01*
X103684781Y-100745776D01*
X103621522Y-100940465D01*
X103590108Y-101138812D01*
X103589500Y-101142648D01*
X103589500Y-101347352D01*
X103592533Y-101366503D01*
X103621522Y-101549534D01*
X103684781Y-101744223D01*
X103777715Y-101926613D01*
X103898028Y-102092213D01*
X104042786Y-102236971D01*
X104197749Y-102349556D01*
X104208390Y-102357287D01*
X104324607Y-102416503D01*
X104390776Y-102450218D01*
X104390778Y-102450218D01*
X104390781Y-102450220D01*
X104469956Y-102475945D01*
X104581131Y-102512069D01*
X104638806Y-102551507D01*
X104666004Y-102615866D01*
X104654089Y-102684712D01*
X104606845Y-102736188D01*
X104581131Y-102747931D01*
X104390776Y-102809781D01*
X104208386Y-102902715D01*
X104042786Y-103023028D01*
X103898028Y-103167786D01*
X103777715Y-103333386D01*
X103684781Y-103515776D01*
X103621522Y-103710465D01*
X103589500Y-103912648D01*
X103589500Y-104117351D01*
X103621522Y-104319534D01*
X103684781Y-104514223D01*
X103777715Y-104696613D01*
X103898028Y-104862213D01*
X104042786Y-105006971D01*
X104197749Y-105119556D01*
X104208390Y-105127287D01*
X104324607Y-105186503D01*
X104390776Y-105220218D01*
X104390778Y-105220218D01*
X104390781Y-105220220D01*
X104469956Y-105245945D01*
X104581131Y-105282069D01*
X104638806Y-105321507D01*
X104666004Y-105385866D01*
X104654089Y-105454712D01*
X104606845Y-105506188D01*
X104581131Y-105517931D01*
X104390776Y-105579781D01*
X104208386Y-105672715D01*
X104042786Y-105793028D01*
X103898028Y-105937786D01*
X103777715Y-106103386D01*
X103684781Y-106285776D01*
X103621522Y-106480465D01*
X103589500Y-106682648D01*
X103589500Y-106887351D01*
X103621522Y-107089534D01*
X103684781Y-107284223D01*
X103722766Y-107358771D01*
X103769894Y-107451265D01*
X103777715Y-107466613D01*
X103898028Y-107632213D01*
X104042786Y-107776971D01*
X104197749Y-107889556D01*
X104208390Y-107897287D01*
X104291644Y-107939707D01*
X104390776Y-107990218D01*
X104390778Y-107990218D01*
X104390781Y-107990220D01*
X104481619Y-108019735D01*
X104585465Y-108053477D01*
X104686557Y-108069488D01*
X104787648Y-108085500D01*
X104787649Y-108085500D01*
X104992351Y-108085500D01*
X104992352Y-108085500D01*
X105194534Y-108053477D01*
X105389219Y-107990220D01*
X105571610Y-107897287D01*
X105688628Y-107812269D01*
X105737213Y-107776971D01*
X105737215Y-107776968D01*
X105737219Y-107776966D01*
X105881966Y-107632219D01*
X105881968Y-107632215D01*
X105881971Y-107632213D01*
X105934732Y-107559590D01*
X106002287Y-107466610D01*
X106025449Y-107421153D01*
X127949500Y-107421153D01*
X127949500Y-107578846D01*
X127980261Y-107733489D01*
X127980264Y-107733501D01*
X128040602Y-107879172D01*
X128040609Y-107879185D01*
X128128210Y-108010288D01*
X128128213Y-108010292D01*
X128239707Y-108121786D01*
X128239711Y-108121789D01*
X128370814Y-108209390D01*
X128370827Y-108209397D01*
X128516498Y-108269735D01*
X128516503Y-108269737D01*
X128671153Y-108300499D01*
X128671156Y-108300500D01*
X128671158Y-108300500D01*
X128828844Y-108300500D01*
X128828845Y-108300499D01*
X128983497Y-108269737D01*
X129129179Y-108209394D01*
X129129185Y-108209390D01*
X129260875Y-108121398D01*
X129327553Y-108100520D01*
X129329766Y-108100500D01*
X131270234Y-108100500D01*
X131337273Y-108120185D01*
X131339125Y-108121398D01*
X131470814Y-108209390D01*
X131470827Y-108209397D01*
X131616498Y-108269735D01*
X131616503Y-108269737D01*
X131681147Y-108282595D01*
X131771849Y-108300638D01*
X131833760Y-108333023D01*
X131835339Y-108334574D01*
X132013181Y-108512416D01*
X132046666Y-108573739D01*
X132049500Y-108600097D01*
X132049500Y-111799903D01*
X132040855Y-111829343D01*
X132034332Y-111859330D01*
X132030577Y-111864345D01*
X132029815Y-111866942D01*
X132013185Y-111887579D01*
X131891375Y-112009390D01*
X131885339Y-112015426D01*
X131824016Y-112048910D01*
X131821850Y-112049361D01*
X131666508Y-112080261D01*
X131666498Y-112080264D01*
X131520827Y-112140602D01*
X131520814Y-112140609D01*
X131389711Y-112228210D01*
X131389707Y-112228213D01*
X131278213Y-112339707D01*
X131278210Y-112339711D01*
X131190609Y-112470814D01*
X131190602Y-112470827D01*
X131130264Y-112616498D01*
X131130261Y-112616510D01*
X131099500Y-112771153D01*
X131099500Y-112928846D01*
X131130261Y-113083489D01*
X131130264Y-113083501D01*
X131190602Y-113229172D01*
X131190609Y-113229185D01*
X131278210Y-113360288D01*
X131278213Y-113360292D01*
X131389707Y-113471786D01*
X131389711Y-113471789D01*
X131520814Y-113559390D01*
X131520827Y-113559397D01*
X131629891Y-113604572D01*
X131666503Y-113619737D01*
X131821153Y-113650499D01*
X131821156Y-113650500D01*
X131821158Y-113650500D01*
X131978844Y-113650500D01*
X131978845Y-113650499D01*
X132133497Y-113619737D01*
X132279179Y-113559394D01*
X132410289Y-113471789D01*
X132521789Y-113360289D01*
X132609394Y-113229179D01*
X132669737Y-113083497D01*
X132689113Y-112986085D01*
X132700638Y-112928150D01*
X132733023Y-112866239D01*
X132734524Y-112864710D01*
X133008506Y-112590727D01*
X133008511Y-112590724D01*
X133018714Y-112580520D01*
X133018716Y-112580520D01*
X133130520Y-112468716D01*
X133194977Y-112357072D01*
X133209577Y-112331785D01*
X133250500Y-112179057D01*
X133250500Y-112020943D01*
X133250500Y-108389059D01*
X133250501Y-108389046D01*
X133250501Y-108220945D01*
X133250501Y-108220943D01*
X133209577Y-108068215D01*
X133152572Y-107969480D01*
X133130520Y-107931284D01*
X133018716Y-107819480D01*
X133018713Y-107819478D01*
X132684574Y-107485339D01*
X132651089Y-107424016D01*
X132650638Y-107421849D01*
X132632137Y-107328842D01*
X132619737Y-107266503D01*
X132580242Y-107171153D01*
X132559397Y-107120827D01*
X132559390Y-107120814D01*
X132471789Y-106989711D01*
X132471786Y-106989707D01*
X132360292Y-106878213D01*
X132360288Y-106878210D01*
X132229185Y-106790609D01*
X132229172Y-106790602D01*
X132083501Y-106730264D01*
X132083489Y-106730261D01*
X131928845Y-106699500D01*
X131928842Y-106699500D01*
X131771158Y-106699500D01*
X131771155Y-106699500D01*
X131616510Y-106730261D01*
X131616498Y-106730264D01*
X131470827Y-106790602D01*
X131470814Y-106790609D01*
X131339125Y-106878602D01*
X131272447Y-106899480D01*
X131270234Y-106899500D01*
X129329766Y-106899500D01*
X129262727Y-106879815D01*
X129260875Y-106878602D01*
X129129185Y-106790609D01*
X129129172Y-106790602D01*
X128983501Y-106730264D01*
X128983489Y-106730261D01*
X128828845Y-106699500D01*
X128828842Y-106699500D01*
X128671158Y-106699500D01*
X128671155Y-106699500D01*
X128516510Y-106730261D01*
X128516498Y-106730264D01*
X128370827Y-106790602D01*
X128370814Y-106790609D01*
X128239711Y-106878210D01*
X128239707Y-106878213D01*
X128128213Y-106989707D01*
X128128210Y-106989711D01*
X128040609Y-107120814D01*
X128040602Y-107120827D01*
X127980264Y-107266498D01*
X127980261Y-107266510D01*
X127949500Y-107421153D01*
X106025449Y-107421153D01*
X106072482Y-107328846D01*
X106095218Y-107284223D01*
X106095218Y-107284222D01*
X106095220Y-107284219D01*
X106158477Y-107089534D01*
X106190500Y-106887352D01*
X106190500Y-106682648D01*
X106158477Y-106480465D01*
X106095218Y-106285776D01*
X106061503Y-106219607D01*
X106002287Y-106103390D01*
X105986463Y-106081610D01*
X105881971Y-105937786D01*
X105737213Y-105793028D01*
X105571613Y-105672715D01*
X105571612Y-105672714D01*
X105571610Y-105672713D01*
X105514653Y-105643691D01*
X105389223Y-105579781D01*
X105198868Y-105517931D01*
X105141193Y-105478493D01*
X105113995Y-105414134D01*
X105125910Y-105345288D01*
X105173154Y-105293812D01*
X105198868Y-105282069D01*
X105241508Y-105268213D01*
X105389219Y-105220220D01*
X105571610Y-105127287D01*
X105664590Y-105059732D01*
X105737213Y-105006971D01*
X105737215Y-105006968D01*
X105737219Y-105006966D01*
X105881966Y-104862219D01*
X105881968Y-104862215D01*
X105881971Y-104862213D01*
X105934732Y-104789590D01*
X106002287Y-104696610D01*
X106095220Y-104514219D01*
X106158477Y-104319534D01*
X106190500Y-104117352D01*
X106190500Y-103912648D01*
X106189892Y-103908812D01*
X106158477Y-103710465D01*
X106095218Y-103515776D01*
X106061503Y-103449607D01*
X106002287Y-103333390D01*
X105986463Y-103311610D01*
X105881971Y-103167786D01*
X105737213Y-103023028D01*
X105571613Y-102902715D01*
X105571612Y-102902714D01*
X105571610Y-102902713D01*
X105514653Y-102873691D01*
X105389223Y-102809781D01*
X105198868Y-102747931D01*
X105141193Y-102708493D01*
X105113995Y-102644134D01*
X105125910Y-102575288D01*
X105173154Y-102523812D01*
X105198868Y-102512069D01*
X105241508Y-102498213D01*
X105389219Y-102450220D01*
X105571610Y-102357287D01*
X105664590Y-102289732D01*
X105737213Y-102236971D01*
X105737215Y-102236968D01*
X105737219Y-102236966D01*
X105881966Y-102092219D01*
X105881968Y-102092215D01*
X105881971Y-102092213D01*
X106002284Y-101926614D01*
X106002285Y-101926613D01*
X106002287Y-101926610D01*
X106009117Y-101913204D01*
X106057091Y-101862409D01*
X106119602Y-101845500D01*
X117318331Y-101845500D01*
X117318347Y-101845501D01*
X117325943Y-101845501D01*
X117484054Y-101845501D01*
X117484057Y-101845501D01*
X117636785Y-101804577D01*
X117690551Y-101773535D01*
X117773716Y-101725520D01*
X117885520Y-101613716D01*
X117885520Y-101613714D01*
X117895724Y-101603511D01*
X117895727Y-101603506D01*
X120178081Y-99321153D01*
X124799500Y-99321153D01*
X124799500Y-99478846D01*
X124830261Y-99633489D01*
X124830264Y-99633501D01*
X124890602Y-99779172D01*
X124890609Y-99779185D01*
X124978210Y-99910288D01*
X124978213Y-99910292D01*
X125013180Y-99945258D01*
X125046666Y-100006580D01*
X125049500Y-100032940D01*
X125049500Y-101770234D01*
X125029815Y-101837273D01*
X125028602Y-101839125D01*
X124940609Y-101970814D01*
X124940602Y-101970827D01*
X124880264Y-102116498D01*
X124880261Y-102116510D01*
X124849500Y-102271153D01*
X124849500Y-102428846D01*
X124880261Y-102583489D01*
X124880264Y-102583501D01*
X124940602Y-102729172D01*
X124940609Y-102729185D01*
X125028210Y-102860288D01*
X125028213Y-102860292D01*
X125139707Y-102971786D01*
X125139711Y-102971789D01*
X125270814Y-103059390D01*
X125270827Y-103059397D01*
X125416498Y-103119735D01*
X125416503Y-103119737D01*
X125571153Y-103150499D01*
X125571156Y-103150500D01*
X125571158Y-103150500D01*
X125728844Y-103150500D01*
X125728845Y-103150499D01*
X125883497Y-103119737D01*
X126029179Y-103059394D01*
X126160289Y-102971789D01*
X126271789Y-102860289D01*
X126359394Y-102729179D01*
X126419737Y-102583497D01*
X126450500Y-102428842D01*
X126450500Y-102271158D01*
X126450500Y-102271155D01*
X126450499Y-102271153D01*
X126419738Y-102116510D01*
X126419737Y-102116503D01*
X126409676Y-102092213D01*
X126359397Y-101970827D01*
X126359390Y-101970814D01*
X126271398Y-101839125D01*
X126250520Y-101772447D01*
X126250500Y-101770234D01*
X126250500Y-101521153D01*
X132949500Y-101521153D01*
X132949500Y-101678846D01*
X132980261Y-101833489D01*
X132980264Y-101833501D01*
X133040602Y-101979172D01*
X133040609Y-101979185D01*
X133128210Y-102110288D01*
X133128213Y-102110292D01*
X133239707Y-102221786D01*
X133239711Y-102221789D01*
X133370814Y-102309390D01*
X133370827Y-102309397D01*
X133516498Y-102369735D01*
X133516503Y-102369737D01*
X133671153Y-102400499D01*
X133671156Y-102400500D01*
X133671158Y-102400500D01*
X133828844Y-102400500D01*
X133828845Y-102400499D01*
X133983497Y-102369737D01*
X134129179Y-102309394D01*
X134260289Y-102221789D01*
X134371789Y-102110289D01*
X134459394Y-101979179D01*
X134462854Y-101970827D01*
X134517163Y-101839711D01*
X134519737Y-101833497D01*
X134550500Y-101678842D01*
X134550500Y-101521158D01*
X134550500Y-101521155D01*
X134550499Y-101521153D01*
X134519738Y-101366510D01*
X134519737Y-101366503D01*
X134519735Y-101366498D01*
X134459397Y-101220827D01*
X134459390Y-101220814D01*
X134371789Y-101089711D01*
X134371786Y-101089707D01*
X134260292Y-100978213D01*
X134260288Y-100978210D01*
X134129185Y-100890609D01*
X134129172Y-100890602D01*
X133983501Y-100830264D01*
X133983489Y-100830261D01*
X133828845Y-100799500D01*
X133828842Y-100799500D01*
X133671158Y-100799500D01*
X133671155Y-100799500D01*
X133516510Y-100830261D01*
X133516498Y-100830264D01*
X133370827Y-100890602D01*
X133370814Y-100890609D01*
X133239711Y-100978210D01*
X133239707Y-100978213D01*
X133128213Y-101089707D01*
X133128210Y-101089711D01*
X133040609Y-101220814D01*
X133040602Y-101220827D01*
X132980264Y-101366498D01*
X132980261Y-101366510D01*
X132949500Y-101521153D01*
X126250500Y-101521153D01*
X126250500Y-99904935D01*
X126270185Y-99837896D01*
X126271366Y-99836090D01*
X126309394Y-99779179D01*
X126314078Y-99767872D01*
X126350384Y-99680220D01*
X126369737Y-99633497D01*
X126400500Y-99478842D01*
X126400500Y-99321158D01*
X126400500Y-99321155D01*
X126400499Y-99321153D01*
X126372101Y-99178390D01*
X126369737Y-99166503D01*
X126369735Y-99166498D01*
X126309397Y-99020827D01*
X126309390Y-99020814D01*
X126221789Y-98889711D01*
X126221786Y-98889707D01*
X126110292Y-98778213D01*
X126110288Y-98778210D01*
X125979185Y-98690609D01*
X125979172Y-98690602D01*
X125833501Y-98630264D01*
X125833489Y-98630261D01*
X125678845Y-98599500D01*
X125678842Y-98599500D01*
X125521158Y-98599500D01*
X125521155Y-98599500D01*
X125366510Y-98630261D01*
X125366498Y-98630264D01*
X125220827Y-98690602D01*
X125220814Y-98690609D01*
X125089711Y-98778210D01*
X125089707Y-98778213D01*
X124978213Y-98889707D01*
X124978210Y-98889711D01*
X124890609Y-99020814D01*
X124890602Y-99020827D01*
X124830264Y-99166498D01*
X124830261Y-99166510D01*
X124799500Y-99321153D01*
X120178081Y-99321153D01*
X122214662Y-97284572D01*
X122275983Y-97251089D01*
X122278150Y-97250638D01*
X122336085Y-97239113D01*
X122433497Y-97219737D01*
X122579179Y-97159394D01*
X122710289Y-97071789D01*
X122821789Y-96960289D01*
X122909394Y-96829179D01*
X122969737Y-96683497D01*
X123000500Y-96528842D01*
X123000500Y-96371158D01*
X123000500Y-96371155D01*
X123000499Y-96371153D01*
X122998338Y-96360289D01*
X122969737Y-96216503D01*
X122920666Y-96098034D01*
X122909397Y-96070827D01*
X122909390Y-96070814D01*
X122821789Y-95939711D01*
X122821786Y-95939707D01*
X122710292Y-95828213D01*
X122710288Y-95828210D01*
X122624897Y-95771153D01*
X130649500Y-95771153D01*
X130649500Y-95928846D01*
X130680261Y-96083489D01*
X130680264Y-96083501D01*
X130740602Y-96229172D01*
X130740609Y-96229185D01*
X130828602Y-96360874D01*
X130849480Y-96427551D01*
X130849500Y-96429765D01*
X130849500Y-97345064D01*
X130829815Y-97412103D01*
X130828603Y-97413954D01*
X130790608Y-97470817D01*
X130790602Y-97470828D01*
X130730264Y-97616498D01*
X130730261Y-97616510D01*
X130699500Y-97771153D01*
X130699500Y-97928846D01*
X130730261Y-98083489D01*
X130730264Y-98083501D01*
X130790602Y-98229172D01*
X130790609Y-98229185D01*
X130878210Y-98360288D01*
X130878213Y-98360292D01*
X130989707Y-98471786D01*
X130989711Y-98471789D01*
X131120814Y-98559390D01*
X131120827Y-98559397D01*
X131217646Y-98599500D01*
X131266503Y-98619737D01*
X131421153Y-98650499D01*
X131421156Y-98650500D01*
X131421158Y-98650500D01*
X131578844Y-98650500D01*
X131578845Y-98650499D01*
X131733497Y-98619737D01*
X131879179Y-98559394D01*
X132010289Y-98471789D01*
X132121789Y-98360289D01*
X132209394Y-98229179D01*
X132269737Y-98083497D01*
X132300500Y-97928842D01*
X132300500Y-97771158D01*
X132300500Y-97771155D01*
X132300499Y-97771153D01*
X132269738Y-97616510D01*
X132269737Y-97616503D01*
X132229558Y-97519501D01*
X132209397Y-97470827D01*
X132209390Y-97470814D01*
X132121789Y-97339711D01*
X132121786Y-97339707D01*
X132086819Y-97304740D01*
X132053334Y-97243417D01*
X132050500Y-97217059D01*
X132050500Y-96429765D01*
X132070185Y-96362726D01*
X132071398Y-96360874D01*
X132159390Y-96229185D01*
X132159390Y-96229184D01*
X132159394Y-96229179D01*
X132164643Y-96216508D01*
X132173067Y-96196166D01*
X132219737Y-96083497D01*
X132250500Y-95928842D01*
X132250500Y-95771158D01*
X132250500Y-95771155D01*
X132250499Y-95771153D01*
X132232419Y-95680261D01*
X132219737Y-95616503D01*
X132203959Y-95578412D01*
X132159397Y-95470827D01*
X132159390Y-95470814D01*
X132071789Y-95339711D01*
X132071786Y-95339707D01*
X131960292Y-95228213D01*
X131960288Y-95228210D01*
X131829185Y-95140609D01*
X131829172Y-95140602D01*
X131683501Y-95080264D01*
X131683489Y-95080261D01*
X131528845Y-95049500D01*
X131528842Y-95049500D01*
X131371158Y-95049500D01*
X131371155Y-95049500D01*
X131216510Y-95080261D01*
X131216498Y-95080264D01*
X131070827Y-95140602D01*
X131070814Y-95140609D01*
X130939711Y-95228210D01*
X130939707Y-95228213D01*
X130828213Y-95339707D01*
X130828210Y-95339711D01*
X130740609Y-95470814D01*
X130740602Y-95470827D01*
X130680264Y-95616498D01*
X130680261Y-95616510D01*
X130649500Y-95771153D01*
X122624897Y-95771153D01*
X122579185Y-95740609D01*
X122579172Y-95740602D01*
X122433501Y-95680264D01*
X122433489Y-95680261D01*
X122278845Y-95649500D01*
X122278842Y-95649500D01*
X122121158Y-95649500D01*
X122121155Y-95649500D01*
X121966510Y-95680261D01*
X121966498Y-95680264D01*
X121820827Y-95740602D01*
X121820814Y-95740609D01*
X121689711Y-95828210D01*
X121689707Y-95828213D01*
X121578213Y-95939707D01*
X121578210Y-95939711D01*
X121490609Y-96070814D01*
X121490602Y-96070827D01*
X121430264Y-96216498D01*
X121430261Y-96216508D01*
X121399361Y-96371850D01*
X121366976Y-96433761D01*
X121365425Y-96435339D01*
X117192584Y-100608181D01*
X117131261Y-100641666D01*
X117104903Y-100644500D01*
X106119602Y-100644500D01*
X106052563Y-100624815D01*
X106009117Y-100576795D01*
X106002284Y-100563385D01*
X105881971Y-100397786D01*
X105737213Y-100253028D01*
X105571613Y-100132715D01*
X105571612Y-100132714D01*
X105571610Y-100132713D01*
X105514653Y-100103691D01*
X105389223Y-100039781D01*
X105198868Y-99977931D01*
X105141193Y-99938493D01*
X105113995Y-99874134D01*
X105125910Y-99805288D01*
X105173154Y-99753812D01*
X105198868Y-99742069D01*
X105241508Y-99728213D01*
X105389219Y-99680220D01*
X105571610Y-99587287D01*
X105664590Y-99519732D01*
X105737213Y-99466971D01*
X105737215Y-99466968D01*
X105737219Y-99466966D01*
X105881966Y-99322219D01*
X105881968Y-99322215D01*
X105881971Y-99322213D01*
X105950866Y-99227385D01*
X106002287Y-99156610D01*
X106095220Y-98974219D01*
X106158477Y-98779534D01*
X106190500Y-98577352D01*
X106190500Y-98372648D01*
X106188543Y-98360292D01*
X106158477Y-98170465D01*
X106095218Y-97975776D01*
X106061503Y-97909607D01*
X106002287Y-97793390D01*
X105990865Y-97777669D01*
X105881971Y-97627786D01*
X105737213Y-97483028D01*
X105571613Y-97362715D01*
X105571612Y-97362714D01*
X105571610Y-97362713D01*
X105514653Y-97333691D01*
X105389223Y-97269781D01*
X105331694Y-97251089D01*
X105320431Y-97247429D01*
X105262757Y-97207992D01*
X105235559Y-97143633D01*
X105247474Y-97074787D01*
X105294718Y-97023311D01*
X105358750Y-97005499D01*
X105737872Y-97005499D01*
X105797483Y-96999091D01*
X105932331Y-96948796D01*
X106047546Y-96862546D01*
X106133796Y-96747331D01*
X106184091Y-96612483D01*
X106190500Y-96552873D01*
X106190499Y-94857128D01*
X106184091Y-94797517D01*
X106133796Y-94662669D01*
X106133795Y-94662668D01*
X106133793Y-94662664D01*
X106047547Y-94547455D01*
X106047544Y-94547452D01*
X105932335Y-94461206D01*
X105932328Y-94461202D01*
X105797482Y-94410908D01*
X105797483Y-94410908D01*
X105737883Y-94404501D01*
X105737881Y-94404500D01*
X105737873Y-94404500D01*
X105737864Y-94404500D01*
X104042129Y-94404500D01*
X104042123Y-94404501D01*
X103982516Y-94410908D01*
X103847671Y-94461202D01*
X103847664Y-94461206D01*
X103732455Y-94547452D01*
X103732452Y-94547455D01*
X103646206Y-94662664D01*
X103646202Y-94662671D01*
X103595908Y-94797517D01*
X103589501Y-94857116D01*
X103589501Y-94857123D01*
X103589500Y-94857135D01*
X93900500Y-94857135D01*
X93900500Y-88604568D01*
X100969500Y-88604568D01*
X100969500Y-88885431D01*
X101000942Y-89164494D01*
X101000945Y-89164512D01*
X101063439Y-89438317D01*
X101063443Y-89438329D01*
X101156200Y-89703411D01*
X101278053Y-89956442D01*
X101324275Y-90030004D01*
X101427477Y-90194248D01*
X101558113Y-90358060D01*
X101575817Y-90380261D01*
X101602584Y-90413825D01*
X101801175Y-90612416D01*
X102020752Y-90787523D01*
X102258555Y-90936945D01*
X102511592Y-91058801D01*
X102710680Y-91128465D01*
X102776670Y-91151556D01*
X102776682Y-91151560D01*
X103050491Y-91214055D01*
X103050497Y-91214055D01*
X103050505Y-91214057D01*
X103236547Y-91235018D01*
X103329569Y-91245499D01*
X103329572Y-91245500D01*
X103329575Y-91245500D01*
X103610428Y-91245500D01*
X103610429Y-91245499D01*
X103764412Y-91228150D01*
X103889494Y-91214057D01*
X103889499Y-91214056D01*
X103889509Y-91214055D01*
X104163318Y-91151560D01*
X104393108Y-91071153D01*
X110249500Y-91071153D01*
X110249500Y-91228846D01*
X110280261Y-91383489D01*
X110280264Y-91383501D01*
X110340602Y-91529172D01*
X110340609Y-91529185D01*
X110428210Y-91660288D01*
X110428213Y-91660292D01*
X110539707Y-91771786D01*
X110539711Y-91771789D01*
X110670814Y-91859390D01*
X110670827Y-91859397D01*
X110816498Y-91919735D01*
X110816503Y-91919737D01*
X110971153Y-91950499D01*
X110971156Y-91950500D01*
X110971158Y-91950500D01*
X111128844Y-91950500D01*
X111128845Y-91950499D01*
X111283497Y-91919737D01*
X111429179Y-91859394D01*
X111560289Y-91771789D01*
X111671789Y-91660289D01*
X111759394Y-91529179D01*
X111819737Y-91383497D01*
X111839113Y-91286085D01*
X111850638Y-91228150D01*
X111883023Y-91166239D01*
X111884517Y-91164717D01*
X113312417Y-89736819D01*
X113373740Y-89703334D01*
X113400098Y-89700500D01*
X115770234Y-89700500D01*
X115837273Y-89720185D01*
X115839125Y-89721398D01*
X115970814Y-89809390D01*
X115970827Y-89809397D01*
X116116498Y-89869735D01*
X116116503Y-89869737D01*
X116271153Y-89900499D01*
X116271156Y-89900500D01*
X116271158Y-89900500D01*
X116428844Y-89900500D01*
X116428845Y-89900499D01*
X116583497Y-89869737D01*
X116729179Y-89809394D01*
X116860289Y-89721789D01*
X116971789Y-89610289D01*
X117059394Y-89479179D01*
X117119737Y-89333497D01*
X117150500Y-89178842D01*
X117150500Y-89021158D01*
X117150500Y-89021155D01*
X117150499Y-89021153D01*
X117136086Y-88948691D01*
X117142313Y-88879100D01*
X117185176Y-88823922D01*
X117251066Y-88800678D01*
X117257703Y-88800500D01*
X121120234Y-88800500D01*
X121187273Y-88820185D01*
X121189125Y-88821398D01*
X121320814Y-88909390D01*
X121320827Y-88909397D01*
X121415693Y-88948691D01*
X121466503Y-88969737D01*
X121621153Y-89000499D01*
X121621156Y-89000500D01*
X121621158Y-89000500D01*
X121778844Y-89000500D01*
X121778845Y-89000499D01*
X121933497Y-88969737D01*
X122079179Y-88909394D01*
X122143370Y-88866503D01*
X122210875Y-88821398D01*
X122228921Y-88815747D01*
X122244831Y-88805523D01*
X122275792Y-88801071D01*
X122277553Y-88800520D01*
X122279766Y-88800500D01*
X122370234Y-88800500D01*
X122437273Y-88820185D01*
X122439125Y-88821398D01*
X122570814Y-88909390D01*
X122570827Y-88909397D01*
X122665693Y-88948691D01*
X122716503Y-88969737D01*
X122871153Y-89000499D01*
X122871156Y-89000500D01*
X122871158Y-89000500D01*
X123028844Y-89000500D01*
X123028845Y-89000499D01*
X123183497Y-88969737D01*
X123329179Y-88909394D01*
X123460289Y-88821789D01*
X123571789Y-88710289D01*
X123659394Y-88579179D01*
X123719737Y-88433497D01*
X123750500Y-88278842D01*
X123750500Y-88121158D01*
X123750500Y-88121155D01*
X123750499Y-88121153D01*
X123730057Y-88018384D01*
X123719737Y-87966503D01*
X123706062Y-87933489D01*
X123659397Y-87820827D01*
X123659390Y-87820814D01*
X123571789Y-87689711D01*
X123571786Y-87689707D01*
X123460292Y-87578213D01*
X123460288Y-87578210D01*
X123329185Y-87490609D01*
X123329172Y-87490602D01*
X123183501Y-87430264D01*
X123183489Y-87430261D01*
X123028845Y-87399500D01*
X123028842Y-87399500D01*
X122871158Y-87399500D01*
X122871155Y-87399500D01*
X122716510Y-87430261D01*
X122716498Y-87430264D01*
X122570827Y-87490602D01*
X122570814Y-87490609D01*
X122439125Y-87578602D01*
X122421078Y-87584252D01*
X122405169Y-87594477D01*
X122374207Y-87598928D01*
X122372447Y-87599480D01*
X122370234Y-87599500D01*
X122279766Y-87599500D01*
X122212727Y-87579815D01*
X122210875Y-87578602D01*
X122079185Y-87490609D01*
X122079172Y-87490602D01*
X121933501Y-87430264D01*
X121933489Y-87430261D01*
X121778845Y-87399500D01*
X121778842Y-87399500D01*
X121621158Y-87399500D01*
X121621155Y-87399500D01*
X121466510Y-87430261D01*
X121466498Y-87430264D01*
X121320827Y-87490602D01*
X121320814Y-87490609D01*
X121189125Y-87578602D01*
X121122447Y-87599480D01*
X121120234Y-87599500D01*
X113179061Y-87599500D01*
X113179057Y-87599499D01*
X113020943Y-87599499D01*
X113020939Y-87599500D01*
X112697956Y-87599500D01*
X112630917Y-87579815D01*
X112585162Y-87527011D01*
X112576339Y-87499691D01*
X112569738Y-87466510D01*
X112569737Y-87466503D01*
X112565117Y-87455350D01*
X112509397Y-87320827D01*
X112509390Y-87320814D01*
X112421789Y-87189711D01*
X112421786Y-87189707D01*
X112310292Y-87078213D01*
X112310288Y-87078210D01*
X112179185Y-86990609D01*
X112179172Y-86990602D01*
X112033501Y-86930264D01*
X112033489Y-86930261D01*
X111878845Y-86899500D01*
X111878842Y-86899500D01*
X111721158Y-86899500D01*
X111721155Y-86899500D01*
X111566510Y-86930261D01*
X111566498Y-86930264D01*
X111420827Y-86990602D01*
X111420814Y-86990609D01*
X111289711Y-87078210D01*
X111289707Y-87078213D01*
X111178213Y-87189707D01*
X111178210Y-87189711D01*
X111090609Y-87320814D01*
X111090602Y-87320827D01*
X111030264Y-87466498D01*
X111030261Y-87466510D01*
X110999500Y-87621153D01*
X110999500Y-87778846D01*
X111030261Y-87933489D01*
X111030264Y-87933501D01*
X111090602Y-88079172D01*
X111090609Y-88079185D01*
X111178210Y-88210288D01*
X111178213Y-88210292D01*
X111289707Y-88321786D01*
X111289711Y-88321789D01*
X111420814Y-88409390D01*
X111420827Y-88409397D01*
X111566498Y-88469735D01*
X111566503Y-88469737D01*
X111623533Y-88481081D01*
X111684723Y-88493253D01*
X111693728Y-88497963D01*
X111703866Y-88498689D01*
X111724166Y-88513885D01*
X111746634Y-88525638D01*
X111751662Y-88534468D01*
X111759800Y-88540560D01*
X111768662Y-88564321D01*
X111781208Y-88586353D01*
X111780664Y-88596501D01*
X111784216Y-88606025D01*
X111778825Y-88630802D01*
X111777469Y-88656123D01*
X111771128Y-88666184D01*
X111769364Y-88674298D01*
X111748213Y-88702552D01*
X111685338Y-88765426D01*
X111624014Y-88798910D01*
X111621849Y-88799361D01*
X111466508Y-88830261D01*
X111466498Y-88830264D01*
X111320827Y-88890602D01*
X111320814Y-88890609D01*
X111189711Y-88978210D01*
X111189707Y-88978213D01*
X111078213Y-89089707D01*
X111078210Y-89089711D01*
X110990609Y-89220814D01*
X110990602Y-89220827D01*
X110930264Y-89366498D01*
X110930261Y-89366510D01*
X110899500Y-89521153D01*
X110899500Y-89678846D01*
X110930261Y-89833489D01*
X110930264Y-89833501D01*
X110990602Y-89979172D01*
X110990609Y-89979185D01*
X111078211Y-90110289D01*
X111080053Y-90112534D01*
X111080650Y-90113939D01*
X111081595Y-90115354D01*
X111081500Y-90115417D01*
X111083468Y-90116890D01*
X111094747Y-90147130D01*
X111107367Y-90176843D01*
X111106883Y-90179668D01*
X111107885Y-90182354D01*
X111101024Y-90213891D01*
X111095577Y-90245711D01*
X111093456Y-90248679D01*
X111093033Y-90250627D01*
X111071882Y-90278881D01*
X111035337Y-90315426D01*
X110974014Y-90348911D01*
X110971848Y-90349362D01*
X110816508Y-90380261D01*
X110816498Y-90380264D01*
X110670827Y-90440602D01*
X110670814Y-90440609D01*
X110539711Y-90528210D01*
X110539707Y-90528213D01*
X110428213Y-90639707D01*
X110428210Y-90639711D01*
X110340609Y-90770814D01*
X110340602Y-90770827D01*
X110280264Y-90916498D01*
X110280261Y-90916510D01*
X110249500Y-91071153D01*
X104393108Y-91071153D01*
X104428408Y-91058801D01*
X104681445Y-90936945D01*
X104919248Y-90787523D01*
X105138825Y-90612416D01*
X105337416Y-90413825D01*
X105512523Y-90194248D01*
X105661945Y-89956445D01*
X105783801Y-89703408D01*
X105876560Y-89438318D01*
X105939055Y-89164509D01*
X105970500Y-88885425D01*
X105970500Y-88604575D01*
X105951224Y-88433497D01*
X105939057Y-88325505D01*
X105939054Y-88325487D01*
X105876560Y-88051682D01*
X105876556Y-88051670D01*
X105844580Y-87960289D01*
X105783801Y-87786592D01*
X105661945Y-87533555D01*
X105512523Y-87295752D01*
X105337416Y-87076175D01*
X105138825Y-86877584D01*
X105126660Y-86867883D01*
X105068857Y-86821786D01*
X104919248Y-86702477D01*
X104681445Y-86553055D01*
X104681442Y-86553053D01*
X104428411Y-86431200D01*
X104163329Y-86338443D01*
X104163317Y-86338439D01*
X103889512Y-86275945D01*
X103889494Y-86275942D01*
X103610431Y-86244500D01*
X103610425Y-86244500D01*
X103329575Y-86244500D01*
X103329568Y-86244500D01*
X103050505Y-86275942D01*
X103050487Y-86275945D01*
X102776682Y-86338439D01*
X102776670Y-86338443D01*
X102511588Y-86431200D01*
X102258557Y-86553053D01*
X102020753Y-86702476D01*
X101801175Y-86877583D01*
X101602583Y-87076175D01*
X101427476Y-87295753D01*
X101278053Y-87533557D01*
X101156200Y-87786588D01*
X101063443Y-88051670D01*
X101063439Y-88051682D01*
X101000945Y-88325487D01*
X101000942Y-88325505D01*
X100969500Y-88604568D01*
X93900500Y-88604568D01*
X93900500Y-84021153D01*
X101749500Y-84021153D01*
X101749500Y-84178846D01*
X101780261Y-84333489D01*
X101780264Y-84333501D01*
X101840602Y-84479172D01*
X101840609Y-84479185D01*
X101928210Y-84610288D01*
X101928213Y-84610292D01*
X102039707Y-84721786D01*
X102039711Y-84721789D01*
X102170814Y-84809390D01*
X102170827Y-84809397D01*
X102316498Y-84869735D01*
X102316503Y-84869737D01*
X102471153Y-84900499D01*
X102471156Y-84900500D01*
X102471158Y-84900500D01*
X102628844Y-84900500D01*
X102628845Y-84900499D01*
X102783497Y-84869737D01*
X102929179Y-84809394D01*
X102929185Y-84809390D01*
X103060875Y-84721398D01*
X103127553Y-84700520D01*
X103129766Y-84700500D01*
X103713331Y-84700500D01*
X103713347Y-84700501D01*
X103720943Y-84700501D01*
X103879054Y-84700501D01*
X103879057Y-84700501D01*
X104031785Y-84659577D01*
X104101200Y-84619500D01*
X104168716Y-84580520D01*
X104280520Y-84468716D01*
X104280520Y-84468714D01*
X104290724Y-84458511D01*
X104290727Y-84458506D01*
X104814665Y-83934570D01*
X104875984Y-83901088D01*
X104878151Y-83900637D01*
X104878840Y-83900500D01*
X104878842Y-83900500D01*
X105033497Y-83869737D01*
X105179179Y-83809394D01*
X105310289Y-83721789D01*
X105421789Y-83610289D01*
X105509394Y-83479179D01*
X105569737Y-83333497D01*
X105600500Y-83178842D01*
X105600500Y-83171153D01*
X108799500Y-83171153D01*
X108799500Y-83328846D01*
X108830261Y-83483489D01*
X108830264Y-83483501D01*
X108890602Y-83629172D01*
X108890609Y-83629185D01*
X108978210Y-83760288D01*
X108978213Y-83760292D01*
X109089707Y-83871786D01*
X109089711Y-83871789D01*
X109220814Y-83959390D01*
X109220827Y-83959397D01*
X109366498Y-84019735D01*
X109366503Y-84019737D01*
X109521153Y-84050499D01*
X109521156Y-84050500D01*
X109521158Y-84050500D01*
X109678844Y-84050500D01*
X109678845Y-84050499D01*
X109833497Y-84019737D01*
X109951592Y-83970821D01*
X109979172Y-83959397D01*
X109979172Y-83959396D01*
X109979179Y-83959394D01*
X110110289Y-83871789D01*
X110221789Y-83760289D01*
X110309394Y-83629179D01*
X110369737Y-83483497D01*
X110400500Y-83328842D01*
X110400500Y-83171158D01*
X110400500Y-83171155D01*
X110400499Y-83171153D01*
X110369737Y-83016503D01*
X110309394Y-82870821D01*
X110271396Y-82813953D01*
X110250520Y-82747276D01*
X110250500Y-82745064D01*
X110250500Y-79420808D01*
X110270185Y-79353769D01*
X110286819Y-79333127D01*
X113042561Y-76577385D01*
X115841624Y-73778321D01*
X115902945Y-73744838D01*
X115972637Y-73749822D01*
X116028570Y-73791694D01*
X116052987Y-73857158D01*
X116040831Y-73914319D01*
X116042937Y-73915192D01*
X115980264Y-74066498D01*
X115980261Y-74066510D01*
X115949500Y-74221153D01*
X115949500Y-74378846D01*
X115980261Y-74533489D01*
X115980264Y-74533501D01*
X116040602Y-74679172D01*
X116040609Y-74679185D01*
X116128210Y-74810288D01*
X116128213Y-74810292D01*
X116239707Y-74921786D01*
X116239711Y-74921789D01*
X116370814Y-75009390D01*
X116370827Y-75009397D01*
X116458230Y-75045599D01*
X116516503Y-75069737D01*
X116583580Y-75083079D01*
X116645490Y-75115463D01*
X116647069Y-75117015D01*
X120067873Y-78537819D01*
X120101358Y-78599142D01*
X120096374Y-78668834D01*
X120054502Y-78724767D01*
X119989038Y-78749184D01*
X119980192Y-78749500D01*
X117204935Y-78749500D01*
X117137896Y-78729815D01*
X117136090Y-78728633D01*
X117079179Y-78690606D01*
X117079172Y-78690602D01*
X116933501Y-78630264D01*
X116933489Y-78630261D01*
X116778845Y-78599500D01*
X116778842Y-78599500D01*
X116621158Y-78599500D01*
X116621155Y-78599500D01*
X116466510Y-78630261D01*
X116466498Y-78630264D01*
X116320827Y-78690602D01*
X116320814Y-78690609D01*
X116189711Y-78778210D01*
X116189707Y-78778213D01*
X116078213Y-78889707D01*
X116078210Y-78889711D01*
X115990609Y-79020814D01*
X115990602Y-79020827D01*
X115930264Y-79166498D01*
X115930261Y-79166510D01*
X115899500Y-79321153D01*
X115899500Y-79478846D01*
X115930261Y-79633489D01*
X115930264Y-79633501D01*
X115990602Y-79779172D01*
X115990609Y-79779185D01*
X116078210Y-79910288D01*
X116078213Y-79910292D01*
X116189707Y-80021786D01*
X116189711Y-80021789D01*
X116320814Y-80109390D01*
X116320827Y-80109397D01*
X116466498Y-80169735D01*
X116466503Y-80169737D01*
X116621153Y-80200499D01*
X116621156Y-80200500D01*
X116621158Y-80200500D01*
X116778844Y-80200500D01*
X116778845Y-80200499D01*
X116933497Y-80169737D01*
X117079179Y-80109394D01*
X117136044Y-80071397D01*
X117202721Y-80050520D01*
X117204935Y-80050500D01*
X120379192Y-80050500D01*
X120446231Y-80070185D01*
X120466873Y-80086819D01*
X121382984Y-81002930D01*
X121416469Y-81064253D01*
X121416920Y-81066420D01*
X121430261Y-81133489D01*
X121430264Y-81133501D01*
X121490602Y-81279172D01*
X121490609Y-81279185D01*
X121578210Y-81410288D01*
X121578213Y-81410292D01*
X121689707Y-81521786D01*
X121689711Y-81521789D01*
X121820814Y-81609390D01*
X121820827Y-81609397D01*
X121966498Y-81669735D01*
X121966503Y-81669737D01*
X122121153Y-81700499D01*
X122121156Y-81700500D01*
X122121158Y-81700500D01*
X122278844Y-81700500D01*
X122278845Y-81700499D01*
X122433497Y-81669737D01*
X122579179Y-81609394D01*
X122710289Y-81521789D01*
X122793386Y-81438691D01*
X122854707Y-81405208D01*
X122924399Y-81410192D01*
X122968747Y-81438693D01*
X137463181Y-95933127D01*
X137496666Y-95994450D01*
X137499500Y-96020808D01*
X137499500Y-106745064D01*
X137479815Y-106812103D01*
X137478603Y-106813954D01*
X137440608Y-106870817D01*
X137440602Y-106870828D01*
X137380264Y-107016498D01*
X137380261Y-107016510D01*
X137349500Y-107171153D01*
X137349500Y-107328846D01*
X137380261Y-107483489D01*
X137380264Y-107483501D01*
X137440602Y-107629172D01*
X137440609Y-107629185D01*
X137528210Y-107760288D01*
X137528213Y-107760292D01*
X137639707Y-107871786D01*
X137639711Y-107871789D01*
X137770814Y-107959390D01*
X137770827Y-107959397D01*
X137916498Y-108019735D01*
X137916503Y-108019737D01*
X138071153Y-108050499D01*
X138071156Y-108050500D01*
X138071158Y-108050500D01*
X138228844Y-108050500D01*
X138228845Y-108050499D01*
X138383497Y-108019737D01*
X138529179Y-107959394D01*
X138660289Y-107871789D01*
X138771789Y-107760289D01*
X138859394Y-107629179D01*
X138919737Y-107483497D01*
X138950500Y-107328842D01*
X138950500Y-107171158D01*
X138950500Y-107171155D01*
X138950499Y-107171153D01*
X138919738Y-107016510D01*
X138919737Y-107016503D01*
X138919735Y-107016498D01*
X138859397Y-106870828D01*
X138859396Y-106870827D01*
X138859394Y-106870821D01*
X138821396Y-106813953D01*
X138800520Y-106747276D01*
X138800500Y-106745064D01*
X138800500Y-97972135D01*
X153149500Y-97972135D01*
X153149500Y-99767870D01*
X153149501Y-99767876D01*
X153155908Y-99827483D01*
X153206202Y-99962328D01*
X153206206Y-99962335D01*
X153292452Y-100077544D01*
X153292455Y-100077547D01*
X153407664Y-100163793D01*
X153407671Y-100163797D01*
X153539082Y-100212810D01*
X153595016Y-100254681D01*
X153619433Y-100320145D01*
X153604582Y-100388418D01*
X153583431Y-100416673D01*
X153469889Y-100530215D01*
X153344951Y-100702179D01*
X153248444Y-100891585D01*
X153182753Y-101093760D01*
X153175618Y-101138812D01*
X153149500Y-101303713D01*
X153149500Y-101516287D01*
X153154766Y-101549534D01*
X153175246Y-101678844D01*
X153182754Y-101726243D01*
X153247858Y-101926613D01*
X153248444Y-101928414D01*
X153344951Y-102117820D01*
X153469890Y-102289786D01*
X153620213Y-102440109D01*
X153792179Y-102565048D01*
X153792181Y-102565049D01*
X153792184Y-102565051D01*
X153981588Y-102661557D01*
X154183757Y-102727246D01*
X154393713Y-102760500D01*
X154393714Y-102760500D01*
X154606286Y-102760500D01*
X154606287Y-102760500D01*
X154816243Y-102727246D01*
X155018412Y-102661557D01*
X155207816Y-102565051D01*
X155280740Y-102512069D01*
X155379786Y-102440109D01*
X155379788Y-102440106D01*
X155379792Y-102440104D01*
X155530104Y-102289792D01*
X155530106Y-102289788D01*
X155530109Y-102289786D01*
X155655048Y-102117820D01*
X155655047Y-102117820D01*
X155655051Y-102117816D01*
X155751557Y-101928412D01*
X155817246Y-101726243D01*
X155850500Y-101516287D01*
X155850500Y-101303713D01*
X155817246Y-101093757D01*
X155751557Y-100891588D01*
X155655051Y-100702184D01*
X155655049Y-100702181D01*
X155655048Y-100702179D01*
X155530109Y-100530213D01*
X155416569Y-100416673D01*
X155383084Y-100355350D01*
X155388068Y-100285658D01*
X155429940Y-100229725D01*
X155460915Y-100212810D01*
X155592331Y-100163796D01*
X155707546Y-100077546D01*
X155793796Y-99962331D01*
X155844091Y-99827483D01*
X155850500Y-99767873D01*
X155850499Y-97972128D01*
X155844091Y-97912517D01*
X155793796Y-97777669D01*
X155793795Y-97777668D01*
X155793793Y-97777664D01*
X155707547Y-97662455D01*
X155707544Y-97662452D01*
X155592335Y-97576206D01*
X155592328Y-97576202D01*
X155457482Y-97525908D01*
X155457483Y-97525908D01*
X155397883Y-97519501D01*
X155397881Y-97519500D01*
X155397873Y-97519500D01*
X155397864Y-97519500D01*
X153602129Y-97519500D01*
X153602123Y-97519501D01*
X153542516Y-97525908D01*
X153407671Y-97576202D01*
X153407664Y-97576206D01*
X153292455Y-97662452D01*
X153292452Y-97662455D01*
X153206206Y-97777664D01*
X153206202Y-97777671D01*
X153155908Y-97912517D01*
X153149501Y-97972116D01*
X153149501Y-97972123D01*
X153149500Y-97972135D01*
X138800500Y-97972135D01*
X138800500Y-95635928D01*
X138775502Y-95510261D01*
X138775501Y-95510260D01*
X138775501Y-95510256D01*
X138726465Y-95391873D01*
X138716023Y-95376246D01*
X138716022Y-95376243D01*
X138655277Y-95285331D01*
X138655271Y-95285324D01*
X135076433Y-91706487D01*
X134992081Y-91622135D01*
X153099500Y-91622135D01*
X153099500Y-93417870D01*
X153099501Y-93417876D01*
X153105908Y-93477483D01*
X153156202Y-93612328D01*
X153156206Y-93612335D01*
X153242452Y-93727544D01*
X153242455Y-93727547D01*
X153357664Y-93813793D01*
X153357671Y-93813797D01*
X153489082Y-93862810D01*
X153545016Y-93904681D01*
X153569433Y-93970145D01*
X153554582Y-94038418D01*
X153533431Y-94066673D01*
X153419889Y-94180215D01*
X153294951Y-94352179D01*
X153198444Y-94541585D01*
X153132753Y-94743760D01*
X153099500Y-94953713D01*
X153099500Y-95166287D01*
X153132754Y-95376243D01*
X153176299Y-95510261D01*
X153198444Y-95578414D01*
X153294951Y-95767820D01*
X153419890Y-95939786D01*
X153570213Y-96090109D01*
X153742179Y-96215048D01*
X153742181Y-96215049D01*
X153742184Y-96215051D01*
X153931588Y-96311557D01*
X154133757Y-96377246D01*
X154343713Y-96410500D01*
X154343714Y-96410500D01*
X154556286Y-96410500D01*
X154556287Y-96410500D01*
X154766243Y-96377246D01*
X154968412Y-96311557D01*
X155157816Y-96215051D01*
X155179789Y-96199086D01*
X155329786Y-96090109D01*
X155329788Y-96090106D01*
X155329792Y-96090104D01*
X155480104Y-95939792D01*
X155480106Y-95939788D01*
X155480109Y-95939786D01*
X155602625Y-95771155D01*
X155605051Y-95767816D01*
X155701557Y-95578412D01*
X155767246Y-95376243D01*
X155800500Y-95166287D01*
X155800500Y-94953713D01*
X155767246Y-94743757D01*
X155701557Y-94541588D01*
X155605051Y-94352184D01*
X155605049Y-94352181D01*
X155605048Y-94352179D01*
X155480109Y-94180213D01*
X155366569Y-94066673D01*
X155333084Y-94005350D01*
X155338068Y-93935658D01*
X155379940Y-93879725D01*
X155410915Y-93862810D01*
X155542331Y-93813796D01*
X155657546Y-93727546D01*
X155743796Y-93612331D01*
X155794091Y-93477483D01*
X155800500Y-93417873D01*
X155800499Y-91622128D01*
X155794091Y-91562517D01*
X155743796Y-91427669D01*
X155743795Y-91427668D01*
X155743793Y-91427664D01*
X155657547Y-91312455D01*
X155657544Y-91312452D01*
X155542335Y-91226206D01*
X155542328Y-91226202D01*
X155407482Y-91175908D01*
X155407483Y-91175908D01*
X155347883Y-91169501D01*
X155347881Y-91169500D01*
X155347873Y-91169500D01*
X155347864Y-91169500D01*
X153552129Y-91169500D01*
X153552123Y-91169501D01*
X153492516Y-91175908D01*
X153357671Y-91226202D01*
X153357664Y-91226206D01*
X153242455Y-91312452D01*
X153242452Y-91312455D01*
X153156206Y-91427664D01*
X153156202Y-91427671D01*
X153105908Y-91562517D01*
X153099501Y-91622116D01*
X153099501Y-91622123D01*
X153099500Y-91622135D01*
X134992081Y-91622135D01*
X131563693Y-88193747D01*
X131530208Y-88132424D01*
X131535192Y-88062732D01*
X131563691Y-88018386D01*
X131621789Y-87960289D01*
X131709394Y-87829179D01*
X131712854Y-87820827D01*
X131767163Y-87689711D01*
X131769737Y-87683497D01*
X131800500Y-87528842D01*
X131800638Y-87528150D01*
X131833023Y-87466239D01*
X131834521Y-87464713D01*
X132354973Y-86944260D01*
X132416294Y-86910777D01*
X132485985Y-86915761D01*
X132490104Y-86917382D01*
X132616498Y-86969735D01*
X132616503Y-86969737D01*
X132771153Y-87000499D01*
X132771156Y-87000500D01*
X132771158Y-87000500D01*
X132928844Y-87000500D01*
X132928845Y-87000499D01*
X133083497Y-86969737D01*
X133229179Y-86909394D01*
X133360289Y-86821789D01*
X133471789Y-86710289D01*
X133559394Y-86579179D01*
X133619737Y-86433497D01*
X133650500Y-86278842D01*
X133650500Y-86121158D01*
X133650500Y-86121155D01*
X133650499Y-86121153D01*
X133619738Y-85966510D01*
X133619737Y-85966503D01*
X133563728Y-85831284D01*
X133559397Y-85820827D01*
X133559390Y-85820814D01*
X133471789Y-85689711D01*
X133471786Y-85689707D01*
X133360292Y-85578213D01*
X133360288Y-85578210D01*
X133229185Y-85490609D01*
X133229172Y-85490602D01*
X133083501Y-85430264D01*
X133083489Y-85430261D01*
X132928845Y-85399500D01*
X132928842Y-85399500D01*
X132771158Y-85399500D01*
X132771155Y-85399500D01*
X132616510Y-85430261D01*
X132616498Y-85430264D01*
X132470827Y-85490602D01*
X132470814Y-85490609D01*
X132339127Y-85578601D01*
X132272450Y-85599479D01*
X132270236Y-85599499D01*
X132170943Y-85599499D01*
X132063587Y-85628265D01*
X132018210Y-85640424D01*
X132018209Y-85640425D01*
X131968096Y-85669359D01*
X131968095Y-85669360D01*
X131932853Y-85689707D01*
X131881285Y-85719479D01*
X131881282Y-85719481D01*
X130985339Y-86615425D01*
X130924016Y-86648910D01*
X130921850Y-86649361D01*
X130766508Y-86680261D01*
X130766498Y-86680264D01*
X130620827Y-86740602D01*
X130620814Y-86740609D01*
X130489711Y-86828210D01*
X130431614Y-86886307D01*
X130370290Y-86919791D01*
X130300599Y-86914806D01*
X130256252Y-86886306D01*
X127591099Y-84221153D01*
X142099500Y-84221153D01*
X142099500Y-84378846D01*
X142130261Y-84533489D01*
X142130264Y-84533501D01*
X142190602Y-84679172D01*
X142190609Y-84679185D01*
X142278210Y-84810288D01*
X142278213Y-84810292D01*
X142389707Y-84921786D01*
X142389711Y-84921789D01*
X142520814Y-85009390D01*
X142520827Y-85009397D01*
X142666498Y-85069735D01*
X142666503Y-85069737D01*
X142821153Y-85100499D01*
X142821156Y-85100500D01*
X142821158Y-85100500D01*
X142978844Y-85100500D01*
X142978845Y-85100499D01*
X143133497Y-85069737D01*
X143246166Y-85023067D01*
X143279172Y-85009397D01*
X143279172Y-85009396D01*
X143279179Y-85009394D01*
X143335459Y-84971789D01*
X143410875Y-84921398D01*
X143477553Y-84900520D01*
X143479766Y-84900500D01*
X145267060Y-84900500D01*
X145334099Y-84920185D01*
X145354742Y-84936820D01*
X145389707Y-84971786D01*
X145389711Y-84971789D01*
X145520814Y-85059390D01*
X145520827Y-85059397D01*
X145620060Y-85100500D01*
X145666503Y-85119737D01*
X145821153Y-85150499D01*
X145821156Y-85150500D01*
X145821158Y-85150500D01*
X145978844Y-85150500D01*
X145978845Y-85150499D01*
X146133497Y-85119737D01*
X146248419Y-85072135D01*
X153099500Y-85072135D01*
X153099500Y-86867870D01*
X153099501Y-86867876D01*
X153105908Y-86927483D01*
X153156202Y-87062328D01*
X153156206Y-87062335D01*
X153242452Y-87177544D01*
X153242455Y-87177547D01*
X153357664Y-87263793D01*
X153357671Y-87263797D01*
X153489082Y-87312810D01*
X153545016Y-87354681D01*
X153569433Y-87420145D01*
X153554582Y-87488418D01*
X153533431Y-87516673D01*
X153419889Y-87630215D01*
X153294951Y-87802179D01*
X153198444Y-87991585D01*
X153132753Y-88193760D01*
X153111890Y-88325487D01*
X153099500Y-88403713D01*
X153099500Y-88616287D01*
X153107403Y-88666184D01*
X153132048Y-88821789D01*
X153132754Y-88826243D01*
X153196084Y-89021153D01*
X153198444Y-89028414D01*
X153294951Y-89217820D01*
X153419890Y-89389786D01*
X153570213Y-89540109D01*
X153742179Y-89665048D01*
X153742181Y-89665049D01*
X153742184Y-89665051D01*
X153931588Y-89761557D01*
X154133757Y-89827246D01*
X154343713Y-89860500D01*
X154343714Y-89860500D01*
X154556286Y-89860500D01*
X154556287Y-89860500D01*
X154766243Y-89827246D01*
X154968412Y-89761557D01*
X155157816Y-89665051D01*
X155233190Y-89610289D01*
X155329786Y-89540109D01*
X155329788Y-89540106D01*
X155329792Y-89540104D01*
X155480104Y-89389792D01*
X155480106Y-89389788D01*
X155480109Y-89389786D01*
X155605048Y-89217820D01*
X155605047Y-89217820D01*
X155605051Y-89217816D01*
X155701557Y-89028412D01*
X155767246Y-88826243D01*
X155800500Y-88616287D01*
X155800500Y-88403713D01*
X155767246Y-88193757D01*
X155701557Y-87991588D01*
X155605051Y-87802184D01*
X155605049Y-87802181D01*
X155605048Y-87802179D01*
X155480109Y-87630213D01*
X155366569Y-87516673D01*
X155333084Y-87455350D01*
X155338068Y-87385658D01*
X155379940Y-87329725D01*
X155410915Y-87312810D01*
X155542331Y-87263796D01*
X155657546Y-87177546D01*
X155743796Y-87062331D01*
X155794091Y-86927483D01*
X155800500Y-86867873D01*
X155800499Y-85072128D01*
X155794091Y-85012517D01*
X155792927Y-85009397D01*
X155743797Y-84877671D01*
X155743793Y-84877664D01*
X155657547Y-84762455D01*
X155657544Y-84762452D01*
X155542335Y-84676206D01*
X155542328Y-84676202D01*
X155407482Y-84625908D01*
X155407483Y-84625908D01*
X155347883Y-84619501D01*
X155347881Y-84619500D01*
X155347873Y-84619500D01*
X155347864Y-84619500D01*
X153552129Y-84619500D01*
X153552123Y-84619501D01*
X153492516Y-84625908D01*
X153357671Y-84676202D01*
X153357664Y-84676206D01*
X153242455Y-84762452D01*
X153242452Y-84762455D01*
X153156206Y-84877664D01*
X153156202Y-84877671D01*
X153105908Y-85012517D01*
X153099757Y-85069735D01*
X153099501Y-85072123D01*
X153099500Y-85072135D01*
X146248419Y-85072135D01*
X146279179Y-85059394D01*
X146410289Y-84971789D01*
X146521789Y-84860289D01*
X146609394Y-84729179D01*
X146669737Y-84583497D01*
X146700500Y-84428842D01*
X146700500Y-84271158D01*
X146700500Y-84271155D01*
X146700499Y-84271153D01*
X146669738Y-84116510D01*
X146669737Y-84116503D01*
X146669735Y-84116498D01*
X146609397Y-83970827D01*
X146609390Y-83970814D01*
X146521789Y-83839711D01*
X146521786Y-83839707D01*
X146410292Y-83728213D01*
X146410288Y-83728210D01*
X146279185Y-83640609D01*
X146279172Y-83640602D01*
X146133501Y-83580264D01*
X146133489Y-83580261D01*
X145978845Y-83549500D01*
X145978842Y-83549500D01*
X145821158Y-83549500D01*
X145821155Y-83549500D01*
X145666510Y-83580261D01*
X145666498Y-83580264D01*
X145520827Y-83640602D01*
X145520820Y-83640606D01*
X145491928Y-83659911D01*
X145463955Y-83678602D01*
X145397279Y-83699480D01*
X145395065Y-83699500D01*
X143479766Y-83699500D01*
X143412727Y-83679815D01*
X143410875Y-83678602D01*
X143279185Y-83590609D01*
X143279172Y-83590602D01*
X143133501Y-83530264D01*
X143133489Y-83530261D01*
X142978845Y-83499500D01*
X142978842Y-83499500D01*
X142821158Y-83499500D01*
X142821155Y-83499500D01*
X142666510Y-83530261D01*
X142666498Y-83530264D01*
X142520827Y-83590602D01*
X142520814Y-83590609D01*
X142389711Y-83678210D01*
X142389707Y-83678213D01*
X142278213Y-83789707D01*
X142278210Y-83789711D01*
X142190609Y-83920814D01*
X142190602Y-83920827D01*
X142130264Y-84066498D01*
X142130261Y-84066510D01*
X142099500Y-84221153D01*
X127591099Y-84221153D01*
X117808599Y-74438653D01*
X120284500Y-74438653D01*
X120284500Y-74596346D01*
X120315261Y-74750989D01*
X120315264Y-74751001D01*
X120375602Y-74896672D01*
X120375609Y-74896685D01*
X120463210Y-75027788D01*
X120463213Y-75027792D01*
X120574707Y-75139286D01*
X120574711Y-75139289D01*
X120630996Y-75176898D01*
X120675801Y-75230510D01*
X120684508Y-75299835D01*
X120654353Y-75362863D01*
X120630996Y-75383102D01*
X120574711Y-75420710D01*
X120574707Y-75420713D01*
X120463213Y-75532207D01*
X120463210Y-75532211D01*
X120375609Y-75663314D01*
X120375602Y-75663327D01*
X120315264Y-75808998D01*
X120315261Y-75809010D01*
X120284500Y-75963653D01*
X120284500Y-76121346D01*
X120315261Y-76275989D01*
X120315264Y-76276001D01*
X120375602Y-76421672D01*
X120375609Y-76421685D01*
X120463210Y-76552788D01*
X120463213Y-76552792D01*
X120574707Y-76664286D01*
X120574711Y-76664289D01*
X120705814Y-76751890D01*
X120705827Y-76751897D01*
X120851498Y-76812235D01*
X120851503Y-76812237D01*
X120932155Y-76828279D01*
X120958961Y-76833612D01*
X121020872Y-76865997D01*
X121055446Y-76926712D01*
X121056387Y-76931037D01*
X121077761Y-77038491D01*
X121077764Y-77038501D01*
X121138102Y-77184172D01*
X121138109Y-77184185D01*
X121225710Y-77315288D01*
X121225713Y-77315292D01*
X121337207Y-77426786D01*
X121337211Y-77426789D01*
X121468314Y-77514390D01*
X121468327Y-77514397D01*
X121555489Y-77550500D01*
X121614003Y-77574737D01*
X121768653Y-77605499D01*
X121768656Y-77605500D01*
X121768658Y-77605500D01*
X121926344Y-77605500D01*
X121926345Y-77605499D01*
X122080997Y-77574737D01*
X122226679Y-77514394D01*
X122357789Y-77426789D01*
X122469289Y-77315289D01*
X122506898Y-77259003D01*
X122560509Y-77214198D01*
X122629834Y-77205491D01*
X122692862Y-77235645D01*
X122713100Y-77259001D01*
X122715499Y-77262590D01*
X122750712Y-77315291D01*
X122862207Y-77426786D01*
X122862211Y-77426789D01*
X122993314Y-77514390D01*
X122993327Y-77514397D01*
X123080489Y-77550500D01*
X123139003Y-77574737D01*
X123293653Y-77605499D01*
X123293656Y-77605500D01*
X123293658Y-77605500D01*
X123451344Y-77605500D01*
X123451345Y-77605499D01*
X123605997Y-77574737D01*
X123751679Y-77514394D01*
X123882789Y-77426789D01*
X123994289Y-77315289D01*
X124081894Y-77184179D01*
X124142237Y-77038497D01*
X124163612Y-76931037D01*
X124195996Y-76869127D01*
X124256712Y-76834553D01*
X124261038Y-76833612D01*
X124284998Y-76828846D01*
X124368497Y-76812237D01*
X124514179Y-76751894D01*
X124635016Y-76671153D01*
X132799500Y-76671153D01*
X132799500Y-76828846D01*
X132830261Y-76983489D01*
X132830264Y-76983501D01*
X132890602Y-77129172D01*
X132890609Y-77129185D01*
X132978210Y-77260288D01*
X132978213Y-77260292D01*
X133089707Y-77371786D01*
X133089711Y-77371789D01*
X133220814Y-77459390D01*
X133220827Y-77459397D01*
X133353611Y-77514397D01*
X133366503Y-77519737D01*
X133431147Y-77532595D01*
X133521849Y-77550638D01*
X133583760Y-77583023D01*
X133585339Y-77584574D01*
X135265139Y-79264374D01*
X135265149Y-79264385D01*
X135269479Y-79268715D01*
X135269480Y-79268716D01*
X135381284Y-79380520D01*
X135432845Y-79410288D01*
X135468095Y-79430639D01*
X135468097Y-79430641D01*
X135506151Y-79452611D01*
X135518215Y-79459577D01*
X135670943Y-79500500D01*
X135829057Y-79500500D01*
X147670234Y-79500500D01*
X147737273Y-79520185D01*
X147739125Y-79521398D01*
X147870814Y-79609390D01*
X147870827Y-79609397D01*
X147959889Y-79646287D01*
X148016503Y-79669737D01*
X148171153Y-79700499D01*
X148171156Y-79700500D01*
X148171158Y-79700500D01*
X148328844Y-79700500D01*
X148328845Y-79700499D01*
X148483497Y-79669737D01*
X148629179Y-79609394D01*
X148760289Y-79521789D01*
X148871789Y-79410289D01*
X148959394Y-79279179D01*
X149019737Y-79133497D01*
X149050500Y-78978842D01*
X149050500Y-78821158D01*
X149050500Y-78821155D01*
X149050499Y-78821153D01*
X149036183Y-78749184D01*
X149019737Y-78666503D01*
X149017130Y-78660208D01*
X148959397Y-78520827D01*
X148959390Y-78520814D01*
X148885482Y-78410204D01*
X148864604Y-78343527D01*
X148874023Y-78293860D01*
X148881706Y-78275312D01*
X148919737Y-78183497D01*
X148950500Y-78028842D01*
X148950500Y-77871158D01*
X148950500Y-77871155D01*
X148926140Y-77748692D01*
X148932367Y-77679100D01*
X148975230Y-77623923D01*
X149041120Y-77600678D01*
X149047757Y-77600500D01*
X151020234Y-77600500D01*
X151087273Y-77620185D01*
X151089125Y-77621398D01*
X151220814Y-77709390D01*
X151220827Y-77709397D01*
X151315695Y-77748692D01*
X151366503Y-77769737D01*
X151521153Y-77800499D01*
X151521156Y-77800500D01*
X151521158Y-77800500D01*
X151678844Y-77800500D01*
X151678845Y-77800499D01*
X151833497Y-77769737D01*
X151979179Y-77709394D01*
X152110289Y-77621789D01*
X152221789Y-77510289D01*
X152309394Y-77379179D01*
X152369737Y-77233497D01*
X152400500Y-77078842D01*
X152400500Y-76921158D01*
X152400500Y-76921155D01*
X152400499Y-76921153D01*
X152378834Y-76812237D01*
X152369737Y-76766503D01*
X152331428Y-76674016D01*
X152309397Y-76620827D01*
X152309390Y-76620814D01*
X152221789Y-76489711D01*
X152221786Y-76489707D01*
X152110292Y-76378213D01*
X152110288Y-76378210D01*
X151979185Y-76290609D01*
X151979172Y-76290602D01*
X151833501Y-76230264D01*
X151833489Y-76230261D01*
X151678845Y-76199500D01*
X151678842Y-76199500D01*
X151521158Y-76199500D01*
X151521155Y-76199500D01*
X151366510Y-76230261D01*
X151366498Y-76230264D01*
X151220827Y-76290602D01*
X151220814Y-76290609D01*
X151089125Y-76378602D01*
X151022447Y-76399480D01*
X151020234Y-76399500D01*
X146600097Y-76399500D01*
X146533058Y-76379815D01*
X146512416Y-76363181D01*
X143934574Y-73785339D01*
X143901089Y-73724016D01*
X143900638Y-73721849D01*
X143882161Y-73628961D01*
X143869737Y-73566503D01*
X143869735Y-73566498D01*
X143809397Y-73420827D01*
X143809390Y-73420814D01*
X143721789Y-73289711D01*
X143721786Y-73289707D01*
X143610292Y-73178213D01*
X143610288Y-73178210D01*
X143479185Y-73090609D01*
X143479172Y-73090602D01*
X143333501Y-73030264D01*
X143333489Y-73030261D01*
X143178845Y-72999500D01*
X143178842Y-72999500D01*
X143021158Y-72999500D01*
X143021155Y-72999500D01*
X142866510Y-73030261D01*
X142866498Y-73030264D01*
X142720827Y-73090602D01*
X142720814Y-73090609D01*
X142589711Y-73178210D01*
X142589707Y-73178213D01*
X142478213Y-73289707D01*
X142478210Y-73289711D01*
X142390609Y-73420814D01*
X142390602Y-73420827D01*
X142330264Y-73566498D01*
X142330261Y-73566510D01*
X142299500Y-73721153D01*
X142299500Y-73878846D01*
X142330261Y-74033489D01*
X142330264Y-74033501D01*
X142390602Y-74179172D01*
X142390609Y-74179185D01*
X142478210Y-74310288D01*
X142478213Y-74310292D01*
X142589707Y-74421786D01*
X142589711Y-74421789D01*
X142720814Y-74509390D01*
X142720827Y-74509397D01*
X142858693Y-74566502D01*
X142866503Y-74569737D01*
X142931147Y-74582595D01*
X143021849Y-74600638D01*
X143083760Y-74633023D01*
X143085339Y-74634574D01*
X145588584Y-77137819D01*
X145622069Y-77199142D01*
X145617085Y-77268834D01*
X145575213Y-77324767D01*
X145509749Y-77349184D01*
X145500903Y-77349500D01*
X139750097Y-77349500D01*
X139683058Y-77329815D01*
X139662416Y-77313181D01*
X138762590Y-76413355D01*
X138762588Y-76413352D01*
X137072157Y-74722922D01*
X137038672Y-74661599D01*
X137038250Y-74659575D01*
X137019737Y-74566503D01*
X136996080Y-74509390D01*
X136959397Y-74420827D01*
X136959390Y-74420814D01*
X136871789Y-74289711D01*
X136871786Y-74289707D01*
X136760292Y-74178213D01*
X136760288Y-74178210D01*
X136629185Y-74090609D01*
X136629172Y-74090602D01*
X136483501Y-74030264D01*
X136483489Y-74030261D01*
X136328845Y-73999500D01*
X136328842Y-73999500D01*
X136171158Y-73999500D01*
X136171155Y-73999500D01*
X136016510Y-74030261D01*
X136016498Y-74030264D01*
X135870827Y-74090602D01*
X135870814Y-74090609D01*
X135739711Y-74178210D01*
X135739707Y-74178213D01*
X135628213Y-74289707D01*
X135628210Y-74289711D01*
X135540609Y-74420814D01*
X135540602Y-74420827D01*
X135480264Y-74566498D01*
X135480261Y-74566510D01*
X135449500Y-74721153D01*
X135449500Y-74878846D01*
X135480261Y-75033489D01*
X135480264Y-75033501D01*
X135540602Y-75179172D01*
X135540609Y-75179185D01*
X135628210Y-75310288D01*
X135628213Y-75310292D01*
X135739707Y-75421786D01*
X135739711Y-75421789D01*
X135870814Y-75509390D01*
X135870827Y-75509397D01*
X136016498Y-75569735D01*
X136016503Y-75569737D01*
X136171153Y-75600499D01*
X136171156Y-75600500D01*
X136171158Y-75600500D01*
X136199903Y-75600500D01*
X136266942Y-75620185D01*
X136287584Y-75636819D01*
X137913349Y-77262585D01*
X137913355Y-77262590D01*
X138738584Y-78087819D01*
X138772069Y-78149142D01*
X138767085Y-78218834D01*
X138725213Y-78274767D01*
X138659749Y-78299184D01*
X138650903Y-78299500D01*
X136050097Y-78299500D01*
X135983058Y-78279815D01*
X135962416Y-78263181D01*
X134434574Y-76735339D01*
X134401089Y-76674016D01*
X134400638Y-76671849D01*
X134376955Y-76552789D01*
X134369737Y-76516503D01*
X134369735Y-76516498D01*
X134309397Y-76370827D01*
X134309390Y-76370814D01*
X134221789Y-76239711D01*
X134221786Y-76239707D01*
X134110292Y-76128213D01*
X134110288Y-76128210D01*
X133979185Y-76040609D01*
X133979172Y-76040602D01*
X133833501Y-75980264D01*
X133833489Y-75980261D01*
X133678845Y-75949500D01*
X133678842Y-75949500D01*
X133521158Y-75949500D01*
X133521155Y-75949500D01*
X133366510Y-75980261D01*
X133366498Y-75980264D01*
X133220827Y-76040602D01*
X133220814Y-76040609D01*
X133089711Y-76128210D01*
X133089707Y-76128213D01*
X132978213Y-76239707D01*
X132978210Y-76239711D01*
X132890609Y-76370814D01*
X132890602Y-76370827D01*
X132830264Y-76516498D01*
X132830261Y-76516510D01*
X132799500Y-76671153D01*
X124635016Y-76671153D01*
X124645289Y-76664289D01*
X124645292Y-76664286D01*
X124732194Y-76577385D01*
X124756786Y-76552792D01*
X124756789Y-76552789D01*
X124844394Y-76421679D01*
X124904737Y-76275997D01*
X124935500Y-76121342D01*
X124935500Y-75963658D01*
X124935500Y-75963655D01*
X124935499Y-75963653D01*
X124932684Y-75949500D01*
X124904737Y-75809003D01*
X124897906Y-75792512D01*
X124844397Y-75663327D01*
X124844390Y-75663314D01*
X124756789Y-75532211D01*
X124756786Y-75532207D01*
X124645291Y-75420712D01*
X124622015Y-75405159D01*
X124589003Y-75383101D01*
X124544198Y-75329491D01*
X124535491Y-75260166D01*
X124565645Y-75197138D01*
X124589003Y-75176898D01*
X124645289Y-75139289D01*
X124756789Y-75027789D01*
X124844394Y-74896679D01*
X124904737Y-74750997D01*
X124935500Y-74596342D01*
X124935500Y-74438658D01*
X124935500Y-74438655D01*
X124935499Y-74438653D01*
X124904737Y-74284003D01*
X124868728Y-74197069D01*
X124844397Y-74138327D01*
X124844390Y-74138314D01*
X124756789Y-74007211D01*
X124756786Y-74007207D01*
X124645292Y-73895713D01*
X124645288Y-73895710D01*
X124514185Y-73808109D01*
X124514172Y-73808102D01*
X124368501Y-73747764D01*
X124368491Y-73747761D01*
X124261037Y-73726387D01*
X124199126Y-73694002D01*
X124164552Y-73633286D01*
X124163612Y-73628961D01*
X124155983Y-73590609D01*
X124142237Y-73521503D01*
X124113372Y-73451815D01*
X124081897Y-73375827D01*
X124081890Y-73375814D01*
X123994289Y-73244711D01*
X123994286Y-73244707D01*
X123882792Y-73133213D01*
X123882788Y-73133210D01*
X123751685Y-73045609D01*
X123751672Y-73045602D01*
X123606001Y-72985264D01*
X123605989Y-72985261D01*
X123451345Y-72954500D01*
X123451342Y-72954500D01*
X123293658Y-72954500D01*
X123293655Y-72954500D01*
X123139010Y-72985261D01*
X123138998Y-72985264D01*
X122993327Y-73045602D01*
X122993314Y-73045609D01*
X122862211Y-73133210D01*
X122862207Y-73133213D01*
X122750713Y-73244707D01*
X122750710Y-73244711D01*
X122713102Y-73300996D01*
X122659490Y-73345801D01*
X122590165Y-73354508D01*
X122527137Y-73324353D01*
X122506898Y-73300996D01*
X122469289Y-73244711D01*
X122469286Y-73244707D01*
X122357792Y-73133213D01*
X122357788Y-73133210D01*
X122226685Y-73045609D01*
X122226672Y-73045602D01*
X122081001Y-72985264D01*
X122080989Y-72985261D01*
X121926345Y-72954500D01*
X121926342Y-72954500D01*
X121768658Y-72954500D01*
X121768655Y-72954500D01*
X121614010Y-72985261D01*
X121613998Y-72985264D01*
X121468327Y-73045602D01*
X121468314Y-73045609D01*
X121337211Y-73133210D01*
X121337207Y-73133213D01*
X121225713Y-73244707D01*
X121225710Y-73244711D01*
X121138109Y-73375814D01*
X121138102Y-73375827D01*
X121077764Y-73521498D01*
X121077761Y-73521508D01*
X121056387Y-73628962D01*
X121024002Y-73690873D01*
X120963286Y-73725447D01*
X120958962Y-73726387D01*
X120851508Y-73747761D01*
X120851498Y-73747764D01*
X120705827Y-73808102D01*
X120705814Y-73808109D01*
X120574711Y-73895710D01*
X120574707Y-73895713D01*
X120463213Y-74007207D01*
X120463210Y-74007211D01*
X120375609Y-74138314D01*
X120375602Y-74138327D01*
X120315264Y-74283998D01*
X120315261Y-74284010D01*
X120284500Y-74438653D01*
X117808599Y-74438653D01*
X117567015Y-74197069D01*
X117533530Y-74135746D01*
X117533093Y-74133652D01*
X117519737Y-74066503D01*
X117467995Y-73941585D01*
X117459397Y-73920827D01*
X117459390Y-73920814D01*
X117371789Y-73789711D01*
X117371786Y-73789707D01*
X117260292Y-73678213D01*
X117260288Y-73678210D01*
X117129185Y-73590609D01*
X117129172Y-73590602D01*
X116983501Y-73530264D01*
X116983489Y-73530261D01*
X116828845Y-73499500D01*
X116828842Y-73499500D01*
X116671158Y-73499500D01*
X116671155Y-73499500D01*
X116516510Y-73530261D01*
X116516498Y-73530264D01*
X116365192Y-73592937D01*
X116364301Y-73590786D01*
X116306004Y-73602899D01*
X116240770Y-73577872D01*
X116199423Y-73521550D01*
X116195089Y-73451815D01*
X116228321Y-73391624D01*
X117283127Y-72336819D01*
X117344450Y-72303334D01*
X117370808Y-72300500D01*
X128245065Y-72300500D01*
X128312104Y-72320185D01*
X128313909Y-72321366D01*
X128370821Y-72359394D01*
X128370823Y-72359395D01*
X128370827Y-72359397D01*
X128516498Y-72419735D01*
X128516503Y-72419737D01*
X128671153Y-72450499D01*
X128671156Y-72450500D01*
X128671158Y-72450500D01*
X128828844Y-72450500D01*
X128828845Y-72450499D01*
X128983497Y-72419737D01*
X129129179Y-72359394D01*
X129260289Y-72271789D01*
X129371789Y-72160289D01*
X129459394Y-72029179D01*
X129519737Y-71883497D01*
X129550500Y-71728842D01*
X129550500Y-71571158D01*
X129550500Y-71571155D01*
X129550499Y-71571153D01*
X129519738Y-71416510D01*
X129519737Y-71416503D01*
X129513558Y-71401585D01*
X129459863Y-71271952D01*
X129452394Y-71202483D01*
X129483669Y-71140004D01*
X129543759Y-71104352D01*
X129574424Y-71100500D01*
X133013445Y-71100500D01*
X133080484Y-71120185D01*
X133126239Y-71172989D01*
X133136183Y-71242147D01*
X133131159Y-71260411D01*
X133132031Y-71260676D01*
X133130261Y-71266510D01*
X133099500Y-71421153D01*
X133099500Y-71578846D01*
X133130261Y-71733489D01*
X133130264Y-71733501D01*
X133190602Y-71879172D01*
X133190609Y-71879185D01*
X133278210Y-72010288D01*
X133278213Y-72010292D01*
X133389707Y-72121786D01*
X133389711Y-72121789D01*
X133520814Y-72209390D01*
X133520827Y-72209397D01*
X133666498Y-72269735D01*
X133666503Y-72269737D01*
X133821153Y-72300499D01*
X133821156Y-72300500D01*
X133821158Y-72300500D01*
X133978844Y-72300500D01*
X133978845Y-72300499D01*
X134133497Y-72269737D01*
X134279179Y-72209394D01*
X134410289Y-72121789D01*
X134521789Y-72010289D01*
X134609394Y-71879179D01*
X134669737Y-71733497D01*
X134700500Y-71578842D01*
X134700500Y-71421158D01*
X134700500Y-71421155D01*
X134700499Y-71421153D01*
X134669738Y-71266510D01*
X134669737Y-71266503D01*
X134669732Y-71266492D01*
X134667969Y-71260676D01*
X134670720Y-71259841D01*
X134664497Y-71202641D01*
X134695691Y-71140122D01*
X134755734Y-71104392D01*
X134786555Y-71100500D01*
X147629192Y-71100500D01*
X147696231Y-71120185D01*
X147716873Y-71136819D01*
X151132984Y-74552930D01*
X151166469Y-74614253D01*
X151166920Y-74616420D01*
X151180261Y-74683489D01*
X151180264Y-74683501D01*
X151240602Y-74829172D01*
X151240609Y-74829185D01*
X151328210Y-74960288D01*
X151328213Y-74960292D01*
X151439707Y-75071786D01*
X151439711Y-75071789D01*
X151570814Y-75159390D01*
X151570827Y-75159397D01*
X151716498Y-75219735D01*
X151716503Y-75219737D01*
X151871153Y-75250499D01*
X151871156Y-75250500D01*
X151871158Y-75250500D01*
X152028844Y-75250500D01*
X152028845Y-75250499D01*
X152183497Y-75219737D01*
X152329179Y-75159394D01*
X152460289Y-75071789D01*
X152571789Y-74960289D01*
X152659394Y-74829179D01*
X152719737Y-74683497D01*
X152750500Y-74528842D01*
X152750500Y-74371158D01*
X152750500Y-74371155D01*
X152750499Y-74371153D01*
X152733165Y-74284010D01*
X152719737Y-74216503D01*
X152711687Y-74197069D01*
X152659397Y-74070827D01*
X152659390Y-74070814D01*
X152571789Y-73939711D01*
X152571786Y-73939707D01*
X152460292Y-73828213D01*
X152460288Y-73828210D01*
X152329185Y-73740609D01*
X152329172Y-73740602D01*
X152183501Y-73680264D01*
X152183489Y-73680261D01*
X152116420Y-73666920D01*
X152054509Y-73634535D01*
X152052930Y-73632984D01*
X150316468Y-71896522D01*
X150233659Y-71813713D01*
X153099500Y-71813713D01*
X153099500Y-72026286D01*
X153128501Y-72209394D01*
X153132754Y-72236243D01*
X153192375Y-72419738D01*
X153198444Y-72438414D01*
X153294951Y-72627820D01*
X153419890Y-72799786D01*
X153570213Y-72950109D01*
X153742182Y-73075050D01*
X153750946Y-73079516D01*
X153801742Y-73127491D01*
X153818536Y-73195312D01*
X153795998Y-73261447D01*
X153750946Y-73300484D01*
X153742182Y-73304949D01*
X153570213Y-73429890D01*
X153419890Y-73580213D01*
X153294951Y-73752179D01*
X153198444Y-73941585D01*
X153132753Y-74143760D01*
X153109637Y-74289711D01*
X153099500Y-74353713D01*
X153099500Y-74566287D01*
X153100047Y-74569738D01*
X153124308Y-74722922D01*
X153132754Y-74776243D01*
X153192555Y-74960292D01*
X153198444Y-74978414D01*
X153294951Y-75167820D01*
X153419890Y-75339786D01*
X153570213Y-75490109D01*
X153742182Y-75615050D01*
X153750946Y-75619516D01*
X153801742Y-75667491D01*
X153818536Y-75735312D01*
X153795998Y-75801447D01*
X153750946Y-75840484D01*
X153742182Y-75844949D01*
X153570213Y-75969890D01*
X153419890Y-76120213D01*
X153294951Y-76292179D01*
X153198444Y-76481585D01*
X153132753Y-76683760D01*
X153099500Y-76893713D01*
X153099500Y-77106286D01*
X153132602Y-77315288D01*
X153132754Y-77316243D01*
X153197138Y-77514397D01*
X153198444Y-77518414D01*
X153294951Y-77707820D01*
X153419890Y-77879786D01*
X153570213Y-78030109D01*
X153742182Y-78155050D01*
X153750946Y-78159516D01*
X153801742Y-78207491D01*
X153818536Y-78275312D01*
X153795998Y-78341447D01*
X153750946Y-78380484D01*
X153742182Y-78384949D01*
X153570213Y-78509890D01*
X153419890Y-78660213D01*
X153294951Y-78832179D01*
X153198444Y-79021585D01*
X153132753Y-79223760D01*
X153101544Y-79420808D01*
X153099500Y-79433713D01*
X153099500Y-79646287D01*
X153132754Y-79856243D01*
X153195872Y-80050500D01*
X153198444Y-80058414D01*
X153294951Y-80247820D01*
X153419890Y-80419786D01*
X153570213Y-80570109D01*
X153742182Y-80695050D01*
X153750946Y-80699516D01*
X153801742Y-80747491D01*
X153818536Y-80815312D01*
X153795998Y-80881447D01*
X153750946Y-80920484D01*
X153742182Y-80924949D01*
X153570213Y-81049890D01*
X153419890Y-81200213D01*
X153294951Y-81372179D01*
X153198444Y-81561585D01*
X153132753Y-81763760D01*
X153099500Y-81973713D01*
X153099500Y-82186286D01*
X153132753Y-82396239D01*
X153198444Y-82598414D01*
X153294951Y-82787820D01*
X153419890Y-82959786D01*
X153570213Y-83110109D01*
X153742179Y-83235048D01*
X153742181Y-83235049D01*
X153742184Y-83235051D01*
X153931588Y-83331557D01*
X154133757Y-83397246D01*
X154343713Y-83430500D01*
X154343714Y-83430500D01*
X154556286Y-83430500D01*
X154556287Y-83430500D01*
X154766243Y-83397246D01*
X154968412Y-83331557D01*
X155157816Y-83235051D01*
X155245765Y-83171153D01*
X155329786Y-83110109D01*
X155329788Y-83110106D01*
X155329792Y-83110104D01*
X155480104Y-82959792D01*
X155480106Y-82959788D01*
X155480109Y-82959786D01*
X155605048Y-82787820D01*
X155605047Y-82787820D01*
X155605051Y-82787816D01*
X155701557Y-82598412D01*
X155767246Y-82396243D01*
X155800500Y-82186287D01*
X155800500Y-81973713D01*
X155767246Y-81763757D01*
X155701557Y-81561588D01*
X155605051Y-81372184D01*
X155605049Y-81372181D01*
X155605048Y-81372179D01*
X155480109Y-81200213D01*
X155329786Y-81049890D01*
X155157820Y-80924951D01*
X155157115Y-80924591D01*
X155149054Y-80920485D01*
X155098259Y-80872512D01*
X155081463Y-80804692D01*
X155103999Y-80738556D01*
X155149054Y-80699515D01*
X155157816Y-80695051D01*
X155179789Y-80679086D01*
X155329786Y-80570109D01*
X155329788Y-80570106D01*
X155329792Y-80570104D01*
X155480104Y-80419792D01*
X155480106Y-80419788D01*
X155480109Y-80419786D01*
X155605048Y-80247820D01*
X155605047Y-80247820D01*
X155605051Y-80247816D01*
X155701557Y-80058412D01*
X155767246Y-79856243D01*
X155800500Y-79646287D01*
X155800500Y-79433713D01*
X155767246Y-79223757D01*
X155701557Y-79021588D01*
X155605051Y-78832184D01*
X155605049Y-78832181D01*
X155605048Y-78832179D01*
X155480109Y-78660213D01*
X155329786Y-78509890D01*
X155157820Y-78384951D01*
X155157115Y-78384591D01*
X155149054Y-78380485D01*
X155098259Y-78332512D01*
X155081463Y-78264692D01*
X155103999Y-78198556D01*
X155149054Y-78159515D01*
X155157816Y-78155051D01*
X155250354Y-78087819D01*
X155329786Y-78030109D01*
X155329788Y-78030106D01*
X155329792Y-78030104D01*
X155480104Y-77879792D01*
X155480106Y-77879788D01*
X155480109Y-77879786D01*
X155603902Y-77709397D01*
X155605051Y-77707816D01*
X155701557Y-77518412D01*
X155767246Y-77316243D01*
X155800500Y-77106287D01*
X155800500Y-76893713D01*
X155767246Y-76683757D01*
X155701557Y-76481588D01*
X155605051Y-76292184D01*
X155605049Y-76292181D01*
X155605048Y-76292179D01*
X155480109Y-76120213D01*
X155329786Y-75969890D01*
X155157820Y-75844951D01*
X155157115Y-75844591D01*
X155149054Y-75840485D01*
X155098259Y-75792512D01*
X155081463Y-75724692D01*
X155103999Y-75658556D01*
X155149054Y-75619515D01*
X155157816Y-75615051D01*
X155179789Y-75599086D01*
X155329786Y-75490109D01*
X155329788Y-75490106D01*
X155329792Y-75490104D01*
X155480104Y-75339792D01*
X155480106Y-75339788D01*
X155480109Y-75339786D01*
X155605048Y-75167820D01*
X155605047Y-75167820D01*
X155605051Y-75167816D01*
X155701557Y-74978412D01*
X155767246Y-74776243D01*
X155800500Y-74566287D01*
X155800500Y-74353713D01*
X155767246Y-74143757D01*
X155701557Y-73941588D01*
X155605051Y-73752184D01*
X155605049Y-73752181D01*
X155605048Y-73752179D01*
X155480109Y-73580213D01*
X155329786Y-73429890D01*
X155157820Y-73304951D01*
X155157115Y-73304591D01*
X155149054Y-73300485D01*
X155098259Y-73252512D01*
X155081463Y-73184692D01*
X155103999Y-73118556D01*
X155149054Y-73079515D01*
X155157816Y-73075051D01*
X155198349Y-73045602D01*
X155329786Y-72950109D01*
X155329788Y-72950106D01*
X155329792Y-72950104D01*
X155480104Y-72799792D01*
X155480106Y-72799788D01*
X155480109Y-72799786D01*
X155605048Y-72627820D01*
X155605047Y-72627820D01*
X155605051Y-72627816D01*
X155701557Y-72438412D01*
X155767246Y-72236243D01*
X155800500Y-72026287D01*
X155800500Y-71813713D01*
X155767246Y-71603757D01*
X155701557Y-71401588D01*
X155605051Y-71212184D01*
X155605049Y-71212181D01*
X155605048Y-71212179D01*
X155480109Y-71040213D01*
X155366181Y-70926285D01*
X155332696Y-70864962D01*
X155337680Y-70795270D01*
X155379552Y-70739337D01*
X155410529Y-70722422D01*
X155542086Y-70673354D01*
X155542093Y-70673350D01*
X155657187Y-70587190D01*
X155657190Y-70587187D01*
X155743350Y-70472093D01*
X155743354Y-70472086D01*
X155793596Y-70337379D01*
X155793598Y-70337372D01*
X155799999Y-70277844D01*
X155800000Y-70277827D01*
X155800000Y-69630000D01*
X154883012Y-69630000D01*
X154915925Y-69572993D01*
X154950000Y-69445826D01*
X154950000Y-69314174D01*
X154915925Y-69187007D01*
X154883012Y-69130000D01*
X155800000Y-69130000D01*
X155800000Y-68482172D01*
X155799999Y-68482155D01*
X155793598Y-68422627D01*
X155793596Y-68422620D01*
X155743354Y-68287913D01*
X155743350Y-68287906D01*
X155657190Y-68172812D01*
X155657187Y-68172809D01*
X155542093Y-68086649D01*
X155542086Y-68086645D01*
X155407379Y-68036403D01*
X155407372Y-68036401D01*
X155347844Y-68030000D01*
X154700000Y-68030000D01*
X154700000Y-68946988D01*
X154642993Y-68914075D01*
X154515826Y-68880000D01*
X154384174Y-68880000D01*
X154257007Y-68914075D01*
X154200000Y-68946988D01*
X154200000Y-68030000D01*
X153552155Y-68030000D01*
X153492627Y-68036401D01*
X153492620Y-68036403D01*
X153357913Y-68086645D01*
X153357906Y-68086649D01*
X153242812Y-68172809D01*
X153242809Y-68172812D01*
X153156649Y-68287906D01*
X153156645Y-68287913D01*
X153106403Y-68422620D01*
X153106401Y-68422627D01*
X153100000Y-68482155D01*
X153100000Y-69130000D01*
X154016988Y-69130000D01*
X153984075Y-69187007D01*
X153950000Y-69314174D01*
X153950000Y-69445826D01*
X153984075Y-69572993D01*
X154016988Y-69630000D01*
X153100000Y-69630000D01*
X153100000Y-70277844D01*
X153106401Y-70337372D01*
X153106403Y-70337379D01*
X153156645Y-70472086D01*
X153156649Y-70472093D01*
X153242809Y-70587187D01*
X153242812Y-70587190D01*
X153357906Y-70673350D01*
X153357913Y-70673354D01*
X153489470Y-70722422D01*
X153545404Y-70764293D01*
X153569821Y-70829758D01*
X153554969Y-70898031D01*
X153533819Y-70926285D01*
X153419889Y-71040215D01*
X153294951Y-71212179D01*
X153198444Y-71401585D01*
X153132753Y-71603760D01*
X153099500Y-71813713D01*
X150233659Y-71813713D01*
X148364674Y-69944727D01*
X148364673Y-69944726D01*
X148364669Y-69944723D01*
X148258127Y-69873535D01*
X148139744Y-69824499D01*
X148139738Y-69824497D01*
X148014071Y-69799500D01*
X148014069Y-69799500D01*
X117804935Y-69799500D01*
X117737896Y-69779815D01*
X117736090Y-69778633D01*
X117679179Y-69740606D01*
X117679172Y-69740602D01*
X117533501Y-69680264D01*
X117533489Y-69680261D01*
X117378845Y-69649500D01*
X117378842Y-69649500D01*
X117221158Y-69649500D01*
X117221155Y-69649500D01*
X117066510Y-69680261D01*
X117066498Y-69680264D01*
X116920827Y-69740602D01*
X116920814Y-69740609D01*
X116789711Y-69828210D01*
X116789707Y-69828213D01*
X116678213Y-69939707D01*
X116678210Y-69939711D01*
X116590609Y-70070814D01*
X116590602Y-70070827D01*
X116530264Y-70216498D01*
X116530261Y-70216510D01*
X116499500Y-70371153D01*
X116499500Y-70528846D01*
X116530261Y-70683489D01*
X116530264Y-70683501D01*
X116590602Y-70829172D01*
X116590609Y-70829185D01*
X116681282Y-70964885D01*
X116702160Y-71031562D01*
X116683676Y-71098942D01*
X116647074Y-71136876D01*
X116635331Y-71144723D01*
X116635329Y-71144724D01*
X116635326Y-71144727D01*
X116635325Y-71144727D01*
X109094724Y-78685328D01*
X109042919Y-78762860D01*
X109042920Y-78762861D01*
X109023534Y-78791874D01*
X108974499Y-78910255D01*
X108974497Y-78910261D01*
X108949500Y-79035928D01*
X108949500Y-82745064D01*
X108929815Y-82812103D01*
X108928603Y-82813954D01*
X108890608Y-82870817D01*
X108890602Y-82870828D01*
X108830264Y-83016498D01*
X108830261Y-83016510D01*
X108799500Y-83171153D01*
X105600500Y-83171153D01*
X105600500Y-83021158D01*
X105600500Y-83021155D01*
X105600499Y-83021153D01*
X105569738Y-82866510D01*
X105569738Y-82866508D01*
X105569737Y-82866503D01*
X105537144Y-82787816D01*
X105509397Y-82720827D01*
X105509390Y-82720814D01*
X105421789Y-82589711D01*
X105421786Y-82589707D01*
X105310292Y-82478213D01*
X105310288Y-82478210D01*
X105179185Y-82390609D01*
X105179172Y-82390602D01*
X105033501Y-82330264D01*
X105033489Y-82330261D01*
X104878845Y-82299500D01*
X104878842Y-82299500D01*
X104721158Y-82299500D01*
X104721155Y-82299500D01*
X104566510Y-82330261D01*
X104566498Y-82330264D01*
X104420827Y-82390602D01*
X104420814Y-82390609D01*
X104289711Y-82478210D01*
X104289707Y-82478213D01*
X104178213Y-82589707D01*
X104178210Y-82589711D01*
X104090609Y-82720814D01*
X104090602Y-82720827D01*
X104030264Y-82866498D01*
X104030261Y-82866508D01*
X103999362Y-83021849D01*
X103966977Y-83083759D01*
X103965426Y-83085338D01*
X103587584Y-83463181D01*
X103526261Y-83496666D01*
X103499903Y-83499500D01*
X103129766Y-83499500D01*
X103062727Y-83479815D01*
X103060875Y-83478602D01*
X102929185Y-83390609D01*
X102929172Y-83390602D01*
X102783501Y-83330264D01*
X102783489Y-83330261D01*
X102628845Y-83299500D01*
X102628842Y-83299500D01*
X102471158Y-83299500D01*
X102471155Y-83299500D01*
X102316510Y-83330261D01*
X102316498Y-83330264D01*
X102170827Y-83390602D01*
X102170814Y-83390609D01*
X102039711Y-83478210D01*
X102039707Y-83478213D01*
X101928213Y-83589707D01*
X101928210Y-83589711D01*
X101840609Y-83720814D01*
X101840602Y-83720827D01*
X101780264Y-83866498D01*
X101780261Y-83866510D01*
X101749500Y-84021153D01*
X93900500Y-84021153D01*
X93900500Y-66474500D01*
X93920185Y-66407461D01*
X93972989Y-66361706D01*
X94024500Y-66350500D01*
X99199138Y-66350500D01*
X99266177Y-66370185D01*
G37*
%TD.AperFunction*%
%TD*%
M02*
