%TF.GenerationSoftware,KiCad,Pcbnew,9.0.2*%
%TF.CreationDate,2025-08-22T10:47:20-03:00*%
%TF.ProjectId,Projeto SIllion,50726f6a-6574-46f2-9053-496c6c696f6e,rev?*%
%TF.SameCoordinates,Original*%
%TF.FileFunction,Legend,Top*%
%TF.FilePolarity,Positive*%
%FSLAX46Y46*%
G04 Gerber Fmt 4.6, Leading zero omitted, Abs format (unit mm)*
G04 Created by KiCad (PCBNEW 9.0.2) date 2025-08-22 10:47:20*
%MOMM*%
%LPD*%
G01*
G04 APERTURE LIST*
%ADD10C,0.150000*%
%ADD11C,0.120000*%
G04 APERTURE END LIST*
D10*
X138483333Y-99709580D02*
X138435714Y-99757200D01*
X138435714Y-99757200D02*
X138292857Y-99804819D01*
X138292857Y-99804819D02*
X138197619Y-99804819D01*
X138197619Y-99804819D02*
X138054762Y-99757200D01*
X138054762Y-99757200D02*
X137959524Y-99661961D01*
X137959524Y-99661961D02*
X137911905Y-99566723D01*
X137911905Y-99566723D02*
X137864286Y-99376247D01*
X137864286Y-99376247D02*
X137864286Y-99233390D01*
X137864286Y-99233390D02*
X137911905Y-99042914D01*
X137911905Y-99042914D02*
X137959524Y-98947676D01*
X137959524Y-98947676D02*
X138054762Y-98852438D01*
X138054762Y-98852438D02*
X138197619Y-98804819D01*
X138197619Y-98804819D02*
X138292857Y-98804819D01*
X138292857Y-98804819D02*
X138435714Y-98852438D01*
X138435714Y-98852438D02*
X138483333Y-98900057D01*
X138816667Y-98804819D02*
X139483333Y-98804819D01*
X139483333Y-98804819D02*
X139054762Y-99804819D01*
X151216666Y-67704819D02*
X151216666Y-68419104D01*
X151216666Y-68419104D02*
X151169047Y-68561961D01*
X151169047Y-68561961D02*
X151073809Y-68657200D01*
X151073809Y-68657200D02*
X150930952Y-68704819D01*
X150930952Y-68704819D02*
X150835714Y-68704819D01*
X152121428Y-67704819D02*
X151930952Y-67704819D01*
X151930952Y-67704819D02*
X151835714Y-67752438D01*
X151835714Y-67752438D02*
X151788095Y-67800057D01*
X151788095Y-67800057D02*
X151692857Y-67942914D01*
X151692857Y-67942914D02*
X151645238Y-68133390D01*
X151645238Y-68133390D02*
X151645238Y-68514342D01*
X151645238Y-68514342D02*
X151692857Y-68609580D01*
X151692857Y-68609580D02*
X151740476Y-68657200D01*
X151740476Y-68657200D02*
X151835714Y-68704819D01*
X151835714Y-68704819D02*
X152026190Y-68704819D01*
X152026190Y-68704819D02*
X152121428Y-68657200D01*
X152121428Y-68657200D02*
X152169047Y-68609580D01*
X152169047Y-68609580D02*
X152216666Y-68514342D01*
X152216666Y-68514342D02*
X152216666Y-68276247D01*
X152216666Y-68276247D02*
X152169047Y-68181009D01*
X152169047Y-68181009D02*
X152121428Y-68133390D01*
X152121428Y-68133390D02*
X152026190Y-68085771D01*
X152026190Y-68085771D02*
X151835714Y-68085771D01*
X151835714Y-68085771D02*
X151740476Y-68133390D01*
X151740476Y-68133390D02*
X151692857Y-68181009D01*
X151692857Y-68181009D02*
X151645238Y-68276247D01*
X128857142Y-110879580D02*
X128809523Y-110927200D01*
X128809523Y-110927200D02*
X128666666Y-110974819D01*
X128666666Y-110974819D02*
X128571428Y-110974819D01*
X128571428Y-110974819D02*
X128428571Y-110927200D01*
X128428571Y-110927200D02*
X128333333Y-110831961D01*
X128333333Y-110831961D02*
X128285714Y-110736723D01*
X128285714Y-110736723D02*
X128238095Y-110546247D01*
X128238095Y-110546247D02*
X128238095Y-110403390D01*
X128238095Y-110403390D02*
X128285714Y-110212914D01*
X128285714Y-110212914D02*
X128333333Y-110117676D01*
X128333333Y-110117676D02*
X128428571Y-110022438D01*
X128428571Y-110022438D02*
X128571428Y-109974819D01*
X128571428Y-109974819D02*
X128666666Y-109974819D01*
X128666666Y-109974819D02*
X128809523Y-110022438D01*
X128809523Y-110022438D02*
X128857142Y-110070057D01*
X129238095Y-110070057D02*
X129285714Y-110022438D01*
X129285714Y-110022438D02*
X129380952Y-109974819D01*
X129380952Y-109974819D02*
X129619047Y-109974819D01*
X129619047Y-109974819D02*
X129714285Y-110022438D01*
X129714285Y-110022438D02*
X129761904Y-110070057D01*
X129761904Y-110070057D02*
X129809523Y-110165295D01*
X129809523Y-110165295D02*
X129809523Y-110260533D01*
X129809523Y-110260533D02*
X129761904Y-110403390D01*
X129761904Y-110403390D02*
X129190476Y-110974819D01*
X129190476Y-110974819D02*
X129809523Y-110974819D01*
X130714285Y-109974819D02*
X130238095Y-109974819D01*
X130238095Y-109974819D02*
X130190476Y-110451009D01*
X130190476Y-110451009D02*
X130238095Y-110403390D01*
X130238095Y-110403390D02*
X130333333Y-110355771D01*
X130333333Y-110355771D02*
X130571428Y-110355771D01*
X130571428Y-110355771D02*
X130666666Y-110403390D01*
X130666666Y-110403390D02*
X130714285Y-110451009D01*
X130714285Y-110451009D02*
X130761904Y-110546247D01*
X130761904Y-110546247D02*
X130761904Y-110784342D01*
X130761904Y-110784342D02*
X130714285Y-110879580D01*
X130714285Y-110879580D02*
X130666666Y-110927200D01*
X130666666Y-110927200D02*
X130571428Y-110974819D01*
X130571428Y-110974819D02*
X130333333Y-110974819D01*
X130333333Y-110974819D02*
X130238095Y-110927200D01*
X130238095Y-110927200D02*
X130190476Y-110879580D01*
X127157142Y-106179580D02*
X127109523Y-106227200D01*
X127109523Y-106227200D02*
X126966666Y-106274819D01*
X126966666Y-106274819D02*
X126871428Y-106274819D01*
X126871428Y-106274819D02*
X126728571Y-106227200D01*
X126728571Y-106227200D02*
X126633333Y-106131961D01*
X126633333Y-106131961D02*
X126585714Y-106036723D01*
X126585714Y-106036723D02*
X126538095Y-105846247D01*
X126538095Y-105846247D02*
X126538095Y-105703390D01*
X126538095Y-105703390D02*
X126585714Y-105512914D01*
X126585714Y-105512914D02*
X126633333Y-105417676D01*
X126633333Y-105417676D02*
X126728571Y-105322438D01*
X126728571Y-105322438D02*
X126871428Y-105274819D01*
X126871428Y-105274819D02*
X126966666Y-105274819D01*
X126966666Y-105274819D02*
X127109523Y-105322438D01*
X127109523Y-105322438D02*
X127157142Y-105370057D01*
X128109523Y-106274819D02*
X127538095Y-106274819D01*
X127823809Y-106274819D02*
X127823809Y-105274819D01*
X127823809Y-105274819D02*
X127728571Y-105417676D01*
X127728571Y-105417676D02*
X127633333Y-105512914D01*
X127633333Y-105512914D02*
X127538095Y-105560533D01*
X129061904Y-106274819D02*
X128490476Y-106274819D01*
X128776190Y-106274819D02*
X128776190Y-105274819D01*
X128776190Y-105274819D02*
X128680952Y-105417676D01*
X128680952Y-105417676D02*
X128585714Y-105512914D01*
X128585714Y-105512914D02*
X128490476Y-105560533D01*
X108738095Y-95904819D02*
X108738095Y-96714342D01*
X108738095Y-96714342D02*
X108785714Y-96809580D01*
X108785714Y-96809580D02*
X108833333Y-96857200D01*
X108833333Y-96857200D02*
X108928571Y-96904819D01*
X108928571Y-96904819D02*
X109119047Y-96904819D01*
X109119047Y-96904819D02*
X109214285Y-96857200D01*
X109214285Y-96857200D02*
X109261904Y-96809580D01*
X109261904Y-96809580D02*
X109309523Y-96714342D01*
X109309523Y-96714342D02*
X109309523Y-95904819D01*
X110261904Y-95904819D02*
X109785714Y-95904819D01*
X109785714Y-95904819D02*
X109738095Y-96381009D01*
X109738095Y-96381009D02*
X109785714Y-96333390D01*
X109785714Y-96333390D02*
X109880952Y-96285771D01*
X109880952Y-96285771D02*
X110119047Y-96285771D01*
X110119047Y-96285771D02*
X110214285Y-96333390D01*
X110214285Y-96333390D02*
X110261904Y-96381009D01*
X110261904Y-96381009D02*
X110309523Y-96476247D01*
X110309523Y-96476247D02*
X110309523Y-96714342D01*
X110309523Y-96714342D02*
X110261904Y-96809580D01*
X110261904Y-96809580D02*
X110214285Y-96857200D01*
X110214285Y-96857200D02*
X110119047Y-96904819D01*
X110119047Y-96904819D02*
X109880952Y-96904819D01*
X109880952Y-96904819D02*
X109785714Y-96857200D01*
X109785714Y-96857200D02*
X109738095Y-96809580D01*
X138007142Y-103604819D02*
X137673809Y-103128628D01*
X137435714Y-103604819D02*
X137435714Y-102604819D01*
X137435714Y-102604819D02*
X137816666Y-102604819D01*
X137816666Y-102604819D02*
X137911904Y-102652438D01*
X137911904Y-102652438D02*
X137959523Y-102700057D01*
X137959523Y-102700057D02*
X138007142Y-102795295D01*
X138007142Y-102795295D02*
X138007142Y-102938152D01*
X138007142Y-102938152D02*
X137959523Y-103033390D01*
X137959523Y-103033390D02*
X137911904Y-103081009D01*
X137911904Y-103081009D02*
X137816666Y-103128628D01*
X137816666Y-103128628D02*
X137435714Y-103128628D01*
X138959523Y-103604819D02*
X138388095Y-103604819D01*
X138673809Y-103604819D02*
X138673809Y-102604819D01*
X138673809Y-102604819D02*
X138578571Y-102747676D01*
X138578571Y-102747676D02*
X138483333Y-102842914D01*
X138483333Y-102842914D02*
X138388095Y-102890533D01*
X139578571Y-102604819D02*
X139673809Y-102604819D01*
X139673809Y-102604819D02*
X139769047Y-102652438D01*
X139769047Y-102652438D02*
X139816666Y-102700057D01*
X139816666Y-102700057D02*
X139864285Y-102795295D01*
X139864285Y-102795295D02*
X139911904Y-102985771D01*
X139911904Y-102985771D02*
X139911904Y-103223866D01*
X139911904Y-103223866D02*
X139864285Y-103414342D01*
X139864285Y-103414342D02*
X139816666Y-103509580D01*
X139816666Y-103509580D02*
X139769047Y-103557200D01*
X139769047Y-103557200D02*
X139673809Y-103604819D01*
X139673809Y-103604819D02*
X139578571Y-103604819D01*
X139578571Y-103604819D02*
X139483333Y-103557200D01*
X139483333Y-103557200D02*
X139435714Y-103509580D01*
X139435714Y-103509580D02*
X139388095Y-103414342D01*
X139388095Y-103414342D02*
X139340476Y-103223866D01*
X139340476Y-103223866D02*
X139340476Y-102985771D01*
X139340476Y-102985771D02*
X139388095Y-102795295D01*
X139388095Y-102795295D02*
X139435714Y-102700057D01*
X139435714Y-102700057D02*
X139483333Y-102652438D01*
X139483333Y-102652438D02*
X139578571Y-102604819D01*
X111657200Y-75633332D02*
X111704819Y-75490475D01*
X111704819Y-75490475D02*
X111704819Y-75252380D01*
X111704819Y-75252380D02*
X111657200Y-75157142D01*
X111657200Y-75157142D02*
X111609580Y-75109523D01*
X111609580Y-75109523D02*
X111514342Y-75061904D01*
X111514342Y-75061904D02*
X111419104Y-75061904D01*
X111419104Y-75061904D02*
X111323866Y-75109523D01*
X111323866Y-75109523D02*
X111276247Y-75157142D01*
X111276247Y-75157142D02*
X111228628Y-75252380D01*
X111228628Y-75252380D02*
X111181009Y-75442856D01*
X111181009Y-75442856D02*
X111133390Y-75538094D01*
X111133390Y-75538094D02*
X111085771Y-75585713D01*
X111085771Y-75585713D02*
X110990533Y-75633332D01*
X110990533Y-75633332D02*
X110895295Y-75633332D01*
X110895295Y-75633332D02*
X110800057Y-75585713D01*
X110800057Y-75585713D02*
X110752438Y-75538094D01*
X110752438Y-75538094D02*
X110704819Y-75442856D01*
X110704819Y-75442856D02*
X110704819Y-75204761D01*
X110704819Y-75204761D02*
X110752438Y-75061904D01*
X110704819Y-74728570D02*
X111704819Y-74490475D01*
X111704819Y-74490475D02*
X110990533Y-74299999D01*
X110990533Y-74299999D02*
X111704819Y-74109523D01*
X111704819Y-74109523D02*
X110704819Y-73871428D01*
X110800057Y-73538094D02*
X110752438Y-73490475D01*
X110752438Y-73490475D02*
X110704819Y-73395237D01*
X110704819Y-73395237D02*
X110704819Y-73157142D01*
X110704819Y-73157142D02*
X110752438Y-73061904D01*
X110752438Y-73061904D02*
X110800057Y-73014285D01*
X110800057Y-73014285D02*
X110895295Y-72966666D01*
X110895295Y-72966666D02*
X110990533Y-72966666D01*
X110990533Y-72966666D02*
X111133390Y-73014285D01*
X111133390Y-73014285D02*
X111704819Y-73585713D01*
X111704819Y-73585713D02*
X111704819Y-72966666D01*
X142888095Y-109604819D02*
X142888095Y-110414342D01*
X142888095Y-110414342D02*
X142935714Y-110509580D01*
X142935714Y-110509580D02*
X142983333Y-110557200D01*
X142983333Y-110557200D02*
X143078571Y-110604819D01*
X143078571Y-110604819D02*
X143269047Y-110604819D01*
X143269047Y-110604819D02*
X143364285Y-110557200D01*
X143364285Y-110557200D02*
X143411904Y-110509580D01*
X143411904Y-110509580D02*
X143459523Y-110414342D01*
X143459523Y-110414342D02*
X143459523Y-109604819D01*
X143840476Y-109604819D02*
X144507142Y-109604819D01*
X144507142Y-109604819D02*
X144078571Y-110604819D01*
X106144642Y-69804819D02*
X105811309Y-69328628D01*
X105573214Y-69804819D02*
X105573214Y-68804819D01*
X105573214Y-68804819D02*
X105954166Y-68804819D01*
X105954166Y-68804819D02*
X106049404Y-68852438D01*
X106049404Y-68852438D02*
X106097023Y-68900057D01*
X106097023Y-68900057D02*
X106144642Y-68995295D01*
X106144642Y-68995295D02*
X106144642Y-69138152D01*
X106144642Y-69138152D02*
X106097023Y-69233390D01*
X106097023Y-69233390D02*
X106049404Y-69281009D01*
X106049404Y-69281009D02*
X105954166Y-69328628D01*
X105954166Y-69328628D02*
X105573214Y-69328628D01*
X106525595Y-68900057D02*
X106573214Y-68852438D01*
X106573214Y-68852438D02*
X106668452Y-68804819D01*
X106668452Y-68804819D02*
X106906547Y-68804819D01*
X106906547Y-68804819D02*
X107001785Y-68852438D01*
X107001785Y-68852438D02*
X107049404Y-68900057D01*
X107049404Y-68900057D02*
X107097023Y-68995295D01*
X107097023Y-68995295D02*
X107097023Y-69090533D01*
X107097023Y-69090533D02*
X107049404Y-69233390D01*
X107049404Y-69233390D02*
X106477976Y-69804819D01*
X106477976Y-69804819D02*
X107097023Y-69804819D01*
X107430357Y-68804819D02*
X108097023Y-68804819D01*
X108097023Y-68804819D02*
X107668452Y-69804819D01*
X138007142Y-91904819D02*
X137673809Y-91428628D01*
X137435714Y-91904819D02*
X137435714Y-90904819D01*
X137435714Y-90904819D02*
X137816666Y-90904819D01*
X137816666Y-90904819D02*
X137911904Y-90952438D01*
X137911904Y-90952438D02*
X137959523Y-91000057D01*
X137959523Y-91000057D02*
X138007142Y-91095295D01*
X138007142Y-91095295D02*
X138007142Y-91238152D01*
X138007142Y-91238152D02*
X137959523Y-91333390D01*
X137959523Y-91333390D02*
X137911904Y-91381009D01*
X137911904Y-91381009D02*
X137816666Y-91428628D01*
X137816666Y-91428628D02*
X137435714Y-91428628D01*
X138959523Y-91904819D02*
X138388095Y-91904819D01*
X138673809Y-91904819D02*
X138673809Y-90904819D01*
X138673809Y-90904819D02*
X138578571Y-91047676D01*
X138578571Y-91047676D02*
X138483333Y-91142914D01*
X138483333Y-91142914D02*
X138388095Y-91190533D01*
X139816666Y-91238152D02*
X139816666Y-91904819D01*
X139578571Y-90857200D02*
X139340476Y-91571485D01*
X139340476Y-91571485D02*
X139959523Y-91571485D01*
X146661905Y-97604819D02*
X146661905Y-96604819D01*
X146661905Y-96604819D02*
X146900000Y-96604819D01*
X146900000Y-96604819D02*
X147042857Y-96652438D01*
X147042857Y-96652438D02*
X147138095Y-96747676D01*
X147138095Y-96747676D02*
X147185714Y-96842914D01*
X147185714Y-96842914D02*
X147233333Y-97033390D01*
X147233333Y-97033390D02*
X147233333Y-97176247D01*
X147233333Y-97176247D02*
X147185714Y-97366723D01*
X147185714Y-97366723D02*
X147138095Y-97461961D01*
X147138095Y-97461961D02*
X147042857Y-97557200D01*
X147042857Y-97557200D02*
X146900000Y-97604819D01*
X146900000Y-97604819D02*
X146661905Y-97604819D01*
X148185714Y-97604819D02*
X147614286Y-97604819D01*
X147900000Y-97604819D02*
X147900000Y-96604819D01*
X147900000Y-96604819D02*
X147804762Y-96747676D01*
X147804762Y-96747676D02*
X147709524Y-96842914D01*
X147709524Y-96842914D02*
X147614286Y-96890533D01*
X131070833Y-100354819D02*
X130737500Y-99878628D01*
X130499405Y-100354819D02*
X130499405Y-99354819D01*
X130499405Y-99354819D02*
X130880357Y-99354819D01*
X130880357Y-99354819D02*
X130975595Y-99402438D01*
X130975595Y-99402438D02*
X131023214Y-99450057D01*
X131023214Y-99450057D02*
X131070833Y-99545295D01*
X131070833Y-99545295D02*
X131070833Y-99688152D01*
X131070833Y-99688152D02*
X131023214Y-99783390D01*
X131023214Y-99783390D02*
X130975595Y-99831009D01*
X130975595Y-99831009D02*
X130880357Y-99878628D01*
X130880357Y-99878628D02*
X130499405Y-99878628D01*
X131547024Y-100354819D02*
X131737500Y-100354819D01*
X131737500Y-100354819D02*
X131832738Y-100307200D01*
X131832738Y-100307200D02*
X131880357Y-100259580D01*
X131880357Y-100259580D02*
X131975595Y-100116723D01*
X131975595Y-100116723D02*
X132023214Y-99926247D01*
X132023214Y-99926247D02*
X132023214Y-99545295D01*
X132023214Y-99545295D02*
X131975595Y-99450057D01*
X131975595Y-99450057D02*
X131927976Y-99402438D01*
X131927976Y-99402438D02*
X131832738Y-99354819D01*
X131832738Y-99354819D02*
X131642262Y-99354819D01*
X131642262Y-99354819D02*
X131547024Y-99402438D01*
X131547024Y-99402438D02*
X131499405Y-99450057D01*
X131499405Y-99450057D02*
X131451786Y-99545295D01*
X131451786Y-99545295D02*
X131451786Y-99783390D01*
X131451786Y-99783390D02*
X131499405Y-99878628D01*
X131499405Y-99878628D02*
X131547024Y-99926247D01*
X131547024Y-99926247D02*
X131642262Y-99973866D01*
X131642262Y-99973866D02*
X131832738Y-99973866D01*
X131832738Y-99973866D02*
X131927976Y-99926247D01*
X131927976Y-99926247D02*
X131975595Y-99878628D01*
X131975595Y-99878628D02*
X132023214Y-99783390D01*
X146954761Y-86537557D02*
X146859523Y-86489938D01*
X146859523Y-86489938D02*
X146764285Y-86394700D01*
X146764285Y-86394700D02*
X146621428Y-86251842D01*
X146621428Y-86251842D02*
X146526190Y-86204223D01*
X146526190Y-86204223D02*
X146430952Y-86204223D01*
X146478571Y-86442319D02*
X146383333Y-86394700D01*
X146383333Y-86394700D02*
X146288095Y-86299461D01*
X146288095Y-86299461D02*
X146240476Y-86108985D01*
X146240476Y-86108985D02*
X146240476Y-85775652D01*
X146240476Y-85775652D02*
X146288095Y-85585176D01*
X146288095Y-85585176D02*
X146383333Y-85489938D01*
X146383333Y-85489938D02*
X146478571Y-85442319D01*
X146478571Y-85442319D02*
X146669047Y-85442319D01*
X146669047Y-85442319D02*
X146764285Y-85489938D01*
X146764285Y-85489938D02*
X146859523Y-85585176D01*
X146859523Y-85585176D02*
X146907142Y-85775652D01*
X146907142Y-85775652D02*
X146907142Y-86108985D01*
X146907142Y-86108985D02*
X146859523Y-86299461D01*
X146859523Y-86299461D02*
X146764285Y-86394700D01*
X146764285Y-86394700D02*
X146669047Y-86442319D01*
X146669047Y-86442319D02*
X146478571Y-86442319D01*
X147240476Y-85442319D02*
X147859523Y-85442319D01*
X147859523Y-85442319D02*
X147526190Y-85823271D01*
X147526190Y-85823271D02*
X147669047Y-85823271D01*
X147669047Y-85823271D02*
X147764285Y-85870890D01*
X147764285Y-85870890D02*
X147811904Y-85918509D01*
X147811904Y-85918509D02*
X147859523Y-86013747D01*
X147859523Y-86013747D02*
X147859523Y-86251842D01*
X147859523Y-86251842D02*
X147811904Y-86347080D01*
X147811904Y-86347080D02*
X147764285Y-86394700D01*
X147764285Y-86394700D02*
X147669047Y-86442319D01*
X147669047Y-86442319D02*
X147383333Y-86442319D01*
X147383333Y-86442319D02*
X147288095Y-86394700D01*
X147288095Y-86394700D02*
X147240476Y-86347080D01*
X109507142Y-71759580D02*
X109459523Y-71807200D01*
X109459523Y-71807200D02*
X109316666Y-71854819D01*
X109316666Y-71854819D02*
X109221428Y-71854819D01*
X109221428Y-71854819D02*
X109078571Y-71807200D01*
X109078571Y-71807200D02*
X108983333Y-71711961D01*
X108983333Y-71711961D02*
X108935714Y-71616723D01*
X108935714Y-71616723D02*
X108888095Y-71426247D01*
X108888095Y-71426247D02*
X108888095Y-71283390D01*
X108888095Y-71283390D02*
X108935714Y-71092914D01*
X108935714Y-71092914D02*
X108983333Y-70997676D01*
X108983333Y-70997676D02*
X109078571Y-70902438D01*
X109078571Y-70902438D02*
X109221428Y-70854819D01*
X109221428Y-70854819D02*
X109316666Y-70854819D01*
X109316666Y-70854819D02*
X109459523Y-70902438D01*
X109459523Y-70902438D02*
X109507142Y-70950057D01*
X109840476Y-70854819D02*
X110459523Y-70854819D01*
X110459523Y-70854819D02*
X110126190Y-71235771D01*
X110126190Y-71235771D02*
X110269047Y-71235771D01*
X110269047Y-71235771D02*
X110364285Y-71283390D01*
X110364285Y-71283390D02*
X110411904Y-71331009D01*
X110411904Y-71331009D02*
X110459523Y-71426247D01*
X110459523Y-71426247D02*
X110459523Y-71664342D01*
X110459523Y-71664342D02*
X110411904Y-71759580D01*
X110411904Y-71759580D02*
X110364285Y-71807200D01*
X110364285Y-71807200D02*
X110269047Y-71854819D01*
X110269047Y-71854819D02*
X109983333Y-71854819D01*
X109983333Y-71854819D02*
X109888095Y-71807200D01*
X109888095Y-71807200D02*
X109840476Y-71759580D01*
X111316666Y-70854819D02*
X111126190Y-70854819D01*
X111126190Y-70854819D02*
X111030952Y-70902438D01*
X111030952Y-70902438D02*
X110983333Y-70950057D01*
X110983333Y-70950057D02*
X110888095Y-71092914D01*
X110888095Y-71092914D02*
X110840476Y-71283390D01*
X110840476Y-71283390D02*
X110840476Y-71664342D01*
X110840476Y-71664342D02*
X110888095Y-71759580D01*
X110888095Y-71759580D02*
X110935714Y-71807200D01*
X110935714Y-71807200D02*
X111030952Y-71854819D01*
X111030952Y-71854819D02*
X111221428Y-71854819D01*
X111221428Y-71854819D02*
X111316666Y-71807200D01*
X111316666Y-71807200D02*
X111364285Y-71759580D01*
X111364285Y-71759580D02*
X111411904Y-71664342D01*
X111411904Y-71664342D02*
X111411904Y-71426247D01*
X111411904Y-71426247D02*
X111364285Y-71331009D01*
X111364285Y-71331009D02*
X111316666Y-71283390D01*
X111316666Y-71283390D02*
X111221428Y-71235771D01*
X111221428Y-71235771D02*
X111030952Y-71235771D01*
X111030952Y-71235771D02*
X110935714Y-71283390D01*
X110935714Y-71283390D02*
X110888095Y-71331009D01*
X110888095Y-71331009D02*
X110840476Y-71426247D01*
X111638095Y-83604819D02*
X111638095Y-84414342D01*
X111638095Y-84414342D02*
X111685714Y-84509580D01*
X111685714Y-84509580D02*
X111733333Y-84557200D01*
X111733333Y-84557200D02*
X111828571Y-84604819D01*
X111828571Y-84604819D02*
X112019047Y-84604819D01*
X112019047Y-84604819D02*
X112114285Y-84557200D01*
X112114285Y-84557200D02*
X112161904Y-84509580D01*
X112161904Y-84509580D02*
X112209523Y-84414342D01*
X112209523Y-84414342D02*
X112209523Y-83604819D01*
X112828571Y-84033390D02*
X112733333Y-83985771D01*
X112733333Y-83985771D02*
X112685714Y-83938152D01*
X112685714Y-83938152D02*
X112638095Y-83842914D01*
X112638095Y-83842914D02*
X112638095Y-83795295D01*
X112638095Y-83795295D02*
X112685714Y-83700057D01*
X112685714Y-83700057D02*
X112733333Y-83652438D01*
X112733333Y-83652438D02*
X112828571Y-83604819D01*
X112828571Y-83604819D02*
X113019047Y-83604819D01*
X113019047Y-83604819D02*
X113114285Y-83652438D01*
X113114285Y-83652438D02*
X113161904Y-83700057D01*
X113161904Y-83700057D02*
X113209523Y-83795295D01*
X113209523Y-83795295D02*
X113209523Y-83842914D01*
X113209523Y-83842914D02*
X113161904Y-83938152D01*
X113161904Y-83938152D02*
X113114285Y-83985771D01*
X113114285Y-83985771D02*
X113019047Y-84033390D01*
X113019047Y-84033390D02*
X112828571Y-84033390D01*
X112828571Y-84033390D02*
X112733333Y-84081009D01*
X112733333Y-84081009D02*
X112685714Y-84128628D01*
X112685714Y-84128628D02*
X112638095Y-84223866D01*
X112638095Y-84223866D02*
X112638095Y-84414342D01*
X112638095Y-84414342D02*
X112685714Y-84509580D01*
X112685714Y-84509580D02*
X112733333Y-84557200D01*
X112733333Y-84557200D02*
X112828571Y-84604819D01*
X112828571Y-84604819D02*
X113019047Y-84604819D01*
X113019047Y-84604819D02*
X113114285Y-84557200D01*
X113114285Y-84557200D02*
X113161904Y-84509580D01*
X113161904Y-84509580D02*
X113209523Y-84414342D01*
X113209523Y-84414342D02*
X113209523Y-84223866D01*
X113209523Y-84223866D02*
X113161904Y-84128628D01*
X113161904Y-84128628D02*
X113114285Y-84081009D01*
X113114285Y-84081009D02*
X113019047Y-84033390D01*
X135033333Y-97709580D02*
X134985714Y-97757200D01*
X134985714Y-97757200D02*
X134842857Y-97804819D01*
X134842857Y-97804819D02*
X134747619Y-97804819D01*
X134747619Y-97804819D02*
X134604762Y-97757200D01*
X134604762Y-97757200D02*
X134509524Y-97661961D01*
X134509524Y-97661961D02*
X134461905Y-97566723D01*
X134461905Y-97566723D02*
X134414286Y-97376247D01*
X134414286Y-97376247D02*
X134414286Y-97233390D01*
X134414286Y-97233390D02*
X134461905Y-97042914D01*
X134461905Y-97042914D02*
X134509524Y-96947676D01*
X134509524Y-96947676D02*
X134604762Y-96852438D01*
X134604762Y-96852438D02*
X134747619Y-96804819D01*
X134747619Y-96804819D02*
X134842857Y-96804819D01*
X134842857Y-96804819D02*
X134985714Y-96852438D01*
X134985714Y-96852438D02*
X135033333Y-96900057D01*
X135890476Y-96804819D02*
X135700000Y-96804819D01*
X135700000Y-96804819D02*
X135604762Y-96852438D01*
X135604762Y-96852438D02*
X135557143Y-96900057D01*
X135557143Y-96900057D02*
X135461905Y-97042914D01*
X135461905Y-97042914D02*
X135414286Y-97233390D01*
X135414286Y-97233390D02*
X135414286Y-97614342D01*
X135414286Y-97614342D02*
X135461905Y-97709580D01*
X135461905Y-97709580D02*
X135509524Y-97757200D01*
X135509524Y-97757200D02*
X135604762Y-97804819D01*
X135604762Y-97804819D02*
X135795238Y-97804819D01*
X135795238Y-97804819D02*
X135890476Y-97757200D01*
X135890476Y-97757200D02*
X135938095Y-97709580D01*
X135938095Y-97709580D02*
X135985714Y-97614342D01*
X135985714Y-97614342D02*
X135985714Y-97376247D01*
X135985714Y-97376247D02*
X135938095Y-97281009D01*
X135938095Y-97281009D02*
X135890476Y-97233390D01*
X135890476Y-97233390D02*
X135795238Y-97185771D01*
X135795238Y-97185771D02*
X135604762Y-97185771D01*
X135604762Y-97185771D02*
X135509524Y-97233390D01*
X135509524Y-97233390D02*
X135461905Y-97281009D01*
X135461905Y-97281009D02*
X135414286Y-97376247D01*
X134307142Y-109309580D02*
X134259523Y-109357200D01*
X134259523Y-109357200D02*
X134116666Y-109404819D01*
X134116666Y-109404819D02*
X134021428Y-109404819D01*
X134021428Y-109404819D02*
X133878571Y-109357200D01*
X133878571Y-109357200D02*
X133783333Y-109261961D01*
X133783333Y-109261961D02*
X133735714Y-109166723D01*
X133735714Y-109166723D02*
X133688095Y-108976247D01*
X133688095Y-108976247D02*
X133688095Y-108833390D01*
X133688095Y-108833390D02*
X133735714Y-108642914D01*
X133735714Y-108642914D02*
X133783333Y-108547676D01*
X133783333Y-108547676D02*
X133878571Y-108452438D01*
X133878571Y-108452438D02*
X134021428Y-108404819D01*
X134021428Y-108404819D02*
X134116666Y-108404819D01*
X134116666Y-108404819D02*
X134259523Y-108452438D01*
X134259523Y-108452438D02*
X134307142Y-108500057D01*
X135259523Y-109404819D02*
X134688095Y-109404819D01*
X134973809Y-109404819D02*
X134973809Y-108404819D01*
X134973809Y-108404819D02*
X134878571Y-108547676D01*
X134878571Y-108547676D02*
X134783333Y-108642914D01*
X134783333Y-108642914D02*
X134688095Y-108690533D01*
X135640476Y-108500057D02*
X135688095Y-108452438D01*
X135688095Y-108452438D02*
X135783333Y-108404819D01*
X135783333Y-108404819D02*
X136021428Y-108404819D01*
X136021428Y-108404819D02*
X136116666Y-108452438D01*
X136116666Y-108452438D02*
X136164285Y-108500057D01*
X136164285Y-108500057D02*
X136211904Y-108595295D01*
X136211904Y-108595295D02*
X136211904Y-108690533D01*
X136211904Y-108690533D02*
X136164285Y-108833390D01*
X136164285Y-108833390D02*
X135592857Y-109404819D01*
X135592857Y-109404819D02*
X136211904Y-109404819D01*
X112483333Y-116604819D02*
X112007143Y-116604819D01*
X112007143Y-116604819D02*
X112007143Y-115604819D01*
X113340476Y-116604819D02*
X112769048Y-116604819D01*
X113054762Y-116604819D02*
X113054762Y-115604819D01*
X113054762Y-115604819D02*
X112959524Y-115747676D01*
X112959524Y-115747676D02*
X112864286Y-115842914D01*
X112864286Y-115842914D02*
X112769048Y-115890533D01*
X99638095Y-78756819D02*
X100209523Y-78756819D01*
X99923809Y-79756819D02*
X99923809Y-78756819D01*
X100542857Y-79756819D02*
X100542857Y-78756819D01*
X100542857Y-78756819D02*
X100923809Y-78756819D01*
X100923809Y-78756819D02*
X101019047Y-78804438D01*
X101019047Y-78804438D02*
X101066666Y-78852057D01*
X101066666Y-78852057D02*
X101114285Y-78947295D01*
X101114285Y-78947295D02*
X101114285Y-79090152D01*
X101114285Y-79090152D02*
X101066666Y-79185390D01*
X101066666Y-79185390D02*
X101019047Y-79233009D01*
X101019047Y-79233009D02*
X100923809Y-79280628D01*
X100923809Y-79280628D02*
X100542857Y-79280628D01*
X101447619Y-78756819D02*
X102066666Y-78756819D01*
X102066666Y-78756819D02*
X101733333Y-79137771D01*
X101733333Y-79137771D02*
X101876190Y-79137771D01*
X101876190Y-79137771D02*
X101971428Y-79185390D01*
X101971428Y-79185390D02*
X102019047Y-79233009D01*
X102019047Y-79233009D02*
X102066666Y-79328247D01*
X102066666Y-79328247D02*
X102066666Y-79566342D01*
X102066666Y-79566342D02*
X102019047Y-79661580D01*
X102019047Y-79661580D02*
X101971428Y-79709200D01*
X101971428Y-79709200D02*
X101876190Y-79756819D01*
X101876190Y-79756819D02*
X101590476Y-79756819D01*
X101590476Y-79756819D02*
X101495238Y-79709200D01*
X101495238Y-79709200D02*
X101447619Y-79661580D01*
X146661905Y-105904819D02*
X146661905Y-104904819D01*
X146661905Y-104904819D02*
X146900000Y-104904819D01*
X146900000Y-104904819D02*
X147042857Y-104952438D01*
X147042857Y-104952438D02*
X147138095Y-105047676D01*
X147138095Y-105047676D02*
X147185714Y-105142914D01*
X147185714Y-105142914D02*
X147233333Y-105333390D01*
X147233333Y-105333390D02*
X147233333Y-105476247D01*
X147233333Y-105476247D02*
X147185714Y-105666723D01*
X147185714Y-105666723D02*
X147138095Y-105761961D01*
X147138095Y-105761961D02*
X147042857Y-105857200D01*
X147042857Y-105857200D02*
X146900000Y-105904819D01*
X146900000Y-105904819D02*
X146661905Y-105904819D01*
X147709524Y-105904819D02*
X147900000Y-105904819D01*
X147900000Y-105904819D02*
X147995238Y-105857200D01*
X147995238Y-105857200D02*
X148042857Y-105809580D01*
X148042857Y-105809580D02*
X148138095Y-105666723D01*
X148138095Y-105666723D02*
X148185714Y-105476247D01*
X148185714Y-105476247D02*
X148185714Y-105095295D01*
X148185714Y-105095295D02*
X148138095Y-105000057D01*
X148138095Y-105000057D02*
X148090476Y-104952438D01*
X148090476Y-104952438D02*
X147995238Y-104904819D01*
X147995238Y-104904819D02*
X147804762Y-104904819D01*
X147804762Y-104904819D02*
X147709524Y-104952438D01*
X147709524Y-104952438D02*
X147661905Y-105000057D01*
X147661905Y-105000057D02*
X147614286Y-105095295D01*
X147614286Y-105095295D02*
X147614286Y-105333390D01*
X147614286Y-105333390D02*
X147661905Y-105428628D01*
X147661905Y-105428628D02*
X147709524Y-105476247D01*
X147709524Y-105476247D02*
X147804762Y-105523866D01*
X147804762Y-105523866D02*
X147995238Y-105523866D01*
X147995238Y-105523866D02*
X148090476Y-105476247D01*
X148090476Y-105476247D02*
X148138095Y-105428628D01*
X148138095Y-105428628D02*
X148185714Y-105333390D01*
X127670833Y-98604819D02*
X127337500Y-98128628D01*
X127099405Y-98604819D02*
X127099405Y-97604819D01*
X127099405Y-97604819D02*
X127480357Y-97604819D01*
X127480357Y-97604819D02*
X127575595Y-97652438D01*
X127575595Y-97652438D02*
X127623214Y-97700057D01*
X127623214Y-97700057D02*
X127670833Y-97795295D01*
X127670833Y-97795295D02*
X127670833Y-97938152D01*
X127670833Y-97938152D02*
X127623214Y-98033390D01*
X127623214Y-98033390D02*
X127575595Y-98081009D01*
X127575595Y-98081009D02*
X127480357Y-98128628D01*
X127480357Y-98128628D02*
X127099405Y-98128628D01*
X128242262Y-98033390D02*
X128147024Y-97985771D01*
X128147024Y-97985771D02*
X128099405Y-97938152D01*
X128099405Y-97938152D02*
X128051786Y-97842914D01*
X128051786Y-97842914D02*
X128051786Y-97795295D01*
X128051786Y-97795295D02*
X128099405Y-97700057D01*
X128099405Y-97700057D02*
X128147024Y-97652438D01*
X128147024Y-97652438D02*
X128242262Y-97604819D01*
X128242262Y-97604819D02*
X128432738Y-97604819D01*
X128432738Y-97604819D02*
X128527976Y-97652438D01*
X128527976Y-97652438D02*
X128575595Y-97700057D01*
X128575595Y-97700057D02*
X128623214Y-97795295D01*
X128623214Y-97795295D02*
X128623214Y-97842914D01*
X128623214Y-97842914D02*
X128575595Y-97938152D01*
X128575595Y-97938152D02*
X128527976Y-97985771D01*
X128527976Y-97985771D02*
X128432738Y-98033390D01*
X128432738Y-98033390D02*
X128242262Y-98033390D01*
X128242262Y-98033390D02*
X128147024Y-98081009D01*
X128147024Y-98081009D02*
X128099405Y-98128628D01*
X128099405Y-98128628D02*
X128051786Y-98223866D01*
X128051786Y-98223866D02*
X128051786Y-98414342D01*
X128051786Y-98414342D02*
X128099405Y-98509580D01*
X128099405Y-98509580D02*
X128147024Y-98557200D01*
X128147024Y-98557200D02*
X128242262Y-98604819D01*
X128242262Y-98604819D02*
X128432738Y-98604819D01*
X128432738Y-98604819D02*
X128527976Y-98557200D01*
X128527976Y-98557200D02*
X128575595Y-98509580D01*
X128575595Y-98509580D02*
X128623214Y-98414342D01*
X128623214Y-98414342D02*
X128623214Y-98223866D01*
X128623214Y-98223866D02*
X128575595Y-98128628D01*
X128575595Y-98128628D02*
X128527976Y-98081009D01*
X128527976Y-98081009D02*
X128432738Y-98033390D01*
X128682142Y-114329580D02*
X128634523Y-114377200D01*
X128634523Y-114377200D02*
X128491666Y-114424819D01*
X128491666Y-114424819D02*
X128396428Y-114424819D01*
X128396428Y-114424819D02*
X128253571Y-114377200D01*
X128253571Y-114377200D02*
X128158333Y-114281961D01*
X128158333Y-114281961D02*
X128110714Y-114186723D01*
X128110714Y-114186723D02*
X128063095Y-113996247D01*
X128063095Y-113996247D02*
X128063095Y-113853390D01*
X128063095Y-113853390D02*
X128110714Y-113662914D01*
X128110714Y-113662914D02*
X128158333Y-113567676D01*
X128158333Y-113567676D02*
X128253571Y-113472438D01*
X128253571Y-113472438D02*
X128396428Y-113424819D01*
X128396428Y-113424819D02*
X128491666Y-113424819D01*
X128491666Y-113424819D02*
X128634523Y-113472438D01*
X128634523Y-113472438D02*
X128682142Y-113520057D01*
X129063095Y-113520057D02*
X129110714Y-113472438D01*
X129110714Y-113472438D02*
X129205952Y-113424819D01*
X129205952Y-113424819D02*
X129444047Y-113424819D01*
X129444047Y-113424819D02*
X129539285Y-113472438D01*
X129539285Y-113472438D02*
X129586904Y-113520057D01*
X129586904Y-113520057D02*
X129634523Y-113615295D01*
X129634523Y-113615295D02*
X129634523Y-113710533D01*
X129634523Y-113710533D02*
X129586904Y-113853390D01*
X129586904Y-113853390D02*
X129015476Y-114424819D01*
X129015476Y-114424819D02*
X129634523Y-114424819D01*
X130491666Y-113424819D02*
X130301190Y-113424819D01*
X130301190Y-113424819D02*
X130205952Y-113472438D01*
X130205952Y-113472438D02*
X130158333Y-113520057D01*
X130158333Y-113520057D02*
X130063095Y-113662914D01*
X130063095Y-113662914D02*
X130015476Y-113853390D01*
X130015476Y-113853390D02*
X130015476Y-114234342D01*
X130015476Y-114234342D02*
X130063095Y-114329580D01*
X130063095Y-114329580D02*
X130110714Y-114377200D01*
X130110714Y-114377200D02*
X130205952Y-114424819D01*
X130205952Y-114424819D02*
X130396428Y-114424819D01*
X130396428Y-114424819D02*
X130491666Y-114377200D01*
X130491666Y-114377200D02*
X130539285Y-114329580D01*
X130539285Y-114329580D02*
X130586904Y-114234342D01*
X130586904Y-114234342D02*
X130586904Y-113996247D01*
X130586904Y-113996247D02*
X130539285Y-113901009D01*
X130539285Y-113901009D02*
X130491666Y-113853390D01*
X130491666Y-113853390D02*
X130396428Y-113805771D01*
X130396428Y-113805771D02*
X130205952Y-113805771D01*
X130205952Y-113805771D02*
X130110714Y-113853390D01*
X130110714Y-113853390D02*
X130063095Y-113901009D01*
X130063095Y-113901009D02*
X130015476Y-113996247D01*
X141561905Y-97554819D02*
X141561905Y-96554819D01*
X141561905Y-96554819D02*
X141800000Y-96554819D01*
X141800000Y-96554819D02*
X141942857Y-96602438D01*
X141942857Y-96602438D02*
X142038095Y-96697676D01*
X142038095Y-96697676D02*
X142085714Y-96792914D01*
X142085714Y-96792914D02*
X142133333Y-96983390D01*
X142133333Y-96983390D02*
X142133333Y-97126247D01*
X142133333Y-97126247D02*
X142085714Y-97316723D01*
X142085714Y-97316723D02*
X142038095Y-97411961D01*
X142038095Y-97411961D02*
X141942857Y-97507200D01*
X141942857Y-97507200D02*
X141800000Y-97554819D01*
X141800000Y-97554819D02*
X141561905Y-97554819D01*
X142514286Y-96650057D02*
X142561905Y-96602438D01*
X142561905Y-96602438D02*
X142657143Y-96554819D01*
X142657143Y-96554819D02*
X142895238Y-96554819D01*
X142895238Y-96554819D02*
X142990476Y-96602438D01*
X142990476Y-96602438D02*
X143038095Y-96650057D01*
X143038095Y-96650057D02*
X143085714Y-96745295D01*
X143085714Y-96745295D02*
X143085714Y-96840533D01*
X143085714Y-96840533D02*
X143038095Y-96983390D01*
X143038095Y-96983390D02*
X142466667Y-97554819D01*
X142466667Y-97554819D02*
X143085714Y-97554819D01*
X96488095Y-75056819D02*
X97059523Y-75056819D01*
X96773809Y-76056819D02*
X96773809Y-75056819D01*
X97392857Y-76056819D02*
X97392857Y-75056819D01*
X97392857Y-75056819D02*
X97773809Y-75056819D01*
X97773809Y-75056819D02*
X97869047Y-75104438D01*
X97869047Y-75104438D02*
X97916666Y-75152057D01*
X97916666Y-75152057D02*
X97964285Y-75247295D01*
X97964285Y-75247295D02*
X97964285Y-75390152D01*
X97964285Y-75390152D02*
X97916666Y-75485390D01*
X97916666Y-75485390D02*
X97869047Y-75533009D01*
X97869047Y-75533009D02*
X97773809Y-75580628D01*
X97773809Y-75580628D02*
X97392857Y-75580628D01*
X98869047Y-75056819D02*
X98392857Y-75056819D01*
X98392857Y-75056819D02*
X98345238Y-75533009D01*
X98345238Y-75533009D02*
X98392857Y-75485390D01*
X98392857Y-75485390D02*
X98488095Y-75437771D01*
X98488095Y-75437771D02*
X98726190Y-75437771D01*
X98726190Y-75437771D02*
X98821428Y-75485390D01*
X98821428Y-75485390D02*
X98869047Y-75533009D01*
X98869047Y-75533009D02*
X98916666Y-75628247D01*
X98916666Y-75628247D02*
X98916666Y-75866342D01*
X98916666Y-75866342D02*
X98869047Y-75961580D01*
X98869047Y-75961580D02*
X98821428Y-76009200D01*
X98821428Y-76009200D02*
X98726190Y-76056819D01*
X98726190Y-76056819D02*
X98488095Y-76056819D01*
X98488095Y-76056819D02*
X98392857Y-76009200D01*
X98392857Y-76009200D02*
X98345238Y-75961580D01*
X134304166Y-101131009D02*
X133970833Y-101131009D01*
X133970833Y-101654819D02*
X133970833Y-100654819D01*
X133970833Y-100654819D02*
X134447023Y-100654819D01*
X135161309Y-101131009D02*
X135304166Y-101178628D01*
X135304166Y-101178628D02*
X135351785Y-101226247D01*
X135351785Y-101226247D02*
X135399404Y-101321485D01*
X135399404Y-101321485D02*
X135399404Y-101464342D01*
X135399404Y-101464342D02*
X135351785Y-101559580D01*
X135351785Y-101559580D02*
X135304166Y-101607200D01*
X135304166Y-101607200D02*
X135208928Y-101654819D01*
X135208928Y-101654819D02*
X134827976Y-101654819D01*
X134827976Y-101654819D02*
X134827976Y-100654819D01*
X134827976Y-100654819D02*
X135161309Y-100654819D01*
X135161309Y-100654819D02*
X135256547Y-100702438D01*
X135256547Y-100702438D02*
X135304166Y-100750057D01*
X135304166Y-100750057D02*
X135351785Y-100845295D01*
X135351785Y-100845295D02*
X135351785Y-100940533D01*
X135351785Y-100940533D02*
X135304166Y-101035771D01*
X135304166Y-101035771D02*
X135256547Y-101083390D01*
X135256547Y-101083390D02*
X135161309Y-101131009D01*
X135161309Y-101131009D02*
X134827976Y-101131009D01*
X136351785Y-101654819D02*
X135780357Y-101654819D01*
X136066071Y-101654819D02*
X136066071Y-100654819D01*
X136066071Y-100654819D02*
X135970833Y-100797676D01*
X135970833Y-100797676D02*
X135875595Y-100892914D01*
X135875595Y-100892914D02*
X135780357Y-100940533D01*
X135107142Y-67379580D02*
X135059523Y-67427200D01*
X135059523Y-67427200D02*
X134916666Y-67474819D01*
X134916666Y-67474819D02*
X134821428Y-67474819D01*
X134821428Y-67474819D02*
X134678571Y-67427200D01*
X134678571Y-67427200D02*
X134583333Y-67331961D01*
X134583333Y-67331961D02*
X134535714Y-67236723D01*
X134535714Y-67236723D02*
X134488095Y-67046247D01*
X134488095Y-67046247D02*
X134488095Y-66903390D01*
X134488095Y-66903390D02*
X134535714Y-66712914D01*
X134535714Y-66712914D02*
X134583333Y-66617676D01*
X134583333Y-66617676D02*
X134678571Y-66522438D01*
X134678571Y-66522438D02*
X134821428Y-66474819D01*
X134821428Y-66474819D02*
X134916666Y-66474819D01*
X134916666Y-66474819D02*
X135059523Y-66522438D01*
X135059523Y-66522438D02*
X135107142Y-66570057D01*
X135440476Y-66474819D02*
X136059523Y-66474819D01*
X136059523Y-66474819D02*
X135726190Y-66855771D01*
X135726190Y-66855771D02*
X135869047Y-66855771D01*
X135869047Y-66855771D02*
X135964285Y-66903390D01*
X135964285Y-66903390D02*
X136011904Y-66951009D01*
X136011904Y-66951009D02*
X136059523Y-67046247D01*
X136059523Y-67046247D02*
X136059523Y-67284342D01*
X136059523Y-67284342D02*
X136011904Y-67379580D01*
X136011904Y-67379580D02*
X135964285Y-67427200D01*
X135964285Y-67427200D02*
X135869047Y-67474819D01*
X135869047Y-67474819D02*
X135583333Y-67474819D01*
X135583333Y-67474819D02*
X135488095Y-67427200D01*
X135488095Y-67427200D02*
X135440476Y-67379580D01*
X136392857Y-66474819D02*
X137011904Y-66474819D01*
X137011904Y-66474819D02*
X136678571Y-66855771D01*
X136678571Y-66855771D02*
X136821428Y-66855771D01*
X136821428Y-66855771D02*
X136916666Y-66903390D01*
X136916666Y-66903390D02*
X136964285Y-66951009D01*
X136964285Y-66951009D02*
X137011904Y-67046247D01*
X137011904Y-67046247D02*
X137011904Y-67284342D01*
X137011904Y-67284342D02*
X136964285Y-67379580D01*
X136964285Y-67379580D02*
X136916666Y-67427200D01*
X136916666Y-67427200D02*
X136821428Y-67474819D01*
X136821428Y-67474819D02*
X136535714Y-67474819D01*
X136535714Y-67474819D02*
X136440476Y-67427200D01*
X136440476Y-67427200D02*
X136392857Y-67379580D01*
X96488095Y-78504819D02*
X97059523Y-78504819D01*
X96773809Y-79504819D02*
X96773809Y-78504819D01*
X97392857Y-79504819D02*
X97392857Y-78504819D01*
X97392857Y-78504819D02*
X97773809Y-78504819D01*
X97773809Y-78504819D02*
X97869047Y-78552438D01*
X97869047Y-78552438D02*
X97916666Y-78600057D01*
X97916666Y-78600057D02*
X97964285Y-78695295D01*
X97964285Y-78695295D02*
X97964285Y-78838152D01*
X97964285Y-78838152D02*
X97916666Y-78933390D01*
X97916666Y-78933390D02*
X97869047Y-78981009D01*
X97869047Y-78981009D02*
X97773809Y-79028628D01*
X97773809Y-79028628D02*
X97392857Y-79028628D01*
X98821428Y-78838152D02*
X98821428Y-79504819D01*
X98583333Y-78457200D02*
X98345238Y-79171485D01*
X98345238Y-79171485D02*
X98964285Y-79171485D01*
X109857142Y-93009580D02*
X109809523Y-93057200D01*
X109809523Y-93057200D02*
X109666666Y-93104819D01*
X109666666Y-93104819D02*
X109571428Y-93104819D01*
X109571428Y-93104819D02*
X109428571Y-93057200D01*
X109428571Y-93057200D02*
X109333333Y-92961961D01*
X109333333Y-92961961D02*
X109285714Y-92866723D01*
X109285714Y-92866723D02*
X109238095Y-92676247D01*
X109238095Y-92676247D02*
X109238095Y-92533390D01*
X109238095Y-92533390D02*
X109285714Y-92342914D01*
X109285714Y-92342914D02*
X109333333Y-92247676D01*
X109333333Y-92247676D02*
X109428571Y-92152438D01*
X109428571Y-92152438D02*
X109571428Y-92104819D01*
X109571428Y-92104819D02*
X109666666Y-92104819D01*
X109666666Y-92104819D02*
X109809523Y-92152438D01*
X109809523Y-92152438D02*
X109857142Y-92200057D01*
X110190476Y-92104819D02*
X110809523Y-92104819D01*
X110809523Y-92104819D02*
X110476190Y-92485771D01*
X110476190Y-92485771D02*
X110619047Y-92485771D01*
X110619047Y-92485771D02*
X110714285Y-92533390D01*
X110714285Y-92533390D02*
X110761904Y-92581009D01*
X110761904Y-92581009D02*
X110809523Y-92676247D01*
X110809523Y-92676247D02*
X110809523Y-92914342D01*
X110809523Y-92914342D02*
X110761904Y-93009580D01*
X110761904Y-93009580D02*
X110714285Y-93057200D01*
X110714285Y-93057200D02*
X110619047Y-93104819D01*
X110619047Y-93104819D02*
X110333333Y-93104819D01*
X110333333Y-93104819D02*
X110238095Y-93057200D01*
X110238095Y-93057200D02*
X110190476Y-93009580D01*
X111761904Y-93104819D02*
X111190476Y-93104819D01*
X111476190Y-93104819D02*
X111476190Y-92104819D01*
X111476190Y-92104819D02*
X111380952Y-92247676D01*
X111380952Y-92247676D02*
X111285714Y-92342914D01*
X111285714Y-92342914D02*
X111190476Y-92390533D01*
X127633333Y-102179580D02*
X127585714Y-102227200D01*
X127585714Y-102227200D02*
X127442857Y-102274819D01*
X127442857Y-102274819D02*
X127347619Y-102274819D01*
X127347619Y-102274819D02*
X127204762Y-102227200D01*
X127204762Y-102227200D02*
X127109524Y-102131961D01*
X127109524Y-102131961D02*
X127061905Y-102036723D01*
X127061905Y-102036723D02*
X127014286Y-101846247D01*
X127014286Y-101846247D02*
X127014286Y-101703390D01*
X127014286Y-101703390D02*
X127061905Y-101512914D01*
X127061905Y-101512914D02*
X127109524Y-101417676D01*
X127109524Y-101417676D02*
X127204762Y-101322438D01*
X127204762Y-101322438D02*
X127347619Y-101274819D01*
X127347619Y-101274819D02*
X127442857Y-101274819D01*
X127442857Y-101274819D02*
X127585714Y-101322438D01*
X127585714Y-101322438D02*
X127633333Y-101370057D01*
X128204762Y-101703390D02*
X128109524Y-101655771D01*
X128109524Y-101655771D02*
X128061905Y-101608152D01*
X128061905Y-101608152D02*
X128014286Y-101512914D01*
X128014286Y-101512914D02*
X128014286Y-101465295D01*
X128014286Y-101465295D02*
X128061905Y-101370057D01*
X128061905Y-101370057D02*
X128109524Y-101322438D01*
X128109524Y-101322438D02*
X128204762Y-101274819D01*
X128204762Y-101274819D02*
X128395238Y-101274819D01*
X128395238Y-101274819D02*
X128490476Y-101322438D01*
X128490476Y-101322438D02*
X128538095Y-101370057D01*
X128538095Y-101370057D02*
X128585714Y-101465295D01*
X128585714Y-101465295D02*
X128585714Y-101512914D01*
X128585714Y-101512914D02*
X128538095Y-101608152D01*
X128538095Y-101608152D02*
X128490476Y-101655771D01*
X128490476Y-101655771D02*
X128395238Y-101703390D01*
X128395238Y-101703390D02*
X128204762Y-101703390D01*
X128204762Y-101703390D02*
X128109524Y-101751009D01*
X128109524Y-101751009D02*
X128061905Y-101798628D01*
X128061905Y-101798628D02*
X128014286Y-101893866D01*
X128014286Y-101893866D02*
X128014286Y-102084342D01*
X128014286Y-102084342D02*
X128061905Y-102179580D01*
X128061905Y-102179580D02*
X128109524Y-102227200D01*
X128109524Y-102227200D02*
X128204762Y-102274819D01*
X128204762Y-102274819D02*
X128395238Y-102274819D01*
X128395238Y-102274819D02*
X128490476Y-102227200D01*
X128490476Y-102227200D02*
X128538095Y-102179580D01*
X128538095Y-102179580D02*
X128585714Y-102084342D01*
X128585714Y-102084342D02*
X128585714Y-101893866D01*
X128585714Y-101893866D02*
X128538095Y-101798628D01*
X128538095Y-101798628D02*
X128490476Y-101751009D01*
X128490476Y-101751009D02*
X128395238Y-101703390D01*
X146098214Y-77954819D02*
X146098214Y-76954819D01*
X146098214Y-76954819D02*
X146336309Y-76954819D01*
X146336309Y-76954819D02*
X146479166Y-77002438D01*
X146479166Y-77002438D02*
X146574404Y-77097676D01*
X146574404Y-77097676D02*
X146622023Y-77192914D01*
X146622023Y-77192914D02*
X146669642Y-77383390D01*
X146669642Y-77383390D02*
X146669642Y-77526247D01*
X146669642Y-77526247D02*
X146622023Y-77716723D01*
X146622023Y-77716723D02*
X146574404Y-77811961D01*
X146574404Y-77811961D02*
X146479166Y-77907200D01*
X146479166Y-77907200D02*
X146336309Y-77954819D01*
X146336309Y-77954819D02*
X146098214Y-77954819D01*
X147622023Y-77954819D02*
X147050595Y-77954819D01*
X147336309Y-77954819D02*
X147336309Y-76954819D01*
X147336309Y-76954819D02*
X147241071Y-77097676D01*
X147241071Y-77097676D02*
X147145833Y-77192914D01*
X147145833Y-77192914D02*
X147050595Y-77240533D01*
X148574404Y-77954819D02*
X148002976Y-77954819D01*
X148288690Y-77954819D02*
X148288690Y-76954819D01*
X148288690Y-76954819D02*
X148193452Y-77097676D01*
X148193452Y-77097676D02*
X148098214Y-77192914D01*
X148098214Y-77192914D02*
X148002976Y-77240533D01*
X138533333Y-95709580D02*
X138485714Y-95757200D01*
X138485714Y-95757200D02*
X138342857Y-95804819D01*
X138342857Y-95804819D02*
X138247619Y-95804819D01*
X138247619Y-95804819D02*
X138104762Y-95757200D01*
X138104762Y-95757200D02*
X138009524Y-95661961D01*
X138009524Y-95661961D02*
X137961905Y-95566723D01*
X137961905Y-95566723D02*
X137914286Y-95376247D01*
X137914286Y-95376247D02*
X137914286Y-95233390D01*
X137914286Y-95233390D02*
X137961905Y-95042914D01*
X137961905Y-95042914D02*
X138009524Y-94947676D01*
X138009524Y-94947676D02*
X138104762Y-94852438D01*
X138104762Y-94852438D02*
X138247619Y-94804819D01*
X138247619Y-94804819D02*
X138342857Y-94804819D01*
X138342857Y-94804819D02*
X138485714Y-94852438D01*
X138485714Y-94852438D02*
X138533333Y-94900057D01*
X139438095Y-94804819D02*
X138961905Y-94804819D01*
X138961905Y-94804819D02*
X138914286Y-95281009D01*
X138914286Y-95281009D02*
X138961905Y-95233390D01*
X138961905Y-95233390D02*
X139057143Y-95185771D01*
X139057143Y-95185771D02*
X139295238Y-95185771D01*
X139295238Y-95185771D02*
X139390476Y-95233390D01*
X139390476Y-95233390D02*
X139438095Y-95281009D01*
X139438095Y-95281009D02*
X139485714Y-95376247D01*
X139485714Y-95376247D02*
X139485714Y-95614342D01*
X139485714Y-95614342D02*
X139438095Y-95709580D01*
X139438095Y-95709580D02*
X139390476Y-95757200D01*
X139390476Y-95757200D02*
X139295238Y-95804819D01*
X139295238Y-95804819D02*
X139057143Y-95804819D01*
X139057143Y-95804819D02*
X138961905Y-95757200D01*
X138961905Y-95757200D02*
X138914286Y-95709580D01*
X135207142Y-75554819D02*
X134873809Y-75078628D01*
X134635714Y-75554819D02*
X134635714Y-74554819D01*
X134635714Y-74554819D02*
X135016666Y-74554819D01*
X135016666Y-74554819D02*
X135111904Y-74602438D01*
X135111904Y-74602438D02*
X135159523Y-74650057D01*
X135159523Y-74650057D02*
X135207142Y-74745295D01*
X135207142Y-74745295D02*
X135207142Y-74888152D01*
X135207142Y-74888152D02*
X135159523Y-74983390D01*
X135159523Y-74983390D02*
X135111904Y-75031009D01*
X135111904Y-75031009D02*
X135016666Y-75078628D01*
X135016666Y-75078628D02*
X134635714Y-75078628D01*
X135588095Y-74650057D02*
X135635714Y-74602438D01*
X135635714Y-74602438D02*
X135730952Y-74554819D01*
X135730952Y-74554819D02*
X135969047Y-74554819D01*
X135969047Y-74554819D02*
X136064285Y-74602438D01*
X136064285Y-74602438D02*
X136111904Y-74650057D01*
X136111904Y-74650057D02*
X136159523Y-74745295D01*
X136159523Y-74745295D02*
X136159523Y-74840533D01*
X136159523Y-74840533D02*
X136111904Y-74983390D01*
X136111904Y-74983390D02*
X135540476Y-75554819D01*
X135540476Y-75554819D02*
X136159523Y-75554819D01*
X136635714Y-75554819D02*
X136826190Y-75554819D01*
X136826190Y-75554819D02*
X136921428Y-75507200D01*
X136921428Y-75507200D02*
X136969047Y-75459580D01*
X136969047Y-75459580D02*
X137064285Y-75316723D01*
X137064285Y-75316723D02*
X137111904Y-75126247D01*
X137111904Y-75126247D02*
X137111904Y-74745295D01*
X137111904Y-74745295D02*
X137064285Y-74650057D01*
X137064285Y-74650057D02*
X137016666Y-74602438D01*
X137016666Y-74602438D02*
X136921428Y-74554819D01*
X136921428Y-74554819D02*
X136730952Y-74554819D01*
X136730952Y-74554819D02*
X136635714Y-74602438D01*
X136635714Y-74602438D02*
X136588095Y-74650057D01*
X136588095Y-74650057D02*
X136540476Y-74745295D01*
X136540476Y-74745295D02*
X136540476Y-74983390D01*
X136540476Y-74983390D02*
X136588095Y-75078628D01*
X136588095Y-75078628D02*
X136635714Y-75126247D01*
X136635714Y-75126247D02*
X136730952Y-75173866D01*
X136730952Y-75173866D02*
X136921428Y-75173866D01*
X136921428Y-75173866D02*
X137016666Y-75126247D01*
X137016666Y-75126247D02*
X137064285Y-75078628D01*
X137064285Y-75078628D02*
X137111904Y-74983390D01*
X109557142Y-67679580D02*
X109509523Y-67727200D01*
X109509523Y-67727200D02*
X109366666Y-67774819D01*
X109366666Y-67774819D02*
X109271428Y-67774819D01*
X109271428Y-67774819D02*
X109128571Y-67727200D01*
X109128571Y-67727200D02*
X109033333Y-67631961D01*
X109033333Y-67631961D02*
X108985714Y-67536723D01*
X108985714Y-67536723D02*
X108938095Y-67346247D01*
X108938095Y-67346247D02*
X108938095Y-67203390D01*
X108938095Y-67203390D02*
X108985714Y-67012914D01*
X108985714Y-67012914D02*
X109033333Y-66917676D01*
X109033333Y-66917676D02*
X109128571Y-66822438D01*
X109128571Y-66822438D02*
X109271428Y-66774819D01*
X109271428Y-66774819D02*
X109366666Y-66774819D01*
X109366666Y-66774819D02*
X109509523Y-66822438D01*
X109509523Y-66822438D02*
X109557142Y-66870057D01*
X109938095Y-66870057D02*
X109985714Y-66822438D01*
X109985714Y-66822438D02*
X110080952Y-66774819D01*
X110080952Y-66774819D02*
X110319047Y-66774819D01*
X110319047Y-66774819D02*
X110414285Y-66822438D01*
X110414285Y-66822438D02*
X110461904Y-66870057D01*
X110461904Y-66870057D02*
X110509523Y-66965295D01*
X110509523Y-66965295D02*
X110509523Y-67060533D01*
X110509523Y-67060533D02*
X110461904Y-67203390D01*
X110461904Y-67203390D02*
X109890476Y-67774819D01*
X109890476Y-67774819D02*
X110509523Y-67774819D01*
X111080952Y-67203390D02*
X110985714Y-67155771D01*
X110985714Y-67155771D02*
X110938095Y-67108152D01*
X110938095Y-67108152D02*
X110890476Y-67012914D01*
X110890476Y-67012914D02*
X110890476Y-66965295D01*
X110890476Y-66965295D02*
X110938095Y-66870057D01*
X110938095Y-66870057D02*
X110985714Y-66822438D01*
X110985714Y-66822438D02*
X111080952Y-66774819D01*
X111080952Y-66774819D02*
X111271428Y-66774819D01*
X111271428Y-66774819D02*
X111366666Y-66822438D01*
X111366666Y-66822438D02*
X111414285Y-66870057D01*
X111414285Y-66870057D02*
X111461904Y-66965295D01*
X111461904Y-66965295D02*
X111461904Y-67012914D01*
X111461904Y-67012914D02*
X111414285Y-67108152D01*
X111414285Y-67108152D02*
X111366666Y-67155771D01*
X111366666Y-67155771D02*
X111271428Y-67203390D01*
X111271428Y-67203390D02*
X111080952Y-67203390D01*
X111080952Y-67203390D02*
X110985714Y-67251009D01*
X110985714Y-67251009D02*
X110938095Y-67298628D01*
X110938095Y-67298628D02*
X110890476Y-67393866D01*
X110890476Y-67393866D02*
X110890476Y-67584342D01*
X110890476Y-67584342D02*
X110938095Y-67679580D01*
X110938095Y-67679580D02*
X110985714Y-67727200D01*
X110985714Y-67727200D02*
X111080952Y-67774819D01*
X111080952Y-67774819D02*
X111271428Y-67774819D01*
X111271428Y-67774819D02*
X111366666Y-67727200D01*
X111366666Y-67727200D02*
X111414285Y-67679580D01*
X111414285Y-67679580D02*
X111461904Y-67584342D01*
X111461904Y-67584342D02*
X111461904Y-67393866D01*
X111461904Y-67393866D02*
X111414285Y-67298628D01*
X111414285Y-67298628D02*
X111366666Y-67251009D01*
X111366666Y-67251009D02*
X111271428Y-67203390D01*
X138657142Y-73159580D02*
X138609523Y-73207200D01*
X138609523Y-73207200D02*
X138466666Y-73254819D01*
X138466666Y-73254819D02*
X138371428Y-73254819D01*
X138371428Y-73254819D02*
X138228571Y-73207200D01*
X138228571Y-73207200D02*
X138133333Y-73111961D01*
X138133333Y-73111961D02*
X138085714Y-73016723D01*
X138085714Y-73016723D02*
X138038095Y-72826247D01*
X138038095Y-72826247D02*
X138038095Y-72683390D01*
X138038095Y-72683390D02*
X138085714Y-72492914D01*
X138085714Y-72492914D02*
X138133333Y-72397676D01*
X138133333Y-72397676D02*
X138228571Y-72302438D01*
X138228571Y-72302438D02*
X138371428Y-72254819D01*
X138371428Y-72254819D02*
X138466666Y-72254819D01*
X138466666Y-72254819D02*
X138609523Y-72302438D01*
X138609523Y-72302438D02*
X138657142Y-72350057D01*
X138990476Y-72254819D02*
X139609523Y-72254819D01*
X139609523Y-72254819D02*
X139276190Y-72635771D01*
X139276190Y-72635771D02*
X139419047Y-72635771D01*
X139419047Y-72635771D02*
X139514285Y-72683390D01*
X139514285Y-72683390D02*
X139561904Y-72731009D01*
X139561904Y-72731009D02*
X139609523Y-72826247D01*
X139609523Y-72826247D02*
X139609523Y-73064342D01*
X139609523Y-73064342D02*
X139561904Y-73159580D01*
X139561904Y-73159580D02*
X139514285Y-73207200D01*
X139514285Y-73207200D02*
X139419047Y-73254819D01*
X139419047Y-73254819D02*
X139133333Y-73254819D01*
X139133333Y-73254819D02*
X139038095Y-73207200D01*
X139038095Y-73207200D02*
X138990476Y-73159580D01*
X140514285Y-72254819D02*
X140038095Y-72254819D01*
X140038095Y-72254819D02*
X139990476Y-72731009D01*
X139990476Y-72731009D02*
X140038095Y-72683390D01*
X140038095Y-72683390D02*
X140133333Y-72635771D01*
X140133333Y-72635771D02*
X140371428Y-72635771D01*
X140371428Y-72635771D02*
X140466666Y-72683390D01*
X140466666Y-72683390D02*
X140514285Y-72731009D01*
X140514285Y-72731009D02*
X140561904Y-72826247D01*
X140561904Y-72826247D02*
X140561904Y-73064342D01*
X140561904Y-73064342D02*
X140514285Y-73159580D01*
X140514285Y-73159580D02*
X140466666Y-73207200D01*
X140466666Y-73207200D02*
X140371428Y-73254819D01*
X140371428Y-73254819D02*
X140133333Y-73254819D01*
X140133333Y-73254819D02*
X140038095Y-73207200D01*
X140038095Y-73207200D02*
X139990476Y-73159580D01*
X145035714Y-79904819D02*
X145035714Y-78904819D01*
X145035714Y-78904819D02*
X145273809Y-78904819D01*
X145273809Y-78904819D02*
X145416666Y-78952438D01*
X145416666Y-78952438D02*
X145511904Y-79047676D01*
X145511904Y-79047676D02*
X145559523Y-79142914D01*
X145559523Y-79142914D02*
X145607142Y-79333390D01*
X145607142Y-79333390D02*
X145607142Y-79476247D01*
X145607142Y-79476247D02*
X145559523Y-79666723D01*
X145559523Y-79666723D02*
X145511904Y-79761961D01*
X145511904Y-79761961D02*
X145416666Y-79857200D01*
X145416666Y-79857200D02*
X145273809Y-79904819D01*
X145273809Y-79904819D02*
X145035714Y-79904819D01*
X146559523Y-79904819D02*
X145988095Y-79904819D01*
X146273809Y-79904819D02*
X146273809Y-78904819D01*
X146273809Y-78904819D02*
X146178571Y-79047676D01*
X146178571Y-79047676D02*
X146083333Y-79142914D01*
X146083333Y-79142914D02*
X145988095Y-79190533D01*
X147178571Y-78904819D02*
X147273809Y-78904819D01*
X147273809Y-78904819D02*
X147369047Y-78952438D01*
X147369047Y-78952438D02*
X147416666Y-79000057D01*
X147416666Y-79000057D02*
X147464285Y-79095295D01*
X147464285Y-79095295D02*
X147511904Y-79285771D01*
X147511904Y-79285771D02*
X147511904Y-79523866D01*
X147511904Y-79523866D02*
X147464285Y-79714342D01*
X147464285Y-79714342D02*
X147416666Y-79809580D01*
X147416666Y-79809580D02*
X147369047Y-79857200D01*
X147369047Y-79857200D02*
X147273809Y-79904819D01*
X147273809Y-79904819D02*
X147178571Y-79904819D01*
X147178571Y-79904819D02*
X147083333Y-79857200D01*
X147083333Y-79857200D02*
X147035714Y-79809580D01*
X147035714Y-79809580D02*
X146988095Y-79714342D01*
X146988095Y-79714342D02*
X146940476Y-79523866D01*
X146940476Y-79523866D02*
X146940476Y-79285771D01*
X146940476Y-79285771D02*
X146988095Y-79095295D01*
X146988095Y-79095295D02*
X147035714Y-79000057D01*
X147035714Y-79000057D02*
X147083333Y-78952438D01*
X147083333Y-78952438D02*
X147178571Y-78904819D01*
X107566666Y-115654819D02*
X107566666Y-116369104D01*
X107566666Y-116369104D02*
X107519047Y-116511961D01*
X107519047Y-116511961D02*
X107423809Y-116607200D01*
X107423809Y-116607200D02*
X107280952Y-116654819D01*
X107280952Y-116654819D02*
X107185714Y-116654819D01*
X108471428Y-115988152D02*
X108471428Y-116654819D01*
X108233333Y-115607200D02*
X107995238Y-116321485D01*
X107995238Y-116321485D02*
X108614285Y-116321485D01*
X130357142Y-88509580D02*
X130309523Y-88557200D01*
X130309523Y-88557200D02*
X130166666Y-88604819D01*
X130166666Y-88604819D02*
X130071428Y-88604819D01*
X130071428Y-88604819D02*
X129928571Y-88557200D01*
X129928571Y-88557200D02*
X129833333Y-88461961D01*
X129833333Y-88461961D02*
X129785714Y-88366723D01*
X129785714Y-88366723D02*
X129738095Y-88176247D01*
X129738095Y-88176247D02*
X129738095Y-88033390D01*
X129738095Y-88033390D02*
X129785714Y-87842914D01*
X129785714Y-87842914D02*
X129833333Y-87747676D01*
X129833333Y-87747676D02*
X129928571Y-87652438D01*
X129928571Y-87652438D02*
X130071428Y-87604819D01*
X130071428Y-87604819D02*
X130166666Y-87604819D01*
X130166666Y-87604819D02*
X130309523Y-87652438D01*
X130309523Y-87652438D02*
X130357142Y-87700057D01*
X130738095Y-87700057D02*
X130785714Y-87652438D01*
X130785714Y-87652438D02*
X130880952Y-87604819D01*
X130880952Y-87604819D02*
X131119047Y-87604819D01*
X131119047Y-87604819D02*
X131214285Y-87652438D01*
X131214285Y-87652438D02*
X131261904Y-87700057D01*
X131261904Y-87700057D02*
X131309523Y-87795295D01*
X131309523Y-87795295D02*
X131309523Y-87890533D01*
X131309523Y-87890533D02*
X131261904Y-88033390D01*
X131261904Y-88033390D02*
X130690476Y-88604819D01*
X130690476Y-88604819D02*
X131309523Y-88604819D01*
X131785714Y-88604819D02*
X131976190Y-88604819D01*
X131976190Y-88604819D02*
X132071428Y-88557200D01*
X132071428Y-88557200D02*
X132119047Y-88509580D01*
X132119047Y-88509580D02*
X132214285Y-88366723D01*
X132214285Y-88366723D02*
X132261904Y-88176247D01*
X132261904Y-88176247D02*
X132261904Y-87795295D01*
X132261904Y-87795295D02*
X132214285Y-87700057D01*
X132214285Y-87700057D02*
X132166666Y-87652438D01*
X132166666Y-87652438D02*
X132071428Y-87604819D01*
X132071428Y-87604819D02*
X131880952Y-87604819D01*
X131880952Y-87604819D02*
X131785714Y-87652438D01*
X131785714Y-87652438D02*
X131738095Y-87700057D01*
X131738095Y-87700057D02*
X131690476Y-87795295D01*
X131690476Y-87795295D02*
X131690476Y-88033390D01*
X131690476Y-88033390D02*
X131738095Y-88128628D01*
X131738095Y-88128628D02*
X131785714Y-88176247D01*
X131785714Y-88176247D02*
X131880952Y-88223866D01*
X131880952Y-88223866D02*
X132071428Y-88223866D01*
X132071428Y-88223866D02*
X132166666Y-88176247D01*
X132166666Y-88176247D02*
X132214285Y-88128628D01*
X132214285Y-88128628D02*
X132261904Y-88033390D01*
X134557142Y-93859580D02*
X134509523Y-93907200D01*
X134509523Y-93907200D02*
X134366666Y-93954819D01*
X134366666Y-93954819D02*
X134271428Y-93954819D01*
X134271428Y-93954819D02*
X134128571Y-93907200D01*
X134128571Y-93907200D02*
X134033333Y-93811961D01*
X134033333Y-93811961D02*
X133985714Y-93716723D01*
X133985714Y-93716723D02*
X133938095Y-93526247D01*
X133938095Y-93526247D02*
X133938095Y-93383390D01*
X133938095Y-93383390D02*
X133985714Y-93192914D01*
X133985714Y-93192914D02*
X134033333Y-93097676D01*
X134033333Y-93097676D02*
X134128571Y-93002438D01*
X134128571Y-93002438D02*
X134271428Y-92954819D01*
X134271428Y-92954819D02*
X134366666Y-92954819D01*
X134366666Y-92954819D02*
X134509523Y-93002438D01*
X134509523Y-93002438D02*
X134557142Y-93050057D01*
X135509523Y-93954819D02*
X134938095Y-93954819D01*
X135223809Y-93954819D02*
X135223809Y-92954819D01*
X135223809Y-92954819D02*
X135128571Y-93097676D01*
X135128571Y-93097676D02*
X135033333Y-93192914D01*
X135033333Y-93192914D02*
X134938095Y-93240533D01*
X135842857Y-92954819D02*
X136461904Y-92954819D01*
X136461904Y-92954819D02*
X136128571Y-93335771D01*
X136128571Y-93335771D02*
X136271428Y-93335771D01*
X136271428Y-93335771D02*
X136366666Y-93383390D01*
X136366666Y-93383390D02*
X136414285Y-93431009D01*
X136414285Y-93431009D02*
X136461904Y-93526247D01*
X136461904Y-93526247D02*
X136461904Y-93764342D01*
X136461904Y-93764342D02*
X136414285Y-93859580D01*
X136414285Y-93859580D02*
X136366666Y-93907200D01*
X136366666Y-93907200D02*
X136271428Y-93954819D01*
X136271428Y-93954819D02*
X135985714Y-93954819D01*
X135985714Y-93954819D02*
X135890476Y-93907200D01*
X135890476Y-93907200D02*
X135842857Y-93859580D01*
X138461905Y-111904819D02*
X138461905Y-110904819D01*
X138461905Y-110904819D02*
X138700000Y-110904819D01*
X138700000Y-110904819D02*
X138842857Y-110952438D01*
X138842857Y-110952438D02*
X138938095Y-111047676D01*
X138938095Y-111047676D02*
X138985714Y-111142914D01*
X138985714Y-111142914D02*
X139033333Y-111333390D01*
X139033333Y-111333390D02*
X139033333Y-111476247D01*
X139033333Y-111476247D02*
X138985714Y-111666723D01*
X138985714Y-111666723D02*
X138938095Y-111761961D01*
X138938095Y-111761961D02*
X138842857Y-111857200D01*
X138842857Y-111857200D02*
X138700000Y-111904819D01*
X138700000Y-111904819D02*
X138461905Y-111904819D01*
X139604762Y-111333390D02*
X139509524Y-111285771D01*
X139509524Y-111285771D02*
X139461905Y-111238152D01*
X139461905Y-111238152D02*
X139414286Y-111142914D01*
X139414286Y-111142914D02*
X139414286Y-111095295D01*
X139414286Y-111095295D02*
X139461905Y-111000057D01*
X139461905Y-111000057D02*
X139509524Y-110952438D01*
X139509524Y-110952438D02*
X139604762Y-110904819D01*
X139604762Y-110904819D02*
X139795238Y-110904819D01*
X139795238Y-110904819D02*
X139890476Y-110952438D01*
X139890476Y-110952438D02*
X139938095Y-111000057D01*
X139938095Y-111000057D02*
X139985714Y-111095295D01*
X139985714Y-111095295D02*
X139985714Y-111142914D01*
X139985714Y-111142914D02*
X139938095Y-111238152D01*
X139938095Y-111238152D02*
X139890476Y-111285771D01*
X139890476Y-111285771D02*
X139795238Y-111333390D01*
X139795238Y-111333390D02*
X139604762Y-111333390D01*
X139604762Y-111333390D02*
X139509524Y-111381009D01*
X139509524Y-111381009D02*
X139461905Y-111428628D01*
X139461905Y-111428628D02*
X139414286Y-111523866D01*
X139414286Y-111523866D02*
X139414286Y-111714342D01*
X139414286Y-111714342D02*
X139461905Y-111809580D01*
X139461905Y-111809580D02*
X139509524Y-111857200D01*
X139509524Y-111857200D02*
X139604762Y-111904819D01*
X139604762Y-111904819D02*
X139795238Y-111904819D01*
X139795238Y-111904819D02*
X139890476Y-111857200D01*
X139890476Y-111857200D02*
X139938095Y-111809580D01*
X139938095Y-111809580D02*
X139985714Y-111714342D01*
X139985714Y-111714342D02*
X139985714Y-111523866D01*
X139985714Y-111523866D02*
X139938095Y-111428628D01*
X139938095Y-111428628D02*
X139890476Y-111381009D01*
X139890476Y-111381009D02*
X139795238Y-111333390D01*
X130607142Y-104179580D02*
X130559523Y-104227200D01*
X130559523Y-104227200D02*
X130416666Y-104274819D01*
X130416666Y-104274819D02*
X130321428Y-104274819D01*
X130321428Y-104274819D02*
X130178571Y-104227200D01*
X130178571Y-104227200D02*
X130083333Y-104131961D01*
X130083333Y-104131961D02*
X130035714Y-104036723D01*
X130035714Y-104036723D02*
X129988095Y-103846247D01*
X129988095Y-103846247D02*
X129988095Y-103703390D01*
X129988095Y-103703390D02*
X130035714Y-103512914D01*
X130035714Y-103512914D02*
X130083333Y-103417676D01*
X130083333Y-103417676D02*
X130178571Y-103322438D01*
X130178571Y-103322438D02*
X130321428Y-103274819D01*
X130321428Y-103274819D02*
X130416666Y-103274819D01*
X130416666Y-103274819D02*
X130559523Y-103322438D01*
X130559523Y-103322438D02*
X130607142Y-103370057D01*
X131559523Y-104274819D02*
X130988095Y-104274819D01*
X131273809Y-104274819D02*
X131273809Y-103274819D01*
X131273809Y-103274819D02*
X131178571Y-103417676D01*
X131178571Y-103417676D02*
X131083333Y-103512914D01*
X131083333Y-103512914D02*
X130988095Y-103560533D01*
X132178571Y-103274819D02*
X132273809Y-103274819D01*
X132273809Y-103274819D02*
X132369047Y-103322438D01*
X132369047Y-103322438D02*
X132416666Y-103370057D01*
X132416666Y-103370057D02*
X132464285Y-103465295D01*
X132464285Y-103465295D02*
X132511904Y-103655771D01*
X132511904Y-103655771D02*
X132511904Y-103893866D01*
X132511904Y-103893866D02*
X132464285Y-104084342D01*
X132464285Y-104084342D02*
X132416666Y-104179580D01*
X132416666Y-104179580D02*
X132369047Y-104227200D01*
X132369047Y-104227200D02*
X132273809Y-104274819D01*
X132273809Y-104274819D02*
X132178571Y-104274819D01*
X132178571Y-104274819D02*
X132083333Y-104227200D01*
X132083333Y-104227200D02*
X132035714Y-104179580D01*
X132035714Y-104179580D02*
X131988095Y-104084342D01*
X131988095Y-104084342D02*
X131940476Y-103893866D01*
X131940476Y-103893866D02*
X131940476Y-103655771D01*
X131940476Y-103655771D02*
X131988095Y-103465295D01*
X131988095Y-103465295D02*
X132035714Y-103370057D01*
X132035714Y-103370057D02*
X132083333Y-103322438D01*
X132083333Y-103322438D02*
X132178571Y-103274819D01*
X133666667Y-79957200D02*
X133809524Y-80004819D01*
X133809524Y-80004819D02*
X134047619Y-80004819D01*
X134047619Y-80004819D02*
X134142857Y-79957200D01*
X134142857Y-79957200D02*
X134190476Y-79909580D01*
X134190476Y-79909580D02*
X134238095Y-79814342D01*
X134238095Y-79814342D02*
X134238095Y-79719104D01*
X134238095Y-79719104D02*
X134190476Y-79623866D01*
X134190476Y-79623866D02*
X134142857Y-79576247D01*
X134142857Y-79576247D02*
X134047619Y-79528628D01*
X134047619Y-79528628D02*
X133857143Y-79481009D01*
X133857143Y-79481009D02*
X133761905Y-79433390D01*
X133761905Y-79433390D02*
X133714286Y-79385771D01*
X133714286Y-79385771D02*
X133666667Y-79290533D01*
X133666667Y-79290533D02*
X133666667Y-79195295D01*
X133666667Y-79195295D02*
X133714286Y-79100057D01*
X133714286Y-79100057D02*
X133761905Y-79052438D01*
X133761905Y-79052438D02*
X133857143Y-79004819D01*
X133857143Y-79004819D02*
X134095238Y-79004819D01*
X134095238Y-79004819D02*
X134238095Y-79052438D01*
X134571429Y-79004819D02*
X134809524Y-80004819D01*
X134809524Y-80004819D02*
X135000000Y-79290533D01*
X135000000Y-79290533D02*
X135190476Y-80004819D01*
X135190476Y-80004819D02*
X135428572Y-79004819D01*
X136333333Y-80004819D02*
X135761905Y-80004819D01*
X136047619Y-80004819D02*
X136047619Y-79004819D01*
X136047619Y-79004819D02*
X135952381Y-79147676D01*
X135952381Y-79147676D02*
X135857143Y-79242914D01*
X135857143Y-79242914D02*
X135761905Y-79290533D01*
X146098214Y-74504819D02*
X146098214Y-73504819D01*
X146098214Y-73504819D02*
X146336309Y-73504819D01*
X146336309Y-73504819D02*
X146479166Y-73552438D01*
X146479166Y-73552438D02*
X146574404Y-73647676D01*
X146574404Y-73647676D02*
X146622023Y-73742914D01*
X146622023Y-73742914D02*
X146669642Y-73933390D01*
X146669642Y-73933390D02*
X146669642Y-74076247D01*
X146669642Y-74076247D02*
X146622023Y-74266723D01*
X146622023Y-74266723D02*
X146574404Y-74361961D01*
X146574404Y-74361961D02*
X146479166Y-74457200D01*
X146479166Y-74457200D02*
X146336309Y-74504819D01*
X146336309Y-74504819D02*
X146098214Y-74504819D01*
X147622023Y-74504819D02*
X147050595Y-74504819D01*
X147336309Y-74504819D02*
X147336309Y-73504819D01*
X147336309Y-73504819D02*
X147241071Y-73647676D01*
X147241071Y-73647676D02*
X147145833Y-73742914D01*
X147145833Y-73742914D02*
X147050595Y-73790533D01*
X148002976Y-73600057D02*
X148050595Y-73552438D01*
X148050595Y-73552438D02*
X148145833Y-73504819D01*
X148145833Y-73504819D02*
X148383928Y-73504819D01*
X148383928Y-73504819D02*
X148479166Y-73552438D01*
X148479166Y-73552438D02*
X148526785Y-73600057D01*
X148526785Y-73600057D02*
X148574404Y-73695295D01*
X148574404Y-73695295D02*
X148574404Y-73790533D01*
X148574404Y-73790533D02*
X148526785Y-73933390D01*
X148526785Y-73933390D02*
X147955357Y-74504819D01*
X147955357Y-74504819D02*
X148574404Y-74504819D01*
X134557142Y-90004819D02*
X134223809Y-89528628D01*
X133985714Y-90004819D02*
X133985714Y-89004819D01*
X133985714Y-89004819D02*
X134366666Y-89004819D01*
X134366666Y-89004819D02*
X134461904Y-89052438D01*
X134461904Y-89052438D02*
X134509523Y-89100057D01*
X134509523Y-89100057D02*
X134557142Y-89195295D01*
X134557142Y-89195295D02*
X134557142Y-89338152D01*
X134557142Y-89338152D02*
X134509523Y-89433390D01*
X134509523Y-89433390D02*
X134461904Y-89481009D01*
X134461904Y-89481009D02*
X134366666Y-89528628D01*
X134366666Y-89528628D02*
X133985714Y-89528628D01*
X134938095Y-89100057D02*
X134985714Y-89052438D01*
X134985714Y-89052438D02*
X135080952Y-89004819D01*
X135080952Y-89004819D02*
X135319047Y-89004819D01*
X135319047Y-89004819D02*
X135414285Y-89052438D01*
X135414285Y-89052438D02*
X135461904Y-89100057D01*
X135461904Y-89100057D02*
X135509523Y-89195295D01*
X135509523Y-89195295D02*
X135509523Y-89290533D01*
X135509523Y-89290533D02*
X135461904Y-89433390D01*
X135461904Y-89433390D02*
X134890476Y-90004819D01*
X134890476Y-90004819D02*
X135509523Y-90004819D01*
X136366666Y-89004819D02*
X136176190Y-89004819D01*
X136176190Y-89004819D02*
X136080952Y-89052438D01*
X136080952Y-89052438D02*
X136033333Y-89100057D01*
X136033333Y-89100057D02*
X135938095Y-89242914D01*
X135938095Y-89242914D02*
X135890476Y-89433390D01*
X135890476Y-89433390D02*
X135890476Y-89814342D01*
X135890476Y-89814342D02*
X135938095Y-89909580D01*
X135938095Y-89909580D02*
X135985714Y-89957200D01*
X135985714Y-89957200D02*
X136080952Y-90004819D01*
X136080952Y-90004819D02*
X136271428Y-90004819D01*
X136271428Y-90004819D02*
X136366666Y-89957200D01*
X136366666Y-89957200D02*
X136414285Y-89909580D01*
X136414285Y-89909580D02*
X136461904Y-89814342D01*
X136461904Y-89814342D02*
X136461904Y-89576247D01*
X136461904Y-89576247D02*
X136414285Y-89481009D01*
X136414285Y-89481009D02*
X136366666Y-89433390D01*
X136366666Y-89433390D02*
X136271428Y-89385771D01*
X136271428Y-89385771D02*
X136080952Y-89385771D01*
X136080952Y-89385771D02*
X135985714Y-89433390D01*
X135985714Y-89433390D02*
X135938095Y-89481009D01*
X135938095Y-89481009D02*
X135890476Y-89576247D01*
X151416666Y-90904819D02*
X151416666Y-91619104D01*
X151416666Y-91619104D02*
X151369047Y-91761961D01*
X151369047Y-91761961D02*
X151273809Y-91857200D01*
X151273809Y-91857200D02*
X151130952Y-91904819D01*
X151130952Y-91904819D02*
X151035714Y-91904819D01*
X152416666Y-91904819D02*
X151845238Y-91904819D01*
X152130952Y-91904819D02*
X152130952Y-90904819D01*
X152130952Y-90904819D02*
X152035714Y-91047676D01*
X152035714Y-91047676D02*
X151940476Y-91142914D01*
X151940476Y-91142914D02*
X151845238Y-91190533D01*
X138594642Y-77454819D02*
X138261309Y-76978628D01*
X138023214Y-77454819D02*
X138023214Y-76454819D01*
X138023214Y-76454819D02*
X138404166Y-76454819D01*
X138404166Y-76454819D02*
X138499404Y-76502438D01*
X138499404Y-76502438D02*
X138547023Y-76550057D01*
X138547023Y-76550057D02*
X138594642Y-76645295D01*
X138594642Y-76645295D02*
X138594642Y-76788152D01*
X138594642Y-76788152D02*
X138547023Y-76883390D01*
X138547023Y-76883390D02*
X138499404Y-76931009D01*
X138499404Y-76931009D02*
X138404166Y-76978628D01*
X138404166Y-76978628D02*
X138023214Y-76978628D01*
X138927976Y-76454819D02*
X139547023Y-76454819D01*
X139547023Y-76454819D02*
X139213690Y-76835771D01*
X139213690Y-76835771D02*
X139356547Y-76835771D01*
X139356547Y-76835771D02*
X139451785Y-76883390D01*
X139451785Y-76883390D02*
X139499404Y-76931009D01*
X139499404Y-76931009D02*
X139547023Y-77026247D01*
X139547023Y-77026247D02*
X139547023Y-77264342D01*
X139547023Y-77264342D02*
X139499404Y-77359580D01*
X139499404Y-77359580D02*
X139451785Y-77407200D01*
X139451785Y-77407200D02*
X139356547Y-77454819D01*
X139356547Y-77454819D02*
X139070833Y-77454819D01*
X139070833Y-77454819D02*
X138975595Y-77407200D01*
X138975595Y-77407200D02*
X138927976Y-77359580D01*
X140166071Y-76454819D02*
X140261309Y-76454819D01*
X140261309Y-76454819D02*
X140356547Y-76502438D01*
X140356547Y-76502438D02*
X140404166Y-76550057D01*
X140404166Y-76550057D02*
X140451785Y-76645295D01*
X140451785Y-76645295D02*
X140499404Y-76835771D01*
X140499404Y-76835771D02*
X140499404Y-77073866D01*
X140499404Y-77073866D02*
X140451785Y-77264342D01*
X140451785Y-77264342D02*
X140404166Y-77359580D01*
X140404166Y-77359580D02*
X140356547Y-77407200D01*
X140356547Y-77407200D02*
X140261309Y-77454819D01*
X140261309Y-77454819D02*
X140166071Y-77454819D01*
X140166071Y-77454819D02*
X140070833Y-77407200D01*
X140070833Y-77407200D02*
X140023214Y-77359580D01*
X140023214Y-77359580D02*
X139975595Y-77264342D01*
X139975595Y-77264342D02*
X139927976Y-77073866D01*
X139927976Y-77073866D02*
X139927976Y-76835771D01*
X139927976Y-76835771D02*
X139975595Y-76645295D01*
X139975595Y-76645295D02*
X140023214Y-76550057D01*
X140023214Y-76550057D02*
X140070833Y-76502438D01*
X140070833Y-76502438D02*
X140166071Y-76454819D01*
X135207142Y-71504819D02*
X134873809Y-71028628D01*
X134635714Y-71504819D02*
X134635714Y-70504819D01*
X134635714Y-70504819D02*
X135016666Y-70504819D01*
X135016666Y-70504819D02*
X135111904Y-70552438D01*
X135111904Y-70552438D02*
X135159523Y-70600057D01*
X135159523Y-70600057D02*
X135207142Y-70695295D01*
X135207142Y-70695295D02*
X135207142Y-70838152D01*
X135207142Y-70838152D02*
X135159523Y-70933390D01*
X135159523Y-70933390D02*
X135111904Y-70981009D01*
X135111904Y-70981009D02*
X135016666Y-71028628D01*
X135016666Y-71028628D02*
X134635714Y-71028628D01*
X135588095Y-70600057D02*
X135635714Y-70552438D01*
X135635714Y-70552438D02*
X135730952Y-70504819D01*
X135730952Y-70504819D02*
X135969047Y-70504819D01*
X135969047Y-70504819D02*
X136064285Y-70552438D01*
X136064285Y-70552438D02*
X136111904Y-70600057D01*
X136111904Y-70600057D02*
X136159523Y-70695295D01*
X136159523Y-70695295D02*
X136159523Y-70790533D01*
X136159523Y-70790533D02*
X136111904Y-70933390D01*
X136111904Y-70933390D02*
X135540476Y-71504819D01*
X135540476Y-71504819D02*
X136159523Y-71504819D01*
X136730952Y-70933390D02*
X136635714Y-70885771D01*
X136635714Y-70885771D02*
X136588095Y-70838152D01*
X136588095Y-70838152D02*
X136540476Y-70742914D01*
X136540476Y-70742914D02*
X136540476Y-70695295D01*
X136540476Y-70695295D02*
X136588095Y-70600057D01*
X136588095Y-70600057D02*
X136635714Y-70552438D01*
X136635714Y-70552438D02*
X136730952Y-70504819D01*
X136730952Y-70504819D02*
X136921428Y-70504819D01*
X136921428Y-70504819D02*
X137016666Y-70552438D01*
X137016666Y-70552438D02*
X137064285Y-70600057D01*
X137064285Y-70600057D02*
X137111904Y-70695295D01*
X137111904Y-70695295D02*
X137111904Y-70742914D01*
X137111904Y-70742914D02*
X137064285Y-70838152D01*
X137064285Y-70838152D02*
X137016666Y-70885771D01*
X137016666Y-70885771D02*
X136921428Y-70933390D01*
X136921428Y-70933390D02*
X136730952Y-70933390D01*
X136730952Y-70933390D02*
X136635714Y-70981009D01*
X136635714Y-70981009D02*
X136588095Y-71028628D01*
X136588095Y-71028628D02*
X136540476Y-71123866D01*
X136540476Y-71123866D02*
X136540476Y-71314342D01*
X136540476Y-71314342D02*
X136588095Y-71409580D01*
X136588095Y-71409580D02*
X136635714Y-71457200D01*
X136635714Y-71457200D02*
X136730952Y-71504819D01*
X136730952Y-71504819D02*
X136921428Y-71504819D01*
X136921428Y-71504819D02*
X137016666Y-71457200D01*
X137016666Y-71457200D02*
X137064285Y-71409580D01*
X137064285Y-71409580D02*
X137111904Y-71314342D01*
X137111904Y-71314342D02*
X137111904Y-71123866D01*
X137111904Y-71123866D02*
X137064285Y-71028628D01*
X137064285Y-71028628D02*
X137016666Y-70981009D01*
X137016666Y-70981009D02*
X136921428Y-70933390D01*
X138607142Y-69379580D02*
X138559523Y-69427200D01*
X138559523Y-69427200D02*
X138416666Y-69474819D01*
X138416666Y-69474819D02*
X138321428Y-69474819D01*
X138321428Y-69474819D02*
X138178571Y-69427200D01*
X138178571Y-69427200D02*
X138083333Y-69331961D01*
X138083333Y-69331961D02*
X138035714Y-69236723D01*
X138035714Y-69236723D02*
X137988095Y-69046247D01*
X137988095Y-69046247D02*
X137988095Y-68903390D01*
X137988095Y-68903390D02*
X138035714Y-68712914D01*
X138035714Y-68712914D02*
X138083333Y-68617676D01*
X138083333Y-68617676D02*
X138178571Y-68522438D01*
X138178571Y-68522438D02*
X138321428Y-68474819D01*
X138321428Y-68474819D02*
X138416666Y-68474819D01*
X138416666Y-68474819D02*
X138559523Y-68522438D01*
X138559523Y-68522438D02*
X138607142Y-68570057D01*
X138940476Y-68474819D02*
X139559523Y-68474819D01*
X139559523Y-68474819D02*
X139226190Y-68855771D01*
X139226190Y-68855771D02*
X139369047Y-68855771D01*
X139369047Y-68855771D02*
X139464285Y-68903390D01*
X139464285Y-68903390D02*
X139511904Y-68951009D01*
X139511904Y-68951009D02*
X139559523Y-69046247D01*
X139559523Y-69046247D02*
X139559523Y-69284342D01*
X139559523Y-69284342D02*
X139511904Y-69379580D01*
X139511904Y-69379580D02*
X139464285Y-69427200D01*
X139464285Y-69427200D02*
X139369047Y-69474819D01*
X139369047Y-69474819D02*
X139083333Y-69474819D01*
X139083333Y-69474819D02*
X138988095Y-69427200D01*
X138988095Y-69427200D02*
X138940476Y-69379580D01*
X140416666Y-68808152D02*
X140416666Y-69474819D01*
X140178571Y-68427200D02*
X139940476Y-69141485D01*
X139940476Y-69141485D02*
X140559523Y-69141485D01*
X142238095Y-101406819D02*
X142809523Y-101406819D01*
X142523809Y-102406819D02*
X142523809Y-101406819D01*
X143142857Y-102406819D02*
X143142857Y-101406819D01*
X143142857Y-101406819D02*
X143523809Y-101406819D01*
X143523809Y-101406819D02*
X143619047Y-101454438D01*
X143619047Y-101454438D02*
X143666666Y-101502057D01*
X143666666Y-101502057D02*
X143714285Y-101597295D01*
X143714285Y-101597295D02*
X143714285Y-101740152D01*
X143714285Y-101740152D02*
X143666666Y-101835390D01*
X143666666Y-101835390D02*
X143619047Y-101883009D01*
X143619047Y-101883009D02*
X143523809Y-101930628D01*
X143523809Y-101930628D02*
X143142857Y-101930628D01*
X144095238Y-101502057D02*
X144142857Y-101454438D01*
X144142857Y-101454438D02*
X144238095Y-101406819D01*
X144238095Y-101406819D02*
X144476190Y-101406819D01*
X144476190Y-101406819D02*
X144571428Y-101454438D01*
X144571428Y-101454438D02*
X144619047Y-101502057D01*
X144619047Y-101502057D02*
X144666666Y-101597295D01*
X144666666Y-101597295D02*
X144666666Y-101692533D01*
X144666666Y-101692533D02*
X144619047Y-101835390D01*
X144619047Y-101835390D02*
X144047619Y-102406819D01*
X144047619Y-102406819D02*
X144666666Y-102406819D01*
X126686905Y-114304819D02*
X126686905Y-113304819D01*
X126686905Y-113304819D02*
X126925000Y-113304819D01*
X126925000Y-113304819D02*
X127067857Y-113352438D01*
X127067857Y-113352438D02*
X127163095Y-113447676D01*
X127163095Y-113447676D02*
X127210714Y-113542914D01*
X127210714Y-113542914D02*
X127258333Y-113733390D01*
X127258333Y-113733390D02*
X127258333Y-113876247D01*
X127258333Y-113876247D02*
X127210714Y-114066723D01*
X127210714Y-114066723D02*
X127163095Y-114161961D01*
X127163095Y-114161961D02*
X127067857Y-114257200D01*
X127067857Y-114257200D02*
X126925000Y-114304819D01*
X126925000Y-114304819D02*
X126686905Y-114304819D01*
X127591667Y-113304819D02*
X128258333Y-113304819D01*
X128258333Y-113304819D02*
X127829762Y-114304819D01*
X137957142Y-107554819D02*
X137623809Y-107078628D01*
X137385714Y-107554819D02*
X137385714Y-106554819D01*
X137385714Y-106554819D02*
X137766666Y-106554819D01*
X137766666Y-106554819D02*
X137861904Y-106602438D01*
X137861904Y-106602438D02*
X137909523Y-106650057D01*
X137909523Y-106650057D02*
X137957142Y-106745295D01*
X137957142Y-106745295D02*
X137957142Y-106888152D01*
X137957142Y-106888152D02*
X137909523Y-106983390D01*
X137909523Y-106983390D02*
X137861904Y-107031009D01*
X137861904Y-107031009D02*
X137766666Y-107078628D01*
X137766666Y-107078628D02*
X137385714Y-107078628D01*
X138909523Y-107554819D02*
X138338095Y-107554819D01*
X138623809Y-107554819D02*
X138623809Y-106554819D01*
X138623809Y-106554819D02*
X138528571Y-106697676D01*
X138528571Y-106697676D02*
X138433333Y-106792914D01*
X138433333Y-106792914D02*
X138338095Y-106840533D01*
X139242857Y-106554819D02*
X139861904Y-106554819D01*
X139861904Y-106554819D02*
X139528571Y-106935771D01*
X139528571Y-106935771D02*
X139671428Y-106935771D01*
X139671428Y-106935771D02*
X139766666Y-106983390D01*
X139766666Y-106983390D02*
X139814285Y-107031009D01*
X139814285Y-107031009D02*
X139861904Y-107126247D01*
X139861904Y-107126247D02*
X139861904Y-107364342D01*
X139861904Y-107364342D02*
X139814285Y-107459580D01*
X139814285Y-107459580D02*
X139766666Y-107507200D01*
X139766666Y-107507200D02*
X139671428Y-107554819D01*
X139671428Y-107554819D02*
X139385714Y-107554819D01*
X139385714Y-107554819D02*
X139290476Y-107507200D01*
X139290476Y-107507200D02*
X139242857Y-107459580D01*
X134557142Y-105604819D02*
X134223809Y-105128628D01*
X133985714Y-105604819D02*
X133985714Y-104604819D01*
X133985714Y-104604819D02*
X134366666Y-104604819D01*
X134366666Y-104604819D02*
X134461904Y-104652438D01*
X134461904Y-104652438D02*
X134509523Y-104700057D01*
X134509523Y-104700057D02*
X134557142Y-104795295D01*
X134557142Y-104795295D02*
X134557142Y-104938152D01*
X134557142Y-104938152D02*
X134509523Y-105033390D01*
X134509523Y-105033390D02*
X134461904Y-105081009D01*
X134461904Y-105081009D02*
X134366666Y-105128628D01*
X134366666Y-105128628D02*
X133985714Y-105128628D01*
X135509523Y-105604819D02*
X134938095Y-105604819D01*
X135223809Y-105604819D02*
X135223809Y-104604819D01*
X135223809Y-104604819D02*
X135128571Y-104747676D01*
X135128571Y-104747676D02*
X135033333Y-104842914D01*
X135033333Y-104842914D02*
X134938095Y-104890533D01*
X136461904Y-105604819D02*
X135890476Y-105604819D01*
X136176190Y-105604819D02*
X136176190Y-104604819D01*
X136176190Y-104604819D02*
X136080952Y-104747676D01*
X136080952Y-104747676D02*
X135985714Y-104842914D01*
X135985714Y-104842914D02*
X135890476Y-104890533D01*
X109807142Y-89009580D02*
X109759523Y-89057200D01*
X109759523Y-89057200D02*
X109616666Y-89104819D01*
X109616666Y-89104819D02*
X109521428Y-89104819D01*
X109521428Y-89104819D02*
X109378571Y-89057200D01*
X109378571Y-89057200D02*
X109283333Y-88961961D01*
X109283333Y-88961961D02*
X109235714Y-88866723D01*
X109235714Y-88866723D02*
X109188095Y-88676247D01*
X109188095Y-88676247D02*
X109188095Y-88533390D01*
X109188095Y-88533390D02*
X109235714Y-88342914D01*
X109235714Y-88342914D02*
X109283333Y-88247676D01*
X109283333Y-88247676D02*
X109378571Y-88152438D01*
X109378571Y-88152438D02*
X109521428Y-88104819D01*
X109521428Y-88104819D02*
X109616666Y-88104819D01*
X109616666Y-88104819D02*
X109759523Y-88152438D01*
X109759523Y-88152438D02*
X109807142Y-88200057D01*
X110140476Y-88104819D02*
X110759523Y-88104819D01*
X110759523Y-88104819D02*
X110426190Y-88485771D01*
X110426190Y-88485771D02*
X110569047Y-88485771D01*
X110569047Y-88485771D02*
X110664285Y-88533390D01*
X110664285Y-88533390D02*
X110711904Y-88581009D01*
X110711904Y-88581009D02*
X110759523Y-88676247D01*
X110759523Y-88676247D02*
X110759523Y-88914342D01*
X110759523Y-88914342D02*
X110711904Y-89009580D01*
X110711904Y-89009580D02*
X110664285Y-89057200D01*
X110664285Y-89057200D02*
X110569047Y-89104819D01*
X110569047Y-89104819D02*
X110283333Y-89104819D01*
X110283333Y-89104819D02*
X110188095Y-89057200D01*
X110188095Y-89057200D02*
X110140476Y-89009580D01*
X111378571Y-88104819D02*
X111473809Y-88104819D01*
X111473809Y-88104819D02*
X111569047Y-88152438D01*
X111569047Y-88152438D02*
X111616666Y-88200057D01*
X111616666Y-88200057D02*
X111664285Y-88295295D01*
X111664285Y-88295295D02*
X111711904Y-88485771D01*
X111711904Y-88485771D02*
X111711904Y-88723866D01*
X111711904Y-88723866D02*
X111664285Y-88914342D01*
X111664285Y-88914342D02*
X111616666Y-89009580D01*
X111616666Y-89009580D02*
X111569047Y-89057200D01*
X111569047Y-89057200D02*
X111473809Y-89104819D01*
X111473809Y-89104819D02*
X111378571Y-89104819D01*
X111378571Y-89104819D02*
X111283333Y-89057200D01*
X111283333Y-89057200D02*
X111235714Y-89009580D01*
X111235714Y-89009580D02*
X111188095Y-88914342D01*
X111188095Y-88914342D02*
X111140476Y-88723866D01*
X111140476Y-88723866D02*
X111140476Y-88485771D01*
X111140476Y-88485771D02*
X111188095Y-88295295D01*
X111188095Y-88295295D02*
X111235714Y-88200057D01*
X111235714Y-88200057D02*
X111283333Y-88152438D01*
X111283333Y-88152438D02*
X111378571Y-88104819D01*
X151316666Y-84404819D02*
X151316666Y-85119104D01*
X151316666Y-85119104D02*
X151269047Y-85261961D01*
X151269047Y-85261961D02*
X151173809Y-85357200D01*
X151173809Y-85357200D02*
X151030952Y-85404819D01*
X151030952Y-85404819D02*
X150935714Y-85404819D01*
X152269047Y-84404819D02*
X151792857Y-84404819D01*
X151792857Y-84404819D02*
X151745238Y-84881009D01*
X151745238Y-84881009D02*
X151792857Y-84833390D01*
X151792857Y-84833390D02*
X151888095Y-84785771D01*
X151888095Y-84785771D02*
X152126190Y-84785771D01*
X152126190Y-84785771D02*
X152221428Y-84833390D01*
X152221428Y-84833390D02*
X152269047Y-84881009D01*
X152269047Y-84881009D02*
X152316666Y-84976247D01*
X152316666Y-84976247D02*
X152316666Y-85214342D01*
X152316666Y-85214342D02*
X152269047Y-85309580D01*
X152269047Y-85309580D02*
X152221428Y-85357200D01*
X152221428Y-85357200D02*
X152126190Y-85404819D01*
X152126190Y-85404819D02*
X151888095Y-85404819D01*
X151888095Y-85404819D02*
X151792857Y-85357200D01*
X151792857Y-85357200D02*
X151745238Y-85309580D01*
X142338095Y-105106819D02*
X142909523Y-105106819D01*
X142623809Y-106106819D02*
X142623809Y-105106819D01*
X143242857Y-106106819D02*
X143242857Y-105106819D01*
X143242857Y-105106819D02*
X143623809Y-105106819D01*
X143623809Y-105106819D02*
X143719047Y-105154438D01*
X143719047Y-105154438D02*
X143766666Y-105202057D01*
X143766666Y-105202057D02*
X143814285Y-105297295D01*
X143814285Y-105297295D02*
X143814285Y-105440152D01*
X143814285Y-105440152D02*
X143766666Y-105535390D01*
X143766666Y-105535390D02*
X143719047Y-105583009D01*
X143719047Y-105583009D02*
X143623809Y-105630628D01*
X143623809Y-105630628D02*
X143242857Y-105630628D01*
X144766666Y-106106819D02*
X144195238Y-106106819D01*
X144480952Y-106106819D02*
X144480952Y-105106819D01*
X144480952Y-105106819D02*
X144385714Y-105249676D01*
X144385714Y-105249676D02*
X144290476Y-105344914D01*
X144290476Y-105344914D02*
X144195238Y-105392533D01*
X136459580Y-115692857D02*
X136507200Y-115740476D01*
X136507200Y-115740476D02*
X136554819Y-115883333D01*
X136554819Y-115883333D02*
X136554819Y-115978571D01*
X136554819Y-115978571D02*
X136507200Y-116121428D01*
X136507200Y-116121428D02*
X136411961Y-116216666D01*
X136411961Y-116216666D02*
X136316723Y-116264285D01*
X136316723Y-116264285D02*
X136126247Y-116311904D01*
X136126247Y-116311904D02*
X135983390Y-116311904D01*
X135983390Y-116311904D02*
X135792914Y-116264285D01*
X135792914Y-116264285D02*
X135697676Y-116216666D01*
X135697676Y-116216666D02*
X135602438Y-116121428D01*
X135602438Y-116121428D02*
X135554819Y-115978571D01*
X135554819Y-115978571D02*
X135554819Y-115883333D01*
X135554819Y-115883333D02*
X135602438Y-115740476D01*
X135602438Y-115740476D02*
X135650057Y-115692857D01*
X136554819Y-114740476D02*
X136554819Y-115311904D01*
X136554819Y-115026190D02*
X135554819Y-115026190D01*
X135554819Y-115026190D02*
X135697676Y-115121428D01*
X135697676Y-115121428D02*
X135792914Y-115216666D01*
X135792914Y-115216666D02*
X135840533Y-115311904D01*
X135554819Y-114407142D02*
X135554819Y-113740476D01*
X135554819Y-113740476D02*
X136554819Y-114169047D01*
X114757142Y-95509580D02*
X114709523Y-95557200D01*
X114709523Y-95557200D02*
X114566666Y-95604819D01*
X114566666Y-95604819D02*
X114471428Y-95604819D01*
X114471428Y-95604819D02*
X114328571Y-95557200D01*
X114328571Y-95557200D02*
X114233333Y-95461961D01*
X114233333Y-95461961D02*
X114185714Y-95366723D01*
X114185714Y-95366723D02*
X114138095Y-95176247D01*
X114138095Y-95176247D02*
X114138095Y-95033390D01*
X114138095Y-95033390D02*
X114185714Y-94842914D01*
X114185714Y-94842914D02*
X114233333Y-94747676D01*
X114233333Y-94747676D02*
X114328571Y-94652438D01*
X114328571Y-94652438D02*
X114471428Y-94604819D01*
X114471428Y-94604819D02*
X114566666Y-94604819D01*
X114566666Y-94604819D02*
X114709523Y-94652438D01*
X114709523Y-94652438D02*
X114757142Y-94700057D01*
X115090476Y-94604819D02*
X115709523Y-94604819D01*
X115709523Y-94604819D02*
X115376190Y-94985771D01*
X115376190Y-94985771D02*
X115519047Y-94985771D01*
X115519047Y-94985771D02*
X115614285Y-95033390D01*
X115614285Y-95033390D02*
X115661904Y-95081009D01*
X115661904Y-95081009D02*
X115709523Y-95176247D01*
X115709523Y-95176247D02*
X115709523Y-95414342D01*
X115709523Y-95414342D02*
X115661904Y-95509580D01*
X115661904Y-95509580D02*
X115614285Y-95557200D01*
X115614285Y-95557200D02*
X115519047Y-95604819D01*
X115519047Y-95604819D02*
X115233333Y-95604819D01*
X115233333Y-95604819D02*
X115138095Y-95557200D01*
X115138095Y-95557200D02*
X115090476Y-95509580D01*
X116090476Y-94700057D02*
X116138095Y-94652438D01*
X116138095Y-94652438D02*
X116233333Y-94604819D01*
X116233333Y-94604819D02*
X116471428Y-94604819D01*
X116471428Y-94604819D02*
X116566666Y-94652438D01*
X116566666Y-94652438D02*
X116614285Y-94700057D01*
X116614285Y-94700057D02*
X116661904Y-94795295D01*
X116661904Y-94795295D02*
X116661904Y-94890533D01*
X116661904Y-94890533D02*
X116614285Y-95033390D01*
X116614285Y-95033390D02*
X116042857Y-95604819D01*
X116042857Y-95604819D02*
X116661904Y-95604819D01*
X141966666Y-89131009D02*
X141633333Y-89131009D01*
X141633333Y-89654819D02*
X141633333Y-88654819D01*
X141633333Y-88654819D02*
X142109523Y-88654819D01*
X143014285Y-89654819D02*
X142442857Y-89654819D01*
X142728571Y-89654819D02*
X142728571Y-88654819D01*
X142728571Y-88654819D02*
X142633333Y-88797676D01*
X142633333Y-88797676D02*
X142538095Y-88892914D01*
X142538095Y-88892914D02*
X142442857Y-88940533D01*
X127738095Y-92654819D02*
X127738095Y-93464342D01*
X127738095Y-93464342D02*
X127785714Y-93559580D01*
X127785714Y-93559580D02*
X127833333Y-93607200D01*
X127833333Y-93607200D02*
X127928571Y-93654819D01*
X127928571Y-93654819D02*
X128119047Y-93654819D01*
X128119047Y-93654819D02*
X128214285Y-93607200D01*
X128214285Y-93607200D02*
X128261904Y-93559580D01*
X128261904Y-93559580D02*
X128309523Y-93464342D01*
X128309523Y-93464342D02*
X128309523Y-92654819D01*
X129214285Y-92654819D02*
X129023809Y-92654819D01*
X129023809Y-92654819D02*
X128928571Y-92702438D01*
X128928571Y-92702438D02*
X128880952Y-92750057D01*
X128880952Y-92750057D02*
X128785714Y-92892914D01*
X128785714Y-92892914D02*
X128738095Y-93083390D01*
X128738095Y-93083390D02*
X128738095Y-93464342D01*
X128738095Y-93464342D02*
X128785714Y-93559580D01*
X128785714Y-93559580D02*
X128833333Y-93607200D01*
X128833333Y-93607200D02*
X128928571Y-93654819D01*
X128928571Y-93654819D02*
X129119047Y-93654819D01*
X129119047Y-93654819D02*
X129214285Y-93607200D01*
X129214285Y-93607200D02*
X129261904Y-93559580D01*
X129261904Y-93559580D02*
X129309523Y-93464342D01*
X129309523Y-93464342D02*
X129309523Y-93226247D01*
X129309523Y-93226247D02*
X129261904Y-93131009D01*
X129261904Y-93131009D02*
X129214285Y-93083390D01*
X129214285Y-93083390D02*
X129119047Y-93035771D01*
X129119047Y-93035771D02*
X128928571Y-93035771D01*
X128928571Y-93035771D02*
X128833333Y-93083390D01*
X128833333Y-93083390D02*
X128785714Y-93131009D01*
X128785714Y-93131009D02*
X128738095Y-93226247D01*
X154166666Y-103554819D02*
X154166666Y-104269104D01*
X154166666Y-104269104D02*
X154119047Y-104411961D01*
X154119047Y-104411961D02*
X154023809Y-104507200D01*
X154023809Y-104507200D02*
X153880952Y-104554819D01*
X153880952Y-104554819D02*
X153785714Y-104554819D01*
X154547619Y-103554819D02*
X155166666Y-103554819D01*
X155166666Y-103554819D02*
X154833333Y-103935771D01*
X154833333Y-103935771D02*
X154976190Y-103935771D01*
X154976190Y-103935771D02*
X155071428Y-103983390D01*
X155071428Y-103983390D02*
X155119047Y-104031009D01*
X155119047Y-104031009D02*
X155166666Y-104126247D01*
X155166666Y-104126247D02*
X155166666Y-104364342D01*
X155166666Y-104364342D02*
X155119047Y-104459580D01*
X155119047Y-104459580D02*
X155071428Y-104507200D01*
X155071428Y-104507200D02*
X154976190Y-104554819D01*
X154976190Y-104554819D02*
X154690476Y-104554819D01*
X154690476Y-104554819D02*
X154595238Y-104507200D01*
X154595238Y-104507200D02*
X154547619Y-104459580D01*
D11*
%TO.C,C7*%
X138388748Y-97015000D02*
X138911252Y-97015000D01*
X138388748Y-98485000D02*
X138911252Y-98485000D01*
%TO.C,J6*%
X153070000Y-68000000D02*
X154450000Y-68000000D01*
X153070000Y-69380000D02*
X153070000Y-68000000D01*
X153070000Y-70650000D02*
X153070000Y-83460000D01*
X153070000Y-70650000D02*
X155830000Y-70650000D01*
X153070000Y-83460000D02*
X155830000Y-83460000D01*
X155830000Y-70650000D02*
X155830000Y-83460000D01*
%TO.C,C25*%
X129238748Y-111465000D02*
X129761252Y-111465000D01*
X129238748Y-112935000D02*
X129761252Y-112935000D01*
%TO.C,C11*%
X127538748Y-106765000D02*
X128061252Y-106765000D01*
X127538748Y-108235000D02*
X128061252Y-108235000D01*
%TO.C,U5*%
X118310000Y-97850000D02*
X119675000Y-97850000D01*
X118310000Y-108250000D02*
X119675000Y-108250000D01*
X119675000Y-97850000D02*
X119675000Y-98800000D01*
X119675000Y-108250000D02*
X119675000Y-107300000D01*
X122840000Y-107730000D02*
X122160000Y-107730000D01*
X122500000Y-107260000D01*
X122840000Y-107730000D01*
G36*
X122840000Y-107730000D02*
G01*
X122160000Y-107730000D01*
X122500000Y-107260000D01*
X122840000Y-107730000D01*
G37*
%TO.C,R10*%
X138877064Y-100765000D02*
X138422936Y-100765000D01*
X138877064Y-102235000D02*
X138422936Y-102235000D01*
%TO.C,SW2*%
X104850000Y-77950000D02*
X104850000Y-79950000D01*
X105900000Y-76650000D02*
X106350000Y-76200000D01*
X105900000Y-81250000D02*
X106350000Y-81700000D01*
X106350000Y-76200000D02*
X108850000Y-76200000D01*
X106350000Y-81700000D02*
X108850000Y-81700000D01*
X109300000Y-76650000D02*
X108850000Y-76200000D01*
X109300000Y-81250000D02*
X108850000Y-81700000D01*
X110350000Y-77950000D02*
X110350000Y-79950000D01*
%TO.C,U7*%
X144940000Y-109990000D02*
X144940000Y-111250000D01*
X144940000Y-116810000D02*
X144940000Y-115550000D01*
X148700000Y-109990000D02*
X144940000Y-109990000D01*
X148700000Y-116810000D02*
X144940000Y-116810000D01*
X150220000Y-117040000D02*
X149740000Y-117040000D01*
X149980000Y-116710000D01*
X150220000Y-117040000D01*
G36*
X150220000Y-117040000D02*
G01*
X149740000Y-117040000D01*
X149980000Y-116710000D01*
X150220000Y-117040000D01*
G37*
%TO.C,R27*%
X106560436Y-70265000D02*
X107014564Y-70265000D01*
X106560436Y-71735000D02*
X107014564Y-71735000D01*
%TO.C,R14*%
X138410436Y-89065000D02*
X138864564Y-89065000D01*
X138410436Y-90535000D02*
X138864564Y-90535000D01*
%TO.C,D1*%
X148250000Y-100660000D02*
X148250000Y-95150000D01*
X148250000Y-100660000D02*
X151550000Y-100660000D01*
X151550000Y-100660000D02*
X151550000Y-95150000D01*
%TO.C,R9*%
X131464564Y-100815000D02*
X131010436Y-100815000D01*
X131464564Y-102285000D02*
X131010436Y-102285000D01*
%TO.C,Q3*%
X142790000Y-85987500D02*
X142790000Y-85337500D01*
X142790000Y-85987500D02*
X142790000Y-86637500D01*
X145910000Y-85987500D02*
X145910000Y-85337500D01*
X145910000Y-85987500D02*
X145910000Y-86637500D01*
X142840000Y-87150000D02*
X142510000Y-87390000D01*
X142510000Y-86910000D01*
X142840000Y-87150000D01*
G36*
X142840000Y-87150000D02*
G01*
X142510000Y-87390000D01*
X142510000Y-86910000D01*
X142840000Y-87150000D01*
G37*
%TO.C,C36*%
X110461252Y-72265000D02*
X109938748Y-72265000D01*
X110461252Y-73735000D02*
X109938748Y-73735000D01*
%TO.C,U8*%
X114170000Y-60330000D02*
X114170000Y-66490000D01*
X114170000Y-60330000D02*
X132410000Y-60330000D01*
X114170000Y-85290000D02*
X114170000Y-86070000D01*
X114170000Y-86070000D02*
X115170000Y-86070000D01*
X132410000Y-60330000D02*
X132410000Y-66745000D01*
X132410000Y-85290000D02*
X132410000Y-86070000D01*
X132410000Y-86070000D02*
X131410000Y-86070000D01*
X114165000Y-67215000D02*
X113665000Y-67215000D01*
X114165000Y-66715000D01*
X114165000Y-67215000D01*
G36*
X114165000Y-67215000D02*
G01*
X113665000Y-67215000D01*
X114165000Y-66715000D01*
X114165000Y-67215000D01*
G37*
%TO.C,C6*%
X134938748Y-95015000D02*
X135461252Y-95015000D01*
X134938748Y-96485000D02*
X135461252Y-96485000D01*
%TO.C,C12*%
X134838748Y-106615000D02*
X135361252Y-106615000D01*
X134838748Y-108085000D02*
X135361252Y-108085000D01*
%TO.C,L1*%
X114325000Y-110600000D02*
X114325000Y-111050000D01*
X114325000Y-110600000D02*
X120525000Y-110600000D01*
X114325000Y-116800000D02*
X114325000Y-116350000D01*
X120525000Y-110600000D02*
X120525000Y-111050000D01*
X120525000Y-116800000D02*
X114325000Y-116800000D01*
X120525000Y-116800000D02*
X120525000Y-116350000D01*
%TO.C,TP3*%
X99950000Y-80000000D02*
X101850000Y-80000000D01*
X99950000Y-81900000D02*
X99950000Y-80000000D01*
X101850000Y-80000000D02*
X101850000Y-81900000D01*
X101850000Y-81900000D02*
X99950000Y-81900000D01*
%TO.C,D9*%
X148250000Y-108960000D02*
X148250000Y-103450000D01*
X148250000Y-108960000D02*
X151550000Y-108960000D01*
X151550000Y-108960000D02*
X151550000Y-103450000D01*
%TO.C,R8*%
X128064564Y-98915000D02*
X127610436Y-98915000D01*
X128064564Y-100385000D02*
X127610436Y-100385000D01*
%TO.C,C26*%
X129063748Y-114915000D02*
X129586252Y-114915000D01*
X129063748Y-116385000D02*
X129586252Y-116385000D01*
%TO.C,D2*%
X143150000Y-100610000D02*
X143150000Y-95100000D01*
X143150000Y-100610000D02*
X146450000Y-100610000D01*
X146450000Y-100610000D02*
X146450000Y-95100000D01*
%TO.C,TP5*%
X96800000Y-76300000D02*
X98700000Y-76300000D01*
X96800000Y-78200000D02*
X96800000Y-76300000D01*
X98700000Y-76300000D02*
X98700000Y-78200000D01*
X98700000Y-78200000D02*
X96800000Y-78200000D01*
%TO.C,FB1*%
X135537122Y-99090000D02*
X134737878Y-99090000D01*
X135537122Y-100210000D02*
X134737878Y-100210000D01*
%TO.C,C33*%
X135488748Y-67965000D02*
X136011252Y-67965000D01*
X135488748Y-69435000D02*
X136011252Y-69435000D01*
%TO.C,TP4*%
X96800000Y-80000000D02*
X98700000Y-80000000D01*
X96800000Y-81900000D02*
X96800000Y-80000000D01*
X98700000Y-80000000D02*
X98700000Y-81900000D01*
X98700000Y-81900000D02*
X96800000Y-81900000D01*
%TO.C,C31*%
X112315000Y-92911252D02*
X112315000Y-92388748D01*
X113785000Y-92911252D02*
X113785000Y-92388748D01*
%TO.C,C8*%
X127538748Y-102765000D02*
X128061252Y-102765000D01*
X127538748Y-104235000D02*
X128061252Y-104235000D01*
%TO.C,D11*%
X146312500Y-76810000D02*
X148997500Y-76810000D01*
X148997500Y-74890000D02*
X146312500Y-74890000D01*
X148997500Y-76810000D02*
X148997500Y-74890000D01*
%TO.C,C5*%
X138438748Y-93015000D02*
X138961252Y-93015000D01*
X138438748Y-94485000D02*
X138961252Y-94485000D01*
%TO.C,R29*%
X136077064Y-75965000D02*
X135622936Y-75965000D01*
X136077064Y-77435000D02*
X135622936Y-77435000D01*
%TO.C,C28*%
X109938748Y-68265000D02*
X110461252Y-68265000D01*
X109938748Y-69735000D02*
X110461252Y-69735000D01*
%TO.C,C35*%
X139561252Y-73965000D02*
X139038748Y-73965000D01*
X139561252Y-75435000D02*
X139038748Y-75435000D01*
%TO.C,D10*%
X142740000Y-80300000D02*
X142740000Y-83600000D01*
X142740000Y-80300000D02*
X148250000Y-80300000D01*
X142740000Y-83600000D02*
X148250000Y-83600000D01*
%TO.C,J4*%
X94410000Y-85760000D02*
X106750000Y-85760000D01*
X106750000Y-85760000D02*
X106750000Y-116730000D01*
X106750000Y-116730000D02*
X94410000Y-116730000D01*
X107211325Y-95705000D02*
X107644338Y-95455000D01*
X107644338Y-95455000D02*
X107644338Y-95955000D01*
X107644338Y-95955000D02*
X107211325Y-95705000D01*
%TO.C,C29*%
X130215000Y-90238748D02*
X130215000Y-90761252D01*
X131685000Y-90238748D02*
X131685000Y-90761252D01*
%TO.C,C13*%
X134938748Y-90965000D02*
X135461252Y-90965000D01*
X134938748Y-92435000D02*
X135461252Y-92435000D01*
%TO.C,D8*%
X136840000Y-108550000D02*
X136840000Y-110550000D01*
X136840000Y-108550000D02*
X140850000Y-108550000D01*
X136840000Y-110550000D02*
X140850000Y-110550000D01*
%TO.C,C10*%
X130988748Y-104765000D02*
X131511252Y-104765000D01*
X130988748Y-106235000D02*
X131511252Y-106235000D01*
%TO.C,SW1*%
X135050000Y-82200000D02*
X135050000Y-84200000D01*
X136100000Y-80900000D02*
X136550000Y-80450000D01*
X136100000Y-85500000D02*
X136550000Y-85950000D01*
X136550000Y-80450000D02*
X139050000Y-80450000D01*
X136550000Y-85950000D02*
X139050000Y-85950000D01*
X139500000Y-80900000D02*
X139050000Y-80450000D01*
X139500000Y-85500000D02*
X139050000Y-85950000D01*
X140550000Y-82200000D02*
X140550000Y-84200000D01*
%TO.C,D12*%
X146312500Y-73360000D02*
X148997500Y-73360000D01*
X148997500Y-71440000D02*
X146312500Y-71440000D01*
X148997500Y-73360000D02*
X148997500Y-71440000D01*
%TO.C,R26*%
X135464564Y-87065000D02*
X135010436Y-87065000D01*
X135464564Y-88535000D02*
X135010436Y-88535000D01*
%TO.C,J1*%
X153070000Y-91140000D02*
X154450000Y-91140000D01*
X153070000Y-92520000D02*
X153070000Y-91140000D01*
X153070000Y-93790000D02*
X153070000Y-96440000D01*
X153070000Y-93790000D02*
X155830000Y-93790000D01*
X153070000Y-96440000D02*
X155830000Y-96440000D01*
X155830000Y-93790000D02*
X155830000Y-96440000D01*
%TO.C,R30*%
X139010436Y-77915000D02*
X139464564Y-77915000D01*
X139010436Y-79385000D02*
X139464564Y-79385000D01*
%TO.C,R28*%
X135622936Y-71965000D02*
X136077064Y-71965000D01*
X135622936Y-73435000D02*
X136077064Y-73435000D01*
%TO.C,C34*%
X138988748Y-69965000D02*
X139511252Y-69965000D01*
X138988748Y-71435000D02*
X139511252Y-71435000D01*
%TO.C,TP2*%
X142550000Y-102650000D02*
X144450000Y-102650000D01*
X142550000Y-104550000D02*
X142550000Y-102650000D01*
X144450000Y-102650000D02*
X144450000Y-104550000D01*
X144450000Y-104550000D02*
X142550000Y-104550000D01*
%TO.C,D7*%
X123175000Y-117360000D02*
X123175000Y-111850000D01*
X123175000Y-117360000D02*
X126475000Y-117360000D01*
X126475000Y-117360000D02*
X126475000Y-111850000D01*
%TO.C,R13*%
X138372936Y-104665000D02*
X138827064Y-104665000D01*
X138372936Y-106135000D02*
X138827064Y-106135000D01*
%TO.C,R11*%
X134972936Y-102665000D02*
X135427064Y-102665000D01*
X134972936Y-104135000D02*
X135427064Y-104135000D01*
%TO.C,C30*%
X112315000Y-88911252D02*
X112315000Y-88388748D01*
X113785000Y-88911252D02*
X113785000Y-88388748D01*
%TO.C,J5*%
X153070000Y-84590000D02*
X154450000Y-84590000D01*
X153070000Y-85970000D02*
X153070000Y-84590000D01*
X153070000Y-87240000D02*
X153070000Y-89890000D01*
X153070000Y-87240000D02*
X155830000Y-87240000D01*
X153070000Y-89890000D02*
X155830000Y-89890000D01*
X155830000Y-87240000D02*
X155830000Y-89890000D01*
%TO.C,TP1*%
X142650000Y-106350000D02*
X144550000Y-106350000D01*
X142650000Y-108250000D02*
X142650000Y-106350000D01*
X144550000Y-106350000D02*
X144550000Y-108250000D01*
X144550000Y-108250000D02*
X142650000Y-108250000D01*
%TO.C,C17*%
X133815000Y-114838748D02*
X133815000Y-115361252D01*
X135285000Y-114838748D02*
X135285000Y-115361252D01*
%TO.C,C32*%
X114665000Y-92961252D02*
X114665000Y-92438748D01*
X116135000Y-92961252D02*
X116135000Y-92438748D01*
%TO.C,F1*%
X147286252Y-88790000D02*
X144513748Y-88790000D01*
X147286252Y-92210000D02*
X144513748Y-92210000D01*
%TO.C,U6*%
X117255000Y-92150000D02*
X117255000Y-90200000D01*
X117255000Y-92150000D02*
X117255000Y-94100000D01*
X127375000Y-92150000D02*
X127375000Y-90200000D01*
X127375000Y-92150000D02*
X127375000Y-94100000D01*
X127650000Y-89690000D02*
X127320000Y-89450000D01*
X127650000Y-89210000D01*
X127650000Y-89690000D01*
G36*
X127650000Y-89690000D02*
G01*
X127320000Y-89450000D01*
X127650000Y-89210000D01*
X127650000Y-89690000D01*
G37*
%TO.C,J3*%
X153120000Y-97490000D02*
X154500000Y-97490000D01*
X153120000Y-98870000D02*
X153120000Y-97490000D01*
X153120000Y-100140000D02*
X153120000Y-102790000D01*
X153120000Y-100140000D02*
X155880000Y-100140000D01*
X153120000Y-102790000D02*
X155880000Y-102790000D01*
X155880000Y-100140000D02*
X155880000Y-102790000D01*
%TD*%
M02*
