%TF.GenerationSoftware,KiCad,Pcbnew,9.0.2*%
%TF.CreationDate,2025-08-22T10:47:20-03:00*%
%TF.ProjectId,Projeto SIllion,50726f6a-6574-46f2-9053-496c6c696f6e,rev?*%
%TF.SameCoordinates,Original*%
%TF.FileFunction,Legend,Bot*%
%TF.FilePolarity,Positive*%
%FSLAX46Y46*%
G04 Gerber Fmt 4.6, Leading zero omitted, Abs format (unit mm)*
G04 Created by KiCad (PCBNEW 9.0.2) date 2025-08-22 10:47:20*
%MOMM*%
%LPD*%
G01*
G04 APERTURE LIST*
%ADD10C,0.200000*%
G04 APERTURE END LIST*
D10*
X155375564Y-115700552D02*
X155185088Y-116367219D01*
X155185088Y-116367219D02*
X154994612Y-115891028D01*
X154994612Y-115891028D02*
X154804136Y-116367219D01*
X154804136Y-116367219D02*
X154613660Y-115700552D01*
X154327945Y-115700552D02*
X154137469Y-116367219D01*
X154137469Y-116367219D02*
X153946993Y-115891028D01*
X153946993Y-115891028D02*
X153756517Y-116367219D01*
X153756517Y-116367219D02*
X153566041Y-115700552D01*
X153280326Y-115700552D02*
X153089850Y-116367219D01*
X153089850Y-116367219D02*
X152899374Y-115891028D01*
X152899374Y-115891028D02*
X152708898Y-116367219D01*
X152708898Y-116367219D02*
X152518422Y-115700552D01*
X152137469Y-116271980D02*
X152089850Y-116319600D01*
X152089850Y-116319600D02*
X152137469Y-116367219D01*
X152137469Y-116367219D02*
X152185088Y-116319600D01*
X152185088Y-116319600D02*
X152137469Y-116271980D01*
X152137469Y-116271980D02*
X152137469Y-116367219D01*
X151518422Y-116367219D02*
X151613660Y-116319600D01*
X151613660Y-116319600D02*
X151661279Y-116224361D01*
X151661279Y-116224361D02*
X151661279Y-115367219D01*
X151137469Y-116367219D02*
X151137469Y-115700552D01*
X151137469Y-115367219D02*
X151185088Y-115414838D01*
X151185088Y-115414838D02*
X151137469Y-115462457D01*
X151137469Y-115462457D02*
X151089850Y-115414838D01*
X151089850Y-115414838D02*
X151137469Y-115367219D01*
X151137469Y-115367219D02*
X151137469Y-115462457D01*
X150661279Y-115700552D02*
X150661279Y-116367219D01*
X150661279Y-115795790D02*
X150613660Y-115748171D01*
X150613660Y-115748171D02*
X150518422Y-115700552D01*
X150518422Y-115700552D02*
X150375565Y-115700552D01*
X150375565Y-115700552D02*
X150280327Y-115748171D01*
X150280327Y-115748171D02*
X150232708Y-115843409D01*
X150232708Y-115843409D02*
X150232708Y-116367219D01*
X149756517Y-116367219D02*
X149756517Y-115367219D01*
X149661279Y-115986266D02*
X149375565Y-116367219D01*
X149375565Y-115700552D02*
X149756517Y-116081504D01*
X148566041Y-116319600D02*
X148661279Y-116367219D01*
X148661279Y-116367219D02*
X148851755Y-116367219D01*
X148851755Y-116367219D02*
X148946993Y-116319600D01*
X148946993Y-116319600D02*
X148994612Y-116224361D01*
X148994612Y-116224361D02*
X148994612Y-115843409D01*
X148994612Y-115843409D02*
X148946993Y-115748171D01*
X148946993Y-115748171D02*
X148851755Y-115700552D01*
X148851755Y-115700552D02*
X148661279Y-115700552D01*
X148661279Y-115700552D02*
X148566041Y-115748171D01*
X148566041Y-115748171D02*
X148518422Y-115843409D01*
X148518422Y-115843409D02*
X148518422Y-115938647D01*
X148518422Y-115938647D02*
X148994612Y-116033885D01*
X147661279Y-116367219D02*
X147661279Y-115367219D01*
X147661279Y-116319600D02*
X147756517Y-116367219D01*
X147756517Y-116367219D02*
X147946993Y-116367219D01*
X147946993Y-116367219D02*
X148042231Y-116319600D01*
X148042231Y-116319600D02*
X148089850Y-116271980D01*
X148089850Y-116271980D02*
X148137469Y-116176742D01*
X148137469Y-116176742D02*
X148137469Y-115891028D01*
X148137469Y-115891028D02*
X148089850Y-115795790D01*
X148089850Y-115795790D02*
X148042231Y-115748171D01*
X148042231Y-115748171D02*
X147946993Y-115700552D01*
X147946993Y-115700552D02*
X147756517Y-115700552D01*
X147756517Y-115700552D02*
X147661279Y-115748171D01*
X147185088Y-116367219D02*
X147185088Y-115700552D01*
X147185088Y-115367219D02*
X147232707Y-115414838D01*
X147232707Y-115414838D02*
X147185088Y-115462457D01*
X147185088Y-115462457D02*
X147137469Y-115414838D01*
X147137469Y-115414838D02*
X147185088Y-115367219D01*
X147185088Y-115367219D02*
X147185088Y-115462457D01*
X146708898Y-115700552D02*
X146708898Y-116367219D01*
X146708898Y-115795790D02*
X146661279Y-115748171D01*
X146661279Y-115748171D02*
X146566041Y-115700552D01*
X146566041Y-115700552D02*
X146423184Y-115700552D01*
X146423184Y-115700552D02*
X146327946Y-115748171D01*
X146327946Y-115748171D02*
X146280327Y-115843409D01*
X146280327Y-115843409D02*
X146280327Y-116367219D01*
X145804136Y-116271980D02*
X145756517Y-116319600D01*
X145756517Y-116319600D02*
X145804136Y-116367219D01*
X145804136Y-116367219D02*
X145851755Y-116319600D01*
X145851755Y-116319600D02*
X145804136Y-116271980D01*
X145804136Y-116271980D02*
X145804136Y-116367219D01*
X144899375Y-116319600D02*
X144994613Y-116367219D01*
X144994613Y-116367219D02*
X145185089Y-116367219D01*
X145185089Y-116367219D02*
X145280327Y-116319600D01*
X145280327Y-116319600D02*
X145327946Y-116271980D01*
X145327946Y-116271980D02*
X145375565Y-116176742D01*
X145375565Y-116176742D02*
X145375565Y-115891028D01*
X145375565Y-115891028D02*
X145327946Y-115795790D01*
X145327946Y-115795790D02*
X145280327Y-115748171D01*
X145280327Y-115748171D02*
X145185089Y-115700552D01*
X145185089Y-115700552D02*
X144994613Y-115700552D01*
X144994613Y-115700552D02*
X144899375Y-115748171D01*
X144327946Y-116367219D02*
X144423184Y-116319600D01*
X144423184Y-116319600D02*
X144470803Y-116271980D01*
X144470803Y-116271980D02*
X144518422Y-116176742D01*
X144518422Y-116176742D02*
X144518422Y-115891028D01*
X144518422Y-115891028D02*
X144470803Y-115795790D01*
X144470803Y-115795790D02*
X144423184Y-115748171D01*
X144423184Y-115748171D02*
X144327946Y-115700552D01*
X144327946Y-115700552D02*
X144185089Y-115700552D01*
X144185089Y-115700552D02*
X144089851Y-115748171D01*
X144089851Y-115748171D02*
X144042232Y-115795790D01*
X144042232Y-115795790D02*
X143994613Y-115891028D01*
X143994613Y-115891028D02*
X143994613Y-116176742D01*
X143994613Y-116176742D02*
X144042232Y-116271980D01*
X144042232Y-116271980D02*
X144089851Y-116319600D01*
X144089851Y-116319600D02*
X144185089Y-116367219D01*
X144185089Y-116367219D02*
X144327946Y-116367219D01*
X143566041Y-116367219D02*
X143566041Y-115700552D01*
X143566041Y-115795790D02*
X143518422Y-115748171D01*
X143518422Y-115748171D02*
X143423184Y-115700552D01*
X143423184Y-115700552D02*
X143280327Y-115700552D01*
X143280327Y-115700552D02*
X143185089Y-115748171D01*
X143185089Y-115748171D02*
X143137470Y-115843409D01*
X143137470Y-115843409D02*
X143137470Y-116367219D01*
X143137470Y-115843409D02*
X143089851Y-115748171D01*
X143089851Y-115748171D02*
X142994613Y-115700552D01*
X142994613Y-115700552D02*
X142851756Y-115700552D01*
X142851756Y-115700552D02*
X142756517Y-115748171D01*
X142756517Y-115748171D02*
X142708898Y-115843409D01*
X142708898Y-115843409D02*
X142708898Y-116367219D01*
X141518423Y-115319600D02*
X142375565Y-116605314D01*
X141185089Y-116367219D02*
X141185089Y-115700552D01*
X141185089Y-115367219D02*
X141232708Y-115414838D01*
X141232708Y-115414838D02*
X141185089Y-115462457D01*
X141185089Y-115462457D02*
X141137470Y-115414838D01*
X141137470Y-115414838D02*
X141185089Y-115367219D01*
X141185089Y-115367219D02*
X141185089Y-115462457D01*
X140708899Y-115700552D02*
X140708899Y-116367219D01*
X140708899Y-115795790D02*
X140661280Y-115748171D01*
X140661280Y-115748171D02*
X140566042Y-115700552D01*
X140566042Y-115700552D02*
X140423185Y-115700552D01*
X140423185Y-115700552D02*
X140327947Y-115748171D01*
X140327947Y-115748171D02*
X140280328Y-115843409D01*
X140280328Y-115843409D02*
X140280328Y-116367219D01*
X139089852Y-115319600D02*
X139946994Y-116605314D01*
X138756518Y-116367219D02*
X138756518Y-115367219D01*
X138327947Y-116367219D02*
X138327947Y-115843409D01*
X138327947Y-115843409D02*
X138375566Y-115748171D01*
X138375566Y-115748171D02*
X138470804Y-115700552D01*
X138470804Y-115700552D02*
X138613661Y-115700552D01*
X138613661Y-115700552D02*
X138708899Y-115748171D01*
X138708899Y-115748171D02*
X138756518Y-115795790D01*
X137470804Y-116319600D02*
X137566042Y-116367219D01*
X137566042Y-116367219D02*
X137756518Y-116367219D01*
X137756518Y-116367219D02*
X137851756Y-116319600D01*
X137851756Y-116319600D02*
X137899375Y-116224361D01*
X137899375Y-116224361D02*
X137899375Y-115843409D01*
X137899375Y-115843409D02*
X137851756Y-115748171D01*
X137851756Y-115748171D02*
X137756518Y-115700552D01*
X137756518Y-115700552D02*
X137566042Y-115700552D01*
X137566042Y-115700552D02*
X137470804Y-115748171D01*
X137470804Y-115748171D02*
X137423185Y-115843409D01*
X137423185Y-115843409D02*
X137423185Y-115938647D01*
X137423185Y-115938647D02*
X137899375Y-116033885D01*
X136994613Y-115700552D02*
X136994613Y-116367219D01*
X136994613Y-115795790D02*
X136946994Y-115748171D01*
X136946994Y-115748171D02*
X136851756Y-115700552D01*
X136851756Y-115700552D02*
X136708899Y-115700552D01*
X136708899Y-115700552D02*
X136613661Y-115748171D01*
X136613661Y-115748171D02*
X136566042Y-115843409D01*
X136566042Y-115843409D02*
X136566042Y-116367219D01*
X136089851Y-116367219D02*
X136089851Y-115700552D01*
X136089851Y-115891028D02*
X136042232Y-115795790D01*
X136042232Y-115795790D02*
X135994613Y-115748171D01*
X135994613Y-115748171D02*
X135899375Y-115700552D01*
X135899375Y-115700552D02*
X135804137Y-115700552D01*
X135470803Y-116367219D02*
X135470803Y-115700552D01*
X135470803Y-115367219D02*
X135518422Y-115414838D01*
X135518422Y-115414838D02*
X135470803Y-115462457D01*
X135470803Y-115462457D02*
X135423184Y-115414838D01*
X135423184Y-115414838D02*
X135470803Y-115367219D01*
X135470803Y-115367219D02*
X135470803Y-115462457D01*
X134566042Y-115700552D02*
X134566042Y-116700552D01*
X134566042Y-116319600D02*
X134661280Y-116367219D01*
X134661280Y-116367219D02*
X134851756Y-116367219D01*
X134851756Y-116367219D02*
X134946994Y-116319600D01*
X134946994Y-116319600D02*
X134994613Y-116271980D01*
X134994613Y-116271980D02*
X135042232Y-116176742D01*
X135042232Y-116176742D02*
X135042232Y-115891028D01*
X135042232Y-115891028D02*
X134994613Y-115795790D01*
X134994613Y-115795790D02*
X134946994Y-115748171D01*
X134946994Y-115748171D02*
X134851756Y-115700552D01*
X134851756Y-115700552D02*
X134661280Y-115700552D01*
X134661280Y-115700552D02*
X134566042Y-115748171D01*
X133661280Y-115700552D02*
X133661280Y-116367219D01*
X134089851Y-115700552D02*
X134089851Y-116224361D01*
X134089851Y-116224361D02*
X134042232Y-116319600D01*
X134042232Y-116319600D02*
X133946994Y-116367219D01*
X133946994Y-116367219D02*
X133804137Y-116367219D01*
X133804137Y-116367219D02*
X133708899Y-116319600D01*
X133708899Y-116319600D02*
X133661280Y-116271980D01*
X132804137Y-116319600D02*
X132899375Y-116367219D01*
X132899375Y-116367219D02*
X133089851Y-116367219D01*
X133089851Y-116367219D02*
X133185089Y-116319600D01*
X133185089Y-116319600D02*
X133232708Y-116224361D01*
X133232708Y-116224361D02*
X133232708Y-115843409D01*
X133232708Y-115843409D02*
X133185089Y-115748171D01*
X133185089Y-115748171D02*
X133089851Y-115700552D01*
X133089851Y-115700552D02*
X132899375Y-115700552D01*
X132899375Y-115700552D02*
X132804137Y-115748171D01*
X132804137Y-115748171D02*
X132756518Y-115843409D01*
X132756518Y-115843409D02*
X132756518Y-115938647D01*
X132756518Y-115938647D02*
X133232708Y-116033885D01*
X132327946Y-115986266D02*
X131566042Y-115986266D01*
X131089851Y-115700552D02*
X131089851Y-116700552D01*
X131089851Y-115748171D02*
X130994613Y-115700552D01*
X130994613Y-115700552D02*
X130804137Y-115700552D01*
X130804137Y-115700552D02*
X130708899Y-115748171D01*
X130708899Y-115748171D02*
X130661280Y-115795790D01*
X130661280Y-115795790D02*
X130613661Y-115891028D01*
X130613661Y-115891028D02*
X130613661Y-116176742D01*
X130613661Y-116176742D02*
X130661280Y-116271980D01*
X130661280Y-116271980D02*
X130708899Y-116319600D01*
X130708899Y-116319600D02*
X130804137Y-116367219D01*
X130804137Y-116367219D02*
X130994613Y-116367219D01*
X130994613Y-116367219D02*
X131089851Y-116319600D01*
X130185089Y-116367219D02*
X130185089Y-115700552D01*
X130185089Y-115367219D02*
X130232708Y-115414838D01*
X130232708Y-115414838D02*
X130185089Y-115462457D01*
X130185089Y-115462457D02*
X130137470Y-115414838D01*
X130137470Y-115414838D02*
X130185089Y-115367219D01*
X130185089Y-115367219D02*
X130185089Y-115462457D01*
X129708899Y-116367219D02*
X129708899Y-115700552D01*
X129708899Y-115891028D02*
X129661280Y-115795790D01*
X129661280Y-115795790D02*
X129613661Y-115748171D01*
X129613661Y-115748171D02*
X129518423Y-115700552D01*
X129518423Y-115700552D02*
X129423185Y-115700552D01*
X128708899Y-116319600D02*
X128804137Y-116367219D01*
X128804137Y-116367219D02*
X128994613Y-116367219D01*
X128994613Y-116367219D02*
X129089851Y-116319600D01*
X129089851Y-116319600D02*
X129137470Y-116224361D01*
X129137470Y-116224361D02*
X129137470Y-115843409D01*
X129137470Y-115843409D02*
X129089851Y-115748171D01*
X129089851Y-115748171D02*
X128994613Y-115700552D01*
X128994613Y-115700552D02*
X128804137Y-115700552D01*
X128804137Y-115700552D02*
X128708899Y-115748171D01*
X128708899Y-115748171D02*
X128661280Y-115843409D01*
X128661280Y-115843409D02*
X128661280Y-115938647D01*
X128661280Y-115938647D02*
X129137470Y-116033885D01*
X128280327Y-116319600D02*
X128185089Y-116367219D01*
X128185089Y-116367219D02*
X127994613Y-116367219D01*
X127994613Y-116367219D02*
X127899375Y-116319600D01*
X127899375Y-116319600D02*
X127851756Y-116224361D01*
X127851756Y-116224361D02*
X127851756Y-116176742D01*
X127851756Y-116176742D02*
X127899375Y-116081504D01*
X127899375Y-116081504D02*
X127994613Y-116033885D01*
X127994613Y-116033885D02*
X128137470Y-116033885D01*
X128137470Y-116033885D02*
X128232708Y-115986266D01*
X128232708Y-115986266D02*
X128280327Y-115891028D01*
X128280327Y-115891028D02*
X128280327Y-115843409D01*
X128280327Y-115843409D02*
X128232708Y-115748171D01*
X128232708Y-115748171D02*
X128137470Y-115700552D01*
X128137470Y-115700552D02*
X127994613Y-115700552D01*
X127994613Y-115700552D02*
X127899375Y-115748171D01*
X126899375Y-116367219D02*
X127470803Y-116367219D01*
X127185089Y-116367219D02*
X127185089Y-115367219D01*
X127185089Y-115367219D02*
X127280327Y-115510076D01*
X127280327Y-115510076D02*
X127375565Y-115605314D01*
X127375565Y-115605314D02*
X127470803Y-115652933D01*
X125994613Y-115367219D02*
X126470803Y-115367219D01*
X126470803Y-115367219D02*
X126518422Y-115843409D01*
X126518422Y-115843409D02*
X126470803Y-115795790D01*
X126470803Y-115795790D02*
X126375565Y-115748171D01*
X126375565Y-115748171D02*
X126137470Y-115748171D01*
X126137470Y-115748171D02*
X126042232Y-115795790D01*
X126042232Y-115795790D02*
X125994613Y-115843409D01*
X125994613Y-115843409D02*
X125946994Y-115938647D01*
X125946994Y-115938647D02*
X125946994Y-116176742D01*
X125946994Y-116176742D02*
X125994613Y-116271980D01*
X125994613Y-116271980D02*
X126042232Y-116319600D01*
X126042232Y-116319600D02*
X126137470Y-116367219D01*
X126137470Y-116367219D02*
X126375565Y-116367219D01*
X126375565Y-116367219D02*
X126470803Y-116319600D01*
X126470803Y-116319600D02*
X126518422Y-116271980D01*
X124756517Y-115986266D02*
X123994613Y-115986266D01*
X122756517Y-116367219D02*
X122756517Y-115367219D01*
X122756517Y-115843409D02*
X122185089Y-115843409D01*
X122185089Y-116367219D02*
X122185089Y-115367219D01*
X121327946Y-116319600D02*
X121423184Y-116367219D01*
X121423184Y-116367219D02*
X121613660Y-116367219D01*
X121613660Y-116367219D02*
X121708898Y-116319600D01*
X121708898Y-116319600D02*
X121756517Y-116224361D01*
X121756517Y-116224361D02*
X121756517Y-115843409D01*
X121756517Y-115843409D02*
X121708898Y-115748171D01*
X121708898Y-115748171D02*
X121613660Y-115700552D01*
X121613660Y-115700552D02*
X121423184Y-115700552D01*
X121423184Y-115700552D02*
X121327946Y-115748171D01*
X121327946Y-115748171D02*
X121280327Y-115843409D01*
X121280327Y-115843409D02*
X121280327Y-115938647D01*
X121280327Y-115938647D02*
X121756517Y-116033885D01*
X120851755Y-115700552D02*
X120851755Y-116367219D01*
X120851755Y-115795790D02*
X120804136Y-115748171D01*
X120804136Y-115748171D02*
X120708898Y-115700552D01*
X120708898Y-115700552D02*
X120566041Y-115700552D01*
X120566041Y-115700552D02*
X120470803Y-115748171D01*
X120470803Y-115748171D02*
X120423184Y-115843409D01*
X120423184Y-115843409D02*
X120423184Y-116367219D01*
X119946993Y-116367219D02*
X119946993Y-115700552D01*
X119946993Y-115891028D02*
X119899374Y-115795790D01*
X119899374Y-115795790D02*
X119851755Y-115748171D01*
X119851755Y-115748171D02*
X119756517Y-115700552D01*
X119756517Y-115700552D02*
X119661279Y-115700552D01*
X119327945Y-116367219D02*
X119327945Y-115700552D01*
X119327945Y-115367219D02*
X119375564Y-115414838D01*
X119375564Y-115414838D02*
X119327945Y-115462457D01*
X119327945Y-115462457D02*
X119280326Y-115414838D01*
X119280326Y-115414838D02*
X119327945Y-115367219D01*
X119327945Y-115367219D02*
X119327945Y-115462457D01*
X118423184Y-115700552D02*
X118423184Y-116700552D01*
X118423184Y-116319600D02*
X118518422Y-116367219D01*
X118518422Y-116367219D02*
X118708898Y-116367219D01*
X118708898Y-116367219D02*
X118804136Y-116319600D01*
X118804136Y-116319600D02*
X118851755Y-116271980D01*
X118851755Y-116271980D02*
X118899374Y-116176742D01*
X118899374Y-116176742D02*
X118899374Y-115891028D01*
X118899374Y-115891028D02*
X118851755Y-115795790D01*
X118851755Y-115795790D02*
X118804136Y-115748171D01*
X118804136Y-115748171D02*
X118708898Y-115700552D01*
X118708898Y-115700552D02*
X118518422Y-115700552D01*
X118518422Y-115700552D02*
X118423184Y-115748171D01*
X117518422Y-115700552D02*
X117518422Y-116367219D01*
X117946993Y-115700552D02*
X117946993Y-116224361D01*
X117946993Y-116224361D02*
X117899374Y-116319600D01*
X117899374Y-116319600D02*
X117804136Y-116367219D01*
X117804136Y-116367219D02*
X117661279Y-116367219D01*
X117661279Y-116367219D02*
X117566041Y-116319600D01*
X117566041Y-116319600D02*
X117518422Y-116271980D01*
X116661279Y-116319600D02*
X116756517Y-116367219D01*
X116756517Y-116367219D02*
X116946993Y-116367219D01*
X116946993Y-116367219D02*
X117042231Y-116319600D01*
X117042231Y-116319600D02*
X117089850Y-116224361D01*
X117089850Y-116224361D02*
X117089850Y-115843409D01*
X117089850Y-115843409D02*
X117042231Y-115748171D01*
X117042231Y-115748171D02*
X116946993Y-115700552D01*
X116946993Y-115700552D02*
X116756517Y-115700552D01*
X116756517Y-115700552D02*
X116661279Y-115748171D01*
X116661279Y-115748171D02*
X116613660Y-115843409D01*
X116613660Y-115843409D02*
X116613660Y-115938647D01*
X116613660Y-115938647D02*
X117089850Y-116033885D01*
X115423183Y-116367219D02*
X115423183Y-115367219D01*
X115423183Y-115367219D02*
X115042231Y-115367219D01*
X115042231Y-115367219D02*
X114946993Y-115414838D01*
X114946993Y-115414838D02*
X114899374Y-115462457D01*
X114899374Y-115462457D02*
X114851755Y-115557695D01*
X114851755Y-115557695D02*
X114851755Y-115700552D01*
X114851755Y-115700552D02*
X114899374Y-115795790D01*
X114899374Y-115795790D02*
X114946993Y-115843409D01*
X114946993Y-115843409D02*
X115042231Y-115891028D01*
X115042231Y-115891028D02*
X115423183Y-115891028D01*
X114423183Y-116367219D02*
X114423183Y-115700552D01*
X114423183Y-115367219D02*
X114470802Y-115414838D01*
X114470802Y-115414838D02*
X114423183Y-115462457D01*
X114423183Y-115462457D02*
X114375564Y-115414838D01*
X114375564Y-115414838D02*
X114423183Y-115367219D01*
X114423183Y-115367219D02*
X114423183Y-115462457D01*
X113946993Y-116367219D02*
X113946993Y-115700552D01*
X113946993Y-115891028D02*
X113899374Y-115795790D01*
X113899374Y-115795790D02*
X113851755Y-115748171D01*
X113851755Y-115748171D02*
X113756517Y-115700552D01*
X113756517Y-115700552D02*
X113661279Y-115700552D01*
X112946993Y-116319600D02*
X113042231Y-116367219D01*
X113042231Y-116367219D02*
X113232707Y-116367219D01*
X113232707Y-116367219D02*
X113327945Y-116319600D01*
X113327945Y-116319600D02*
X113375564Y-116224361D01*
X113375564Y-116224361D02*
X113375564Y-115843409D01*
X113375564Y-115843409D02*
X113327945Y-115748171D01*
X113327945Y-115748171D02*
X113232707Y-115700552D01*
X113232707Y-115700552D02*
X113042231Y-115700552D01*
X113042231Y-115700552D02*
X112946993Y-115748171D01*
X112946993Y-115748171D02*
X112899374Y-115843409D01*
X112899374Y-115843409D02*
X112899374Y-115938647D01*
X112899374Y-115938647D02*
X113375564Y-116033885D01*
X112518421Y-116319600D02*
X112423183Y-116367219D01*
X112423183Y-116367219D02*
X112232707Y-116367219D01*
X112232707Y-116367219D02*
X112137469Y-116319600D01*
X112137469Y-116319600D02*
X112089850Y-116224361D01*
X112089850Y-116224361D02*
X112089850Y-116176742D01*
X112089850Y-116176742D02*
X112137469Y-116081504D01*
X112137469Y-116081504D02*
X112232707Y-116033885D01*
X112232707Y-116033885D02*
X112375564Y-116033885D01*
X112375564Y-116033885D02*
X112470802Y-115986266D01*
X112470802Y-115986266D02*
X112518421Y-115891028D01*
X112518421Y-115891028D02*
X112518421Y-115843409D01*
X112518421Y-115843409D02*
X112470802Y-115748171D01*
X112470802Y-115748171D02*
X112375564Y-115700552D01*
X112375564Y-115700552D02*
X112232707Y-115700552D01*
X112232707Y-115700552D02*
X112137469Y-115748171D01*
M02*
